<svg width="27" height="25" viewBox="0 0 27 25" fill="none" xmlns="http://www.w3.org/2000/svg">
    <path d="M3.37578 8.26477C3.37578 8.87265 3.87314 9.37001 4.48102 9.37001C5.08891 9.37001 5.58627 8.87265 5.58627 8.26477V6.05428H7.79675C8.40463 6.05428 8.90199 5.55692 8.90199 4.94904C8.90199 4.34116 8.40463 3.8438 7.79675 3.8438H5.58627V1.63332C5.58627 1.02543 5.08891 0.528076 4.48102 0.528076C3.87314 0.528076 3.37578 1.02543 3.37578 1.63332V3.8438H1.1653C0.557417 3.8438 0.0600586 4.34116 0.0600586 4.94904C0.0600586 5.55692 0.557417 6.05428 1.1653 6.05428H3.37578V8.26477Z"
          fill="white"/>
    <path d="M14.9811 19.3173C17.1176 19.3173 18.8495 17.5853 18.8495 15.4489C18.8495 13.3125 17.1176 11.5806 14.9811 11.5806C12.8447 11.5806 11.1128 13.3125 11.1128 15.4489C11.1128 17.5853 12.8447 19.3173 14.9811 19.3173Z"
          fill="white"/>
    <path d="M24.265 6.17728H20.5862L19.1472 4.60231C18.7178 4.12399 18.0912 3.84399 17.4413 3.84399H10.0141C10.2113 4.19399 10.339 4.57898 10.339 5.01064C10.339 6.29395 9.29454 7.34392 8.01799 7.34392H6.85749V8.51057C6.85749 9.79388 5.81303 10.8439 4.53648 10.8439C4.10709 10.8439 3.72413 10.7155 3.37598 10.5172V22.5103C3.37598 23.7936 4.42043 24.8436 5.69698 24.8436H24.265C25.5416 24.8436 26.586 23.7936 26.586 22.5103V8.51057C26.586 7.22726 25.5416 6.17728 24.265 6.17728ZM14.981 21.3436C11.778 21.3436 9.17849 18.7304 9.17849 15.5104C9.17849 12.2905 11.778 9.67721 14.981 9.67721C18.184 9.67721 20.7835 12.2905 20.7835 15.5104C20.7835 18.7304 18.184 21.3436 14.981 21.3436Z"
          fill="white"/>
</svg>
