<svg width="19" height="18" viewBox="0 0 19 18" fill="none" xmlns="http://www.w3.org/2000/svg">
<g clip-path="url(#clip0)">
<path d="M9.4978 3H3.95405C3.53396 3 3.13108 3.16389 2.83404 3.45561C2.53699 3.74733 2.37012 4.143 2.37012 4.55556V15.4444C2.37012 15.857 2.53699 16.2527 2.83404 16.5444C3.13108 16.8361 3.53396 17 3.95405 17H15.0416C15.4616 17 15.8645 16.8361 16.1616 16.5444C16.4586 16.2527 16.6255 15.857 16.6255 15.4444V10" stroke="#5540C7" stroke-width="2" stroke-linecap="round" stroke-linejoin="round"/>
<path d="M15.3918 2.46599C15.719 2.16762 16.1627 2 16.6255 2C17.0882 2 17.5319 2.16762 17.8591 2.46599C18.1863 2.76436 18.3701 3.16903 18.3701 3.59099C18.3701 4.01295 18.1863 4.41762 17.8591 4.71599L10.046 11.841L6.75635 12.591L7.57877 9.59099L15.3918 2.46599Z" fill="#5540C7"/>
</g>
<defs>
<clipPath id="clip0">
<rect width="18" height="18" fill="white" transform="translate(0.370117)"/>
</clipPath>
</defs>
</svg>
