<svg width="46" height="74" viewBox="11 0 46 74" fill="none" xmlns="http://www.w3.org/2000/svg">
  <path d="M34.7569 46.7622C34.2761 46.7623 33.8002 46.6695 33.3566 46.4893C32.913 46.309 32.5107 46.0449 32.173 45.7122L24.3952 38.0892C21.9085 35.6505 20.2198 32.5508 19.5418 29.1807C18.8638 25.8106 19.2267 22.3208 20.585 19.1508C21.9432 15.9809 24.236 13.2727 27.1745 11.3672C30.113 9.46184 33.5657 8.44449 37.0978 8.44336H37.1698C39.5207 8.44648 41.8476 8.90281 44.016 9.78594C46.1843 10.6691 48.151 11.9615 49.8022 13.5884C50.139 13.9182 50.4058 14.3093 50.5871 14.7394C50.7685 15.1694 50.861 15.63 50.8593 16.0948C50.8575 16.5596 50.7617 17.0195 50.5772 17.4483C50.3926 17.8771 50.123 18.2663 49.7838 18.5938C49.4445 18.9213 49.0422 19.1806 48.5999 19.3569C48.1575 19.5333 47.6838 19.6232 47.2057 19.6215C46.7276 19.6198 46.2546 19.5266 45.8135 19.3472C45.3725 19.1678 44.9721 18.9057 44.6353 18.5759C43.6663 17.5612 42.4974 16.7464 41.1979 16.1798C39.8985 15.6133 38.4951 15.3067 37.0713 15.2781C35.6474 15.2496 34.2323 15.4998 32.9099 16.0138C31.5876 16.5278 30.3851 17.2951 29.3739 18.2701C28.3628 19.2451 27.5637 20.4079 27.0242 21.6893C26.4846 22.9706 26.2157 24.3444 26.2333 25.7288C26.2509 27.1133 26.5548 28.4802 27.1268 29.7481C27.6989 31.0161 28.5273 32.1593 29.563 33.1096L37.3408 40.7326C37.8466 41.2286 38.19 41.8591 38.3279 42.5446C38.4658 43.2301 38.3919 43.9399 38.1157 44.5846C37.8394 45.2293 37.373 45.7802 36.7753 46.1677C36.1776 46.5552 35.4753 46.7621 34.7569 46.7622Z" fill="url(#paint0_linear_2197_14645)"/>
  <path d="M33.1234 61.5548H33.0487C30.6978 61.5516 28.3709 61.0953 26.2026 60.2121C24.0343 59.329 22.0676 58.0367 20.4163 56.4098C19.736 55.7436 19.3559 54.8419 19.3594 53.9031C19.3612 53.4383 19.4571 52.9783 19.6417 52.5495C19.8262 52.1207 20.0959 51.7315 20.4352 51.404C20.7745 51.0765 21.1769 50.8172 21.6193 50.6409C22.0617 50.4646 22.5355 50.3747 23.0136 50.3764C23.9792 50.3798 24.9038 50.7561 25.5841 51.4223C26.5637 52.3877 27.7304 53.1545 29.0168 53.6785C30.3032 54.2026 31.6837 54.4733 33.0784 54.4752H33.1225C35.2171 54.4727 37.2642 53.8681 39.0062 52.7374C40.7482 51.6067 42.1075 50.0004 42.9129 48.1206C43.7184 46.2407 43.9341 44.1713 43.5329 42.1726C43.1317 40.1739 42.1315 38.3352 40.6582 36.8877L32.8804 29.2656C32.2001 28.5994 31.8199 27.6978 31.8234 26.7591C31.8268 25.8204 32.2137 24.9215 32.8989 24.2601C33.584 23.5988 34.5114 23.2291 35.4769 23.2324C36.4424 23.2358 37.367 23.6119 38.0473 24.2781L45.8224 31.9055C52.7713 38.7156 52.7254 49.7555 45.7207 56.5087C44.0655 58.1139 42.1008 59.3859 39.9391 60.2518C37.7775 61.1177 35.4614 61.5605 33.1234 61.5548Z" fill="url(#paint1_linear_2197_14645)"/>
  <defs>
    <linearGradient id="paint0_linear_2197_14645" x1="19.2049" y1="27.6032" x2="50.8597" y2="27.6032" gradientUnits="userSpaceOnUse">
      <stop stop-color="white"/>
    </linearGradient>
    <linearGradient id="paint1_linear_2197_14645" x1="7455.61" y1="18591.6" x2="18582.6" y2="18591.6" gradientUnits="userSpaceOnUse">
      <stop offset="0.1" stop-color="white"/>
    </linearGradient>
  </defs>
</svg>
