<svg width="35" height="35" viewBox="0 0 35 35" fill="none" xmlns="http://www.w3.org/2000/svg">
    <path d="M23.3298 13.084C23.3298 10.496 20.9899 8.31299 17.4999 8.31299C13.9799 8.31299 12.2399 9.76899 11.6699 10.389L12.9199 13.408C13.9448 12.3958 15.3197 11.8168 16.7599 11.791C18.3999 11.791 19.3799 12.411 19.3799 13.543C19.3799 14.298 18.7799 14.783 18.1799 15.214L16.5199 16.4C15.9481 16.7325 15.4827 17.2209 15.1781 17.8081C14.8735 18.3953 14.7424 19.057 14.7999 19.716L14.8298 21.468H18.5399L18.5599 20.201C18.5392 20.0227 18.5551 19.842 18.6067 19.67C18.6583 19.4981 18.7444 19.3385 18.8599 19.201C19.2699 18.743 20.3899 18.123 21.3399 17.287C21.9865 16.7993 22.5052 16.1622 22.8518 15.4303C23.1984 14.6983 23.3624 13.8932 23.3298 13.084ZM19.2399 25.161C19.2914 24.6438 19.185 24.1231 18.9348 23.6675C18.6846 23.2119 18.3024 22.8427 17.8383 22.6086C17.3742 22.3746 16.8499 22.2866 16.3348 22.3562C15.8197 22.4258 15.3378 22.6498 14.9525 22.9987C14.5672 23.3476 14.2967 23.805 14.1764 24.3107C14.0561 24.8163 14.0918 25.3466 14.2788 25.8316C14.4658 26.3166 14.7953 26.7336 15.2239 27.0276C15.6525 27.3217 16.1601 27.4791 16.6799 27.479C17.0052 27.5192 17.3353 27.4888 17.6477 27.3899C17.9602 27.2911 18.2476 27.126 18.4905 26.9061C18.7334 26.6861 18.9261 26.4164 19.0554 26.1152C19.1847 25.8141 19.2477 25.4886 19.2399 25.161Z"
          fill="black"/>
    <path fill-rule="evenodd" clip-rule="evenodd"
          d="M17.5 33C20.5656 33 23.5624 32.091 26.1113 30.3878C28.6603 28.6846 30.647 26.2639 31.8202 23.4316C32.9933 20.5994 33.3002 17.4828 32.7021 14.4761C32.1041 11.4694 30.6279 8.70757 28.4602 6.53985C26.2925 4.37213 23.5306 2.8959 20.5239 2.29783C17.5172 1.69976 14.4006 2.00671 11.5683 3.17987C8.73608 4.35303 6.31531 6.3397 4.61215 8.88867C2.90899 11.4376 1.99996 14.4344 1.99996 17.5C1.99996 21.6109 3.63295 25.5534 6.53976 28.4602C9.44658 31.367 13.3891 33 17.5 33ZM35 17.5C35 20.9612 33.9736 24.3446 32.0507 27.2225C30.1277 30.1004 27.3946 32.3434 24.1969 33.6679C20.9992 34.9925 17.4806 35.339 14.0859 34.6638C10.6912 33.9885 7.573 32.3218 5.12558 29.8744C2.67816 27.427 1.01151 24.3088 0.336266 20.9141C-0.338976 17.5194 0.00758172 14.0008 1.33212 10.8031C2.65665 7.60534 4.89957 4.87221 7.77744 2.94929C10.6553 1.02636 14.0388 0 17.5 0C22.1413 0 26.5925 1.84374 29.8744 5.12563C33.1563 8.40752 35 12.8587 35 17.5Z"
          fill="black"/>
</svg>
