<svg width="243" height="213" viewBox="0 0 243 213" fill="none" xmlns="http://www.w3.org/2000/svg">
<rect width="243" height="213" rx="10" fill="white"/>
<path d="M147.182 74.7986V114.172C144.201 112.458 140.735 111.772 137.323 112.219C133.91 112.667 130.741 114.223 128.307 116.646C125.873 119.069 124.31 122.225 123.861 125.623C123.412 129.021 124.101 132.471 125.822 135.439C127.543 138.407 130.2 140.727 133.38 142.038C136.56 143.35 140.086 143.58 143.411 142.693C146.736 141.806 149.674 139.851 151.769 137.132C153.864 134.413 155 131.082 155 127.654V49.2348C155.001 48.2356 154.761 47.2507 154.299 46.3635C153.838 45.4762 153.169 44.7125 152.348 44.1369C151.528 43.5614 150.58 43.1908 149.586 43.0565C148.592 42.9222 147.579 43.0282 146.635 43.3654L96.5982 61.1604C95.3852 61.5934 94.3361 62.3889 93.5944 63.4381C92.8528 64.4873 92.4547 65.739 92.4546 67.022V121.948C89.4739 120.235 86.0087 119.549 82.5963 119.996C79.184 120.443 76.0151 121.998 73.5811 124.421C71.1471 126.844 69.584 129.999 69.1342 133.396C68.6843 136.794 69.3729 140.244 71.093 143.212C72.8132 146.181 75.4689 148.501 78.6483 149.813C81.8277 151.125 85.3532 151.357 88.678 150.471C92.0028 149.585 94.9412 147.632 97.0376 144.914C99.1339 142.196 100.271 138.866 100.273 135.439V91.4805L147.182 74.8064V74.7986Z" fill="url(#paint0_linear)"/>
<defs>
<linearGradient id="paint0_linear" x1="112" y1="48.5" x2="112" y2="151" gradientUnits="userSpaceOnUse">
<stop stop-color="#9098FF"/>
<stop offset="1" stop-color="#5540C7"/>
</linearGradient>
</defs>
</svg>
