<svg width="37" height="37" viewBox="0 0 37 37" fill="none" xmlns="http://www.w3.org/2000/svg">
    <path d="M18.6268 30.4433C19.2747 30.4486 19.8984 30.1939 20.3619 29.7347C20.8254 29.2756 21.0911 28.6493 21.1011 27.9923H16.1428C16.1528 28.651 16.4198 29.2788 16.8854 29.7382C17.351 30.1977 17.9772 30.4512 18.6268 30.4433ZM26.6788 23.0893V16.3476C26.6589 14.5401 26.0358 12.7927 24.9109 11.3904C23.786 9.98807 22.2258 9.01362 20.4847 8.62595V7.7682C20.4691 7.27906 20.2666 6.81525 19.9198 6.47484C19.5731 6.13442 19.1094 5.94409 18.6268 5.94409C18.1442 5.94409 17.6805 6.13442 17.3338 6.47484C16.9871 6.81525 16.7845 7.27906 16.7689 7.7682V8.62595C15.0278 9.01362 13.4676 9.98807 12.3428 11.3904C11.2179 12.7927 10.5947 14.5401 10.5749 16.3476V23.0893L8.09766 25.5403V26.7668H29.156V25.5403L26.6788 23.0893Z"
          fill="black"/>
    <path d="M18.5004 35.0143C27.6285 35.0143 35.0282 27.6206 35.0282 18.5002C35.0282 9.37969 27.6285 1.98608 18.5004 1.98608C9.3724 1.98608 1.97266 9.37969 1.97266 18.5002C1.97266 27.6206 9.3724 35.0143 18.5004 35.0143Z"
          stroke="black" stroke-width="2"/>
</svg>
