<svg width="22" height="22" viewBox="0 0 22 22" fill="none" xmlns="http://www.w3.org/2000/svg">
<path d="M17.6602 11.2949V9.23828C17.6602 6.23812 15.666 3.69527 12.9336 2.86473V1.93359C12.9336 0.86741 12.0662 0 11 0C9.93386 0 9.06645 0.86741 9.06645 1.93359V2.86473C6.33407 3.69527 4.33989 6.23807 4.33989 9.23828V11.2949C4.33989 13.9302 3.33537 16.4291 1.51139 18.3312C1.33264 18.5176 1.28241 18.7927 1.38373 19.0302C1.48505 19.2677 1.71837 19.4219 1.97661 19.4219H7.84223C8.14164 20.8911 9.44376 22 11 22C12.5564 22 13.8584 20.8911 14.1579 19.4219H20.0235C20.2817 19.4219 20.515 19.2677 20.6163 19.0302C20.7176 18.7927 20.6674 18.5176 20.4887 18.3312C18.6647 16.4291 17.6602 13.9302 17.6602 11.2949ZM10.3555 1.93359C10.3555 1.5782 10.6447 1.28906 11 1.28906C11.3554 1.28906 11.6446 1.5782 11.6446 1.93359V2.60941C11.4324 2.58895 11.2175 2.57812 11 2.57812C10.7826 2.57812 10.5677 2.58895 10.3555 2.60941V1.93359ZM11 20.7109C10.1598 20.7109 9.44338 20.1721 9.17731 19.4219H12.8228C12.5567 20.1721 11.8403 20.7109 11 20.7109ZM3.36579 18.1328C4.83365 16.1652 5.62896 13.784 5.62896 11.2949V9.23828C5.62896 6.27666 8.03843 3.86719 11 3.86719C13.9617 3.86719 16.3711 6.27666 16.3711 9.23828V11.2949C16.3711 13.784 17.1664 16.1652 18.6343 18.1328H3.36579Z" fill="black"/>
</svg>
