<svg width="32" height="32" viewBox="0 0 32 32" fill="none" xmlns="http://www.w3.org/2000/svg">
    <g clip-path="url(#clip0)">
        <path d="M15.5252 9.28437L13.0288 12.0934L14.4333 13.3416L16.9297 10.5326C17.9594 9.37384 19.75 9.26833 20.9087 10.2981C22.0674 11.3278 22.1729 13.1184 21.1432 14.2771L18.6468 17.0861L20.0513 18.3343L22.5477 15.5253C24.2702 13.5871 24.0951 10.6161 22.1569 8.89358C20.2187 7.17109 17.2477 7.34616 15.5252 9.28437ZM17.3986 18.4906L14.9023 21.2996C13.8725 22.4583 12.082 22.5638 10.9232 21.5341C9.76453 20.5043 9.65902 18.7138 10.6888 17.555L13.1851 14.746L11.7806 13.4979L9.28427 16.3069C7.56178 18.2451 7.73686 21.2161 9.67507 22.9386C11.6133 24.6611 14.5843 24.486 16.3068 22.5478L18.8031 19.7388L17.3986 18.4906ZM12.7174 18.101L17.7101 12.483L19.1146 13.7312L14.1219 19.3492L12.7174 18.101Z"
              fill="#5540C7"/>
    </g>
    <defs>
        <clipPath id="clip0">
            <rect width="22.5478" height="22.5478" fill="white" transform="translate(0 16.854) rotate(-48.3725)"/>
        </clipPath>
    </defs>
</svg>
