<svg width="18" height="16" viewBox="0 0 18 16" fill="none" xmlns="http://www.w3.org/2000/svg">
<path fill-rule="evenodd" clip-rule="evenodd" d="M17.924 0.537603C17.8741 0.432739 17.801 0.337421 17.709 0.257039L17.705 0.253554C17.5179 0.0909613 17.2643 -0.000237431 17 4.64254e-07H11C10.7348 4.64254e-07 10.4804 0.0917997 10.2929 0.255203C10.1054 0.418607 10 0.64023 10 0.871318C10 1.10241 10.1054 1.32403 10.2929 1.48743C10.4804 1.65084 10.7348 1.74264 11 1.74264H14.586L7.293 8.09716C7.19749 8.17753 7.12131 8.27368 7.0689 8.37998C7.01649 8.48629 6.9889 8.60062 6.98775 8.71631C6.9866 8.83201 7.0119 8.94674 7.06218 9.05382C7.11246 9.1609 7.18671 9.25819 7.28061 9.34C7.3745 9.42181 7.48615 9.48651 7.60905 9.53032C7.73194 9.57413 7.86362 9.59617 7.9964 9.59517C8.12918 9.59416 8.2604 9.57013 8.3824 9.52446C8.50441 9.4788 8.61475 9.41242 8.707 9.3292L16 2.97468V6.09922C16 6.33031 16.1054 6.55193 16.2929 6.71534C16.4804 6.87874 16.7348 6.97054 17 6.97054C17.2652 6.97054 17.5196 6.87874 17.7071 6.71534C17.8946 6.55193 18 6.33031 18 6.09922V0.871318V0.868704C18 0.755433 17.974 0.643904 17.924 0.537603ZM0 4.35659C0 3.20115 0.526784 2.09303 1.46447 1.27602C2.40215 0.458997 3.67392 4.64254e-07 5 4.64254e-07H6C6.26522 4.64254e-07 6.51957 0.0917997 6.70711 0.255203C6.89464 0.418607 7 0.64023 7 0.871318C7 1.10241 6.89464 1.32403 6.70711 1.48743C6.51957 1.65084 6.26522 1.74264 6 1.74264H5C4.20435 1.74264 3.44129 2.01803 2.87868 2.50824C2.31607 2.99846 2 3.66332 2 4.35659V11.3271C2 12.0204 2.31607 12.6853 2.87868 13.1755C3.44129 13.6657 4.20435 13.9411 5 13.9411H13C13.7956 13.9411 14.5587 13.6657 15.1213 13.1755C15.6839 12.6853 16 12.0204 16 11.3271V10.4558C16 10.2247 16.1054 10.0031 16.2929 9.8397C16.4804 9.67629 16.7348 9.58449 17 9.58449C17.2652 9.58449 17.5196 9.67629 17.7071 9.8397C17.8946 10.0031 18 10.2247 18 10.4558V11.3271C18 12.4826 17.4732 13.5907 16.5355 14.4077C15.5979 15.2247 14.3261 15.6837 13 15.6837H5C3.67392 15.6837 2.40215 15.2247 1.46447 14.4077C0.526784 13.5907 0 12.4826 0 11.3271V4.35659Z" fill="#5540C7"/>
</svg>
