<svg xmlns="http://www.w3.org/2000/svg" viewBox="0 0 1467.5 274.24"><path d="M295 110.2a25.28 25.28 0 0 0-9.1-7.1 24.29 24.29 0 0 0-10.9-2.6 34.08 34.08 0 0 0-5.5.5 14.25 14.25 0 0 0-5 1.8 12.37 12.37 0 0 0-3.7 3.5 8.81 8.81 0 0 0-1.5 5.5 8.2 8.2 0 0 0 1.2 4.8 10 10 0 0 0 3.5 3.3 34.65 34.65 0 0 0 5.5 2.6c2.1.8 4.5 1.6 7.1 2.5 3.8 1.3 7.8 2.7 11.9 4.2a45.82 45.82 0 0 1 11.3 6.1 32.69 32.69 0 0 1 8.4 9.4c2.2 3.8 3.3 8.4 3.3 14a37.67 37.67 0 0 1-3.6 16.8 34.12 34.12 0 0 1-9.6 11.7 41.39 41.39 0 0 1-13.8 6.8 57.74 57.74 0 0 1-16 2.2 65.82 65.82 0 0 1-23.3-4.2 48.12 48.12 0 0 1-18.7-12l17.8-18.1a32.22 32.22 0 0 0 10.9 8.5 28.45 28.45 0 0 0 19.3 2.8 14.77 14.77 0 0 0 5-2.1 11.25 11.25 0 0 0 3.4-3.8 12.53 12.53 0 0 0 1.3-5.7 8.79 8.79 0 0 0-1.6-5.4 15.63 15.63 0 0 0-4.5-4 34.12 34.12 0 0 0-7.3-3.3q-4.35-1.5-9.9-3.3a95.18 95.18 0 0 1-10.5-4.1 33.51 33.51 0 0 1-9.2-6.1 28.78 28.78 0 0 1-6.5-9 31.89 31.89 0 0 1-2.5-12.9 31.78 31.78 0 0 1 3.8-16 32.69 32.69 0 0 1 10-10.9 45.32 45.32 0 0 1 14-6.3 63.75 63.75 0 0 1 15.7-2 58.35 58.35 0 0 1 19.4 3.5 49.41 49.41 0 0 1 17.3 10.4ZM435.5 169.5a38.94 38.94 0 0 1-9.8 14.2 45.27 45.27 0 0 1-15.3 9.3 62 62 0 0 1-39.9 0 43.82 43.82 0 0 1-15.1-9.3 39.4 39.4 0 0 1-9.5-14.3 48.84 48.84 0 0 1-3.3-18.5v-70h27v67.8a31.51 31.51 0 0 0 1.2 8.7 20.62 20.62 0 0 0 3.7 7.4 17.45 17.45 0 0 0 6.5 5.2 26.29 26.29 0 0 0 19.5 0 17.57 17.57 0 0 0 6.6-5.2 22.37 22.37 0 0 0 3.7-7.4 32 32 0 0 0 1.1-8.7V81H439v70a51.06 51.06 0 0 1-3.5 18.5ZM560.2 115.6c0 6.6-1.2 12.1-3.7 16.6a30.19 30.19 0 0 1-9.8 10.9 44 44 0 0 1-14.3 6 73.37 73.37 0 0 1-16.8 1.9h-13.4v42.4H475V81h41.3a82.33 82.33 0 0 1 17.2 1.8 42.19 42.19 0 0 1 14 5.9 29 29 0 0 1 9.4 10.6c2.2 4.4 3.3 9.8 3.3 16.3Zm-27 .1a12.31 12.31 0 0 0-1.6-6.5 10.38 10.38 0 0 0-4.3-4 18.83 18.83 0 0 0-6.1-1.9 55.19 55.19 0 0 0-7.1-.5h-11.9v26.5h11.4a44.93 44.93 0 0 0 7.3-.6 20.56 20.56 0 0 0 6.3-2.2 11.81 11.81 0 0 0 4.4-4.2 14 14 0 0 0 1.6-6.6ZM590.9 193.3V81h75.5v22.9H617v21.3h46.7v21.7H617v23.3h52.2v23.2ZM761.7 193.3l-24.4-44.6H728v44.6h-26.5V81h42.8a76.43 76.43 0 0 1 15.8 1.7 40.56 40.56 0 0 1 13.8 5.6 29.07 29.07 0 0 1 9.8 10.5c2.4 4.3 3.7 9.7 3.7 16.2 0 7.6-2.1 14-6.2 19.2s-9.8 8.9-17.1 11.1l29.3 48.1Zm-1.2-77.9a11 11 0 0 0-1.7-6.4 12.08 12.08 0 0 0-4.3-3.8 21.14 21.14 0 0 0-5.9-1.8 44.57 44.57 0 0 0-6.3-.5h-14.5v26.2h12.9a40.2 40.2 0 0 0 6.9-.6 20.73 20.73 0 0 0 6.4-2 11.34 11.34 0 0 0 6.5-11.1ZM940 193.3h-26.8l-22.2-76h-.5l-22.2 76h-27L809.4 81h29.2l17.8 74.7h.5l20-74.7h28.2l20.1 74.7h.5L943.8 81H972ZM1113.1 136.7a64.09 64.09 0 0 1-4.6 24.4 55.08 55.08 0 0 1-32.2 31 71.77 71.77 0 0 1-48.8 0 57.65 57.65 0 0 1-19.4-12.1 55.52 55.52 0 0 1-12.8-18.9 63.38 63.38 0 0 1-4.6-24.4 62.24 62.24 0 0 1 4.6-24.4 52.6 52.6 0 0 1 12.8-18.5 55.1 55.1 0 0 1 19.4-11.7 74.23 74.23 0 0 1 48.8 0 58.22 58.22 0 0 1 19.4 11.7 53.94 53.94 0 0 1 12.8 18.5 60.17 60.17 0 0 1 4.6 24.4Zm-29 0a39 39 0 0 0-2.4-13.6 33.88 33.88 0 0 0-6.6-10.9 30.25 30.25 0 0 0-10.2-7.1 31 31 0 0 0-13.1-2.6 31.36 31.36 0 0 0-23.2 9.8 30.39 30.39 0 0 0-6.6 10.9 39.67 39.67 0 0 0-2.3 13.6 41.62 41.62 0 0 0 2.4 14 33.29 33.29 0 0 0 6.6 11 30.13 30.13 0 0 0 10.1 7.2 33.5 33.5 0 0 0 26 0 33.16 33.16 0 0 0 10.2-7.2 33.55 33.55 0 0 0 6.7-11 38.05 38.05 0 0 0 2.4-14.1ZM1205.5 193.3l-24.4-44.6h-9.2v44.6h-26.5V81h42.9a70.15 70.15 0 0 1 15.8 1.7 40.56 40.56 0 0 1 13.8 5.6 29.07 29.07 0 0 1 9.8 10.5q3.6 6.45 3.6 16.2c0 7.6-2.1 14-6.2 19.2s-9.8 8.9-17.1 11.1l29.3 48.1h-31.8Zm-1.1-77.9a11 11 0 0 0-1.7-6.4 12.08 12.08 0 0 0-4.3-3.8 20.18 20.18 0 0 0-5.9-1.8 44.57 44.57 0 0 0-6.3-.5h-14.5v26.2h12.9a40.2 40.2 0 0 0 6.9-.6 20.73 20.73 0 0 0 6.4-2 11.49 11.49 0 0 0 6.5-11.1ZM1264.8 193.3V81h27.3v88.7h43.5v23.6ZM1467.5 136.8c0 9.8-1.8 18.3-5.5 25.5a51.26 51.26 0 0 1-14.4 17.6 59 59 0 0 1-20.2 10.1 80.1 80.1 0 0 1-22.8 3.3h-41.9V81h40.7a98.09 98.09 0 0 1 23.5 2.8 58 58 0 0 1 20.6 9.2 47.51 47.51 0 0 1 14.6 17.2c3.5 7.2 5.4 16.1 5.4 26.6Zm-28.3 0c0-6.3-1-11.6-3.1-15.8a26.63 26.63 0 0 0-8.2-10 33.75 33.75 0 0 0-11.7-5.4 56.23 56.23 0 0 0-13.6-1.6h-13.5v65.7h12.9a55.32 55.32 0 0 0 14-1.7 33.14 33.14 0 0 0 11.9-5.5 26.77 26.77 0 0 0 8.2-10.1c2.1-4.1 3.1-9.3 3.1-15.6ZM151.9 24.5C134.3 8.5 113.8.1 88.5 0c-2.2.1-5.9.2-9.6.7-24.9 3-45.1 14.7-60.5 34.4C6.1 50.9.1 69 0 89.2c-.1 21.7 6 41.8 21.1 58 3.7 3.9 29.3 30 43.3 44 9.8 9.7 25.1 6.9 30.6-5.4a18 18 0 0 0-3.7-19.7c-13.6-13.8-27.4-27.3-40.7-41.3C39 112.5 34.8 97.5 37.5 80.9c4.6-29.1 33.2-49 62.2-43.4a53.37 53.37 0 0 1 27.9 14.7 18.2 18.2 0 0 0 25.8.2 17.55 17.55 0 0 0 4-6c2.9-6.4 1.8-15.2-5.5-21.9Z" fill="#fff"/><path d="M146.1 125.7c-14.1-15.1-28.5-28.3-43.2-42.5-4.7-4.8-16.9-6-24.1 1.2s-6.3 18.4-2.4 22.9l40.1 40.4c10.2 10.3 15.1 22.7 15.3 38-.2 2.1-.3 5.1-.8 8.1a52.86 52.86 0 0 1-53.9 43.8c-14.1-.4-26.2-5.9-36.4-15.8a18.29 18.29 0 0 0-25.8.1l-.1.1a17.84 17.84 0 0 0-.5 25.2l.5.5a102.41 102.41 0 0 0 14.5 11.8 87.1 87.1 0 0 0 62.8 13.6c26.7-4.2 47.5-17.8 62.2-40.4a85.85 85.85 0 0 0 13.7-56c-1.6-19.4-8.6-36.8-21.9-51Z" fill="#fff"/></svg>