<svg xmlns="http://www.w3.org/2000/svg" xmlns:xlink="http://www.w3.org/1999/xlink" viewBox="0 0 1467.48 274.29"><defs><linearGradient id="a" x1="427.19" y1="-61.63" x2="228.6" y2="120.09" gradientTransform="matrix(1 0 0 -1 -226.75 130.69)" gradientUnits="userSpaceOnUse"><stop offset="0" stop-color="#1e3ad6"/><stop offset=".39" stop-color="#307ee7"/><stop offset=".78" stop-color="#44c6fa"/></linearGradient><linearGradient id="b" x1="376.07" y1="-117.49" x2="177.48" y2="64.22" xlink:href="#a"/></defs><path d="M295 110.18a24.36 24.36 0 0 0-9.12-7.06A25.8 25.8 0 0 0 275 100.5a32.44 32.44 0 0 0-5.48.47 14.22 14.22 0 0 0-5 1.83 12.42 12.42 0 0 0-3.73 3.49 9.3 9.3 0 0 0-1.5 5.47 8.81 8.81 0 0 0 1.19 4.76 10.61 10.61 0 0 0 3.49 3.34 30.83 30.83 0 0 0 5.47 2.61q3.18 1.2 7.14 2.46 5.71 1.91 11.91 4.21a44.37 44.37 0 0 1 11.26 6.11 32.19 32.19 0 0 1 8.41 9.44q3.33 5.64 3.33 14a36.71 36.71 0 0 1-3.57 16.75 33.37 33.37 0 0 1-9.6 11.66 41.06 41.06 0 0 1-13.8 6.82 58.08 58.08 0 0 1-16 2.22 66.35 66.35 0 0 1-23.33-4.2 49.49 49.49 0 0 1-18.72-12l17.77-18.09a32.85 32.85 0 0 0 10.87 8.49 29.58 29.58 0 0 0 13.41 3.41 26.39 26.39 0 0 0 5.87-.64 14.63 14.63 0 0 0 5-2.06 10.25 10.25 0 0 0 3.41-3.81 11.91 11.91 0 0 0 1.27-5.71 9 9 0 0 0-1.59-5.39 15.22 15.22 0 0 0-4.52-4 35.63 35.63 0 0 0-7.3-3.33q-4.36-1.51-9.92-3.26a95.23 95.23 0 0 1-10.55-4.12 35.45 35.45 0 0 1-9.2-6.11 28.23 28.23 0 0 1-6.51-9.05 30.53 30.53 0 0 1-2.48-12.98 31.86 31.86 0 0 1 3.81-16 33.09 33.09 0 0 1 10-11 43 43 0 0 1 14-6.26 63.07 63.07 0 0 1 15.71-2A58.32 58.32 0 0 1 295 81.57a50.18 50.18 0 0 1 17.29 10.36ZM435.48 169.45a40 40 0 0 1-9.76 14.24 45 45 0 0 1-15.31 9.31 61.46 61.46 0 0 1-39.91 0 43.5 43.5 0 0 1-15.07-9.28 40.28 40.28 0 0 1-9.52-14.28 49.31 49.31 0 0 1-3.34-18.49v-70h27v67.76a31.81 31.81 0 0 0 1.19 8.73 22.4 22.4 0 0 0 3.65 7.37 17.09 17.09 0 0 0 6.51 5.16 25.83 25.83 0 0 0 19.51 0 17.7 17.7 0 0 0 6.59-5.16 20.38 20.38 0 0 0 3.65-7.37 33.39 33.39 0 0 0 1.11-8.73V81h27.13v70a48.25 48.25 0 0 1-3.43 18.45ZM560.25 115.57q0 9.84-3.65 16.58a30 30 0 0 1-9.84 10.85 43.45 43.45 0 0 1-14.28 6 73.24 73.24 0 0 1-16.82 1.91h-13.41v42.39h-27.18V81h41.26a77.27 77.27 0 0 1 17.22 1.82 40.53 40.53 0 0 1 14 5.88 28.48 28.48 0 0 1 9.37 10.63q3.33 6.57 3.33 16.24Zm-27.1.12a12.26 12.26 0 0 0-1.58-6.51 11 11 0 0 0-4.29-4 18.52 18.52 0 0 0-6.11-1.91 52.11 52.11 0 0 0-7.06-.47h-11.86v26.5h11.42a39.71 39.71 0 0 0 7.3-.64 19.49 19.49 0 0 0 6.27-2.22 12 12 0 0 0 4.37-4.2 12.57 12.57 0 0 0 1.54-6.55ZM590.91 193.33V81h75.54v22.85H617.1v21.26h46.65v21.74H617.1v23.33h52.2v23.17ZM761.66 193.33l-24.41-44.59H728v44.59h-26.5V81h42.85a74.86 74.86 0 0 1 15.79 1.71A40.93 40.93 0 0 1 774 88.33a29.34 29.34 0 0 1 9.76 10.47q3.66 6.51 3.65 16.19 0 11.42-6.18 19.2T764 145.3l29.35 48.08Zm-1.11-77.92a11.18 11.18 0 0 0-1.68-6.42 11.6 11.6 0 0 0-4.3-3.81 18.89 18.89 0 0 0-5.91-1.83 45.56 45.56 0 0 0-6.29-.47h-14.51v26.18h12.91a42.61 42.61 0 0 0 6.86-.56 21.65 21.65 0 0 0 6.38-2 11.52 11.52 0 0 0 6.54-11.11ZM940 193.33h-26.75l-22.22-76h-.47l-22.22 76h-27L809.44 81h29.2l17.75 74.71h.48l20-74.74h28.25l20.13 74.74h.48L943.81 81h28.25ZM1113.14 136.69a62.52 62.52 0 0 1-4.6 24.35 55.64 55.64 0 0 1-12.77 18.89 57 57 0 0 1-19.44 12.14 71.65 71.65 0 0 1-48.8 0 57.14 57.14 0 0 1-19.36-12.14A55.4 55.4 0 0 1 995.4 161a62.7 62.7 0 0 1-4.6-24.35 62 62 0 0 1 4.6-24.36 53.45 53.45 0 0 1 12.77-18.49 57 57 0 0 1 19.36-11.74 74.1 74.1 0 0 1 48.8 0 56.67 56.67 0 0 1 19.44 11.74 53.45 53.45 0 0 1 12.77 18.49 61.82 61.82 0 0 1 4.6 24.4Zm-29 0a38.51 38.51 0 0 0-2.38-13.65 32.56 32.56 0 0 0-6.58-10.87A30.54 30.54 0 0 0 1065 105a32 32 0 0 0-13.09-2.62 30.82 30.82 0 0 0-29.73 20.62 42 42 0 0 0 .08 27.65 33.13 33.13 0 0 0 6.58 11 30 30 0 0 0 10.08 7.22 33.59 33.59 0 0 0 26 0 30.91 30.91 0 0 0 10.16-7.22 32.3 32.3 0 0 0 6.66-11 40.23 40.23 0 0 0 2.36-14ZM1205.5 193.33l-24.39-44.59h-9.25v44.59h-26.5V81h42.89a74.81 74.81 0 0 1 15.75 1.64 41.18 41.18 0 0 1 13.81 5.64 29.51 29.51 0 0 1 9.76 10.47q3.65 6.51 3.64 16.19 0 11.41-6.18 19.2t-17.14 11.11l29.32 48.08Zm-1.11-77.92a11.18 11.18 0 0 0-1.68-6.42 11.43 11.43 0 0 0-4.3-3.81 18.83 18.83 0 0 0-5.9-1.83 45.82 45.82 0 0 0-6.3-.47h-14.51v26.18h12.91a42.61 42.61 0 0 0 6.86-.56 21.65 21.65 0 0 0 6.38-2 11.52 11.52 0 0 0 6.54-11.11ZM1264.84 193.33V81h27.3v88.71h43.48v23.65ZM1467.48 136.84q0 14.74-5.47 25.46a51.36 51.36 0 0 1-14.44 17.62 60 60 0 0 1-20.24 10.15 81.79 81.79 0 0 1-22.85 3.26h-41.89V81h40.66a100.46 100.46 0 0 1 23.49 2.78 58.91 58.91 0 0 1 20.63 9.2 47.1 47.1 0 0 1 14.6 17.22q5.51 10.8 5.51 26.64Zm-28.24 0q0-9.52-3.1-15.79a26.6 26.6 0 0 0-8.25-10 33.06 33.06 0 0 0-11.74-5.36 58 58 0 0 0-13.57-1.58h-13.49v65.69H1402a58.4 58.4 0 0 0 14-1.66 33.2 33.2 0 0 0 11.9-5.48 27.05 27.05 0 0 0 8.25-10.15q3.15-6.3 3.15-15.67Z" fill="#162680"/><path d="M151.85 24.5C134.26 8.5 113.78.09 88.47 0c-2.22.15-5.91.22-9.56.67C54 3.72 33.76 15.35 18.4 35.08 6.08 50.9.05 69 0 89.21c-.06 21.66 6 41.8 21.12 58 3.67 3.92 29.26 30 43.31 44 9.75 9.72 25.1 6.9 30.56-5.43a17.75 17.75 0 0 0-3.74-19.69c-13.56-13.78-27.43-27.27-40.72-41.31-11.61-12.27-15.75-27.26-13.14-43.89 4.61-29.14 33.21-49 62.24-43.38a54.13 54.13 0 0 1 27.94 14.71 18.27 18.27 0 0 0 29.87-5.74c2.88-6.48 1.81-15.25-5.59-21.98Z" fill="url(#a)"/><path d="M146.15 125.69c-14.07-15.07-28.51-28.34-43.24-42.51-4.68-4.84-16.88-6-24.11 1.2s-6.27 18.38-2.41 22.91c0 0 25.75 26 40.13 40.44 10.2 10.26 15.08 22.67 15.3 38-.2 2.06-.28 5.12-.8 8.09a52.89 52.89 0 0 1-53.86 43.78c-14.08-.37-26.24-5.85-36.37-15.79A18.22 18.22 0 0 0 15 222l-.08.08a17.82 17.82 0 0 0-.46 25.21l.54.54a99.87 99.87 0 0 0 14.54 11.8c19.15 12.37 40.18 17.03 62.78 13.52 26.7-4.16 47.53-17.77 62.2-40.37a86 86 0 0 0 13.73-56c-1.83-19.48-8.82-36.86-22.1-51.09Z" fill="url(#b)"/></svg>