<svg width="35" height="35" viewBox="0 0 35 35" fill="none" xmlns="http://www.w3.org/2000/svg">
    <path d="M9.75 11C9.28587 11 8.84075 11.1844 8.51256 11.5126C8.18437 11.8408 8 12.2859 8 12.75V15.0833H15C15.1547 15.0833 15.3031 15.1448 15.4125 15.2542C15.5219 15.3636 15.5833 15.512 15.5833 15.6667C15.5833 15.9618 15.6767 16.418 15.9403 16.7843C16.1818 17.1203 16.5902 17.4167 17.3333 17.4167C18.0765 17.4167 18.4848 17.1203 18.7263 16.7843C18.99 16.418 19.0833 15.9618 19.0833 15.6667C19.0833 15.512 19.1448 15.3636 19.2542 15.2542C19.3636 15.1448 19.512 15.0833 19.6667 15.0833H26.6667V12.75C26.6667 12.2859 26.4823 11.8408 26.1541 11.5126C25.8259 11.1844 25.3808 11 24.9167 11H9.75Z"
          fill="black"/>
    <path d="M26.6667 16.25H20.1905C20.1068 16.6874 19.9306 17.1019 19.6737 17.4657C19.2152 18.1027 18.4568 18.5833 17.3333 18.5833C16.2098 18.5833 15.4515 18.1027 14.993 17.4657C14.7361 17.1019 14.5599 16.6874 14.4762 16.25H8V23.25C8 23.7141 8.18437 24.1592 8.51256 24.4874C8.84075 24.8156 9.28587 25 9.75 25H24.9167C25.3808 25 25.8259 24.8156 26.1541 24.4874C26.4823 24.1592 26.6667 23.7141 26.6667 23.25V16.25Z"
          fill="black"/>
    <path fill-rule="evenodd" clip-rule="evenodd"
          d="M17.5 33C20.5656 33 23.5624 32.091 26.1113 30.3878C28.6603 28.6846 30.647 26.2639 31.8202 23.4316C32.9933 20.5994 33.3002 17.4828 32.7021 14.4761C32.1041 11.4694 30.6279 8.70757 28.4602 6.53985C26.2925 4.37213 23.5306 2.8959 20.5239 2.29783C17.5172 1.69976 14.4006 2.00671 11.5683 3.17987C8.73608 4.35303 6.31531 6.3397 4.61215 8.88867C2.90899 11.4376 1.99996 14.4344 1.99996 17.5C1.99996 21.6109 3.63295 25.5534 6.53976 28.4602C9.44658 31.367 13.3891 33 17.5 33ZM35 17.5C35 20.9612 33.9736 24.3446 32.0507 27.2225C30.1277 30.1004 27.3946 32.3434 24.1969 33.6679C20.9992 34.9925 17.4806 35.339 14.0859 34.6638C10.6912 33.9885 7.573 32.3218 5.12558 29.8744C2.67816 27.427 1.01151 24.3088 0.336266 20.9141C-0.338976 17.5194 0.00758172 14.0008 1.33212 10.8031C2.65665 7.60534 4.89957 4.87221 7.77744 2.94929C10.6553 1.02636 14.0388 0 17.5 0C22.1413 0 26.5925 1.84374 29.8744 5.12563C33.1563 8.40752 35 12.8587 35 17.5Z"
          fill="black"/>
</svg>
