<svg width="22" height="22" viewBox="0 0 22 22" fill="none" xmlns="http://www.w3.org/2000/svg">
<path d="M8.61578 5.78324C9.88418 5.20979 11.3183 5.116 12.6508 5.51934C13.9834 5.92268 15.1236 6.79565 15.8589 7.9756C16.5943 9.15555 16.8746 10.562 16.6478 11.9329C16.421 13.3039 15.7024 14.5457 14.626 15.4272C13.5495 16.3087 12.1887 16.7697 10.7969 16.7242C9.4051 16.6787 8.07734 16.13 7.06098 15.1801C6.04462 14.2303 5.40898 12.9442 5.27249 11.5614C5.23796 11.2116 4.92582 10.956 4.57529 10.9905C4.22476 11.0249 3.96859 11.3364 4.00312 11.6861C4.16995 13.3762 4.94684 14.9482 6.18905 16.1091C7.43127 17.27 9.05408 17.9407 10.7551 17.9963C12.4562 18.0518 14.1195 17.4884 15.4352 16.4111C16.7508 15.3337 17.629 13.8158 17.9063 12.1402C18.1835 10.4647 17.8408 8.74567 16.9421 7.30351C16.0433 5.86135 14.6498 4.79439 13.0211 4.30142C11.3924 3.80844 9.63963 3.92308 8.08937 4.62396C7.07921 5.08067 6.19991 5.76599 5.51551 6.61604L5.48911 5.26036C5.48226 4.90897 5.19124 4.62965 4.83908 4.63648C4.48692 4.64331 4.20699 4.9337 4.21383 5.28509L4.27409 8.37881C4.28075 8.72058 4.55682 8.99605 4.89933 9.00269L5.1089 9.00675C5.14505 9.01055 5.18119 9.0112 5.21695 9.00885L7.99983 9.06281C8.35198 9.06964 8.64301 8.79032 8.64985 8.43893C8.6567 8.08755 8.37677 7.79715 8.02461 7.79033L6.25434 7.756C6.8431 6.90125 7.65746 6.21651 8.61578 5.78324Z" fill="#5540C7"/>
<path d="M10.3563 10.4727C10.279 10.4597 10.2371 10.4141 10.2307 10.336V9.31062C10.2436 9.2325 10.2854 9.19019 10.3563 9.18368H12.7044V8.17786L11.5062 8.15833V7.18182H10.5689V8.1388C9.79584 8.14531 9.31913 8.45129 9.13875 9.05673C9.09366 9.21948 9.07111 9.392 9.07111 9.57428V10.0821C9.07111 10.9609 9.51883 11.4329 10.4143 11.498C10.4916 11.5045 10.5657 11.5078 10.6365 11.5078H11.6125C11.6898 11.5208 11.7317 11.5631 11.7381 11.6347V12.7089C11.7252 12.787 11.6833 12.8293 11.6125 12.8358H9.20639V13.8417L10.5689 13.871V14.8182H11.5062V13.8807C12.2728 13.8482 12.7237 13.5031 12.859 12.8456C12.8848 12.7154 12.8977 12.582 12.8977 12.4452V11.8593C12.8848 10.9414 12.3694 10.4792 11.3516 10.4727H10.3563Z" fill="#5540C7"/>
<circle cx="11" cy="11" r="10.5" stroke="#5540C7"/>
</svg>
