<svg width="22" height="22" viewBox="0 0 22 22" fill="none" xmlns="http://www.w3.org/2000/svg">
<circle cx="11" cy="11" r="10.5" stroke="#5540C7"/>
<path d="M5.16459 8.1382C4.9105 8.26524 4.75 8.52494 4.75 8.80902V16.5C4.75 16.9142 5.08579 17.25 5.5 17.25H11.5C11.9142 17.25 12.25 16.9142 12.25 16.5V5.80902C12.25 5.25148 11.6633 4.88886 11.1646 5.1382L5.16459 8.1382Z" fill="#5540C7" stroke="white" stroke-width="0.5" stroke-linejoin="round"/>
<path d="M12.5 6.75C12.0858 6.75 11.75 7.08579 11.75 7.5V16.5C11.75 16.9142 12.0858 17.25 12.5 17.25H16.5C16.9142 17.25 17.25 16.9142 17.25 16.5V7.5C17.25 7.08579 16.9142 6.75 16.5 6.75H12.5Z" fill="#5540C7" stroke="white" stroke-width="0.5" stroke-linejoin="round"/>
<path d="M12.124 3.78294C12.0467 3.73872 11.9516 3.73904 11.8745 3.78377C11.7974 3.8285 11.75 3.91088 11.75 4V7.5C11.75 7.91421 12.0858 8.25 12.5 8.25H18.2469C18.7083 8.25 18.8708 7.63824 18.4701 7.40929L15.624 5.78294L12.124 3.78294Z" fill="#5540C7" stroke="white" stroke-width="0.5" stroke-linejoin="round"/>
<path d="M7 14H9.5V17H7V14Z" fill="white"/>
<path d="M6.5 10L10 8.5V11H6.5V10Z" fill="white"/>
<path d="M13 11H16V12.5H13V11Z" fill="white"/>
<path d="M3.59846 9.73839C3.47584 9.49097 3.57701 9.19099 3.82443 9.06836L8.30444 6.84811C8.55187 6.72549 8.85185 6.82667 8.97447 7.07409C9.09709 7.32151 8.99592 7.62149 8.74849 7.74412L4.26848 9.96437C4.02106 10.087 3.72108 9.98581 3.59846 9.73839Z" fill="#5540C7"/>
</svg>
