<svg width="31" height="28" viewBox="0 0 31 28" fill="none" xmlns="http://www.w3.org/2000/svg">
  <path d="M28.4257 3.51042C26.8669 1.81979 24.7281 0.888672 22.4027 0.888672C20.6645 0.888672 19.0727 1.4382 17.6713 2.52186C16.9641 3.06887 16.3234 3.73809 15.7585 4.51919C15.1938 3.73832 14.5528 3.06887 13.8455 2.52186C12.4443 1.4382 10.8525 0.888672 9.1143 0.888672C6.78891 0.888672 4.64984 1.81979 3.09108 3.51042C1.55093 5.18129 0.702515 7.46394 0.702515 9.9382C0.702515 12.4848 1.65155 14.816 3.68908 17.2746C5.51181 19.4738 8.13148 21.7064 11.1651 24.2916C12.201 25.1745 13.3752 26.1752 14.5944 27.2412C14.9165 27.5233 15.3298 27.6786 15.7585 27.6786C16.1869 27.6786 16.6005 27.5233 16.9221 27.2417C18.1413 26.1755 19.3162 25.1743 20.3525 24.2909C23.3857 21.7062 26.0054 19.4738 27.8281 17.2744C29.8657 14.816 30.8145 12.4848 30.8145 9.93797C30.8145 7.46394 29.966 5.18129 28.4257 3.51042Z" fill="#3027EF"/>
</svg>
