<svg xmlns="http://www.w3.org/2000/svg" viewBox="0 0 24 24" xml:space="preserve"><path d="M23.8 9.6H12v4.8h6.8c-1 2.8-3.6 4.8-6.8 4.8-4 0-7.2-3.2-7.2-7.2S8 4.8 12 4.8c1.8 0 3.5.7 4.8 1.8l3.4-3.4C18 1.2 15.2 0 12 0 5.4 0 0 5.4 0 12s5.4 12 12 12 12-5.4 12-12c0-.8-.1-1.6-.2-2.4z" fill="#fbc02d"/><path d="m1.4 6.4 3.9 2.9C6.4 6.7 9 4.8 12 4.8c1.8 0 3.5.7 4.8 1.8l3.4-3.4C18 1.2 15.2 0 12 0 7.4 0 3.4 2.6 1.4 6.4z" fill="#e53935"/><path d="M12 24c3.1 0 5.9-1.2 8-3.1l-3.7-3.1c-1.2.9-2.7 1.5-4.3 1.5-3.1 0-5.8-2-6.8-4.8l-3.9 3c2 3.8 6 6.5 10.7 6.5z" fill="#4caf50"/><path d="M23.8 9.6H12v4.8h6.8c-.5 1.3-1.3 2.5-2.5 3.3l3.7 3.1c-.3.2 4-2.9 4-8.9 0-.7-.1-1.5-.2-2.3z" fill="#1565c0"/></svg>