<svg width="19" height="19" viewBox="0 0 19 19" fill="none" xmlns="http://www.w3.org/2000/svg">
<circle cx="9.5" cy="9.5" r="9.5" fill="#5540C7"/>
<path d="M11.6376 9.4974C11.6376 8.3099 10.6876 7.3599 9.50008 7.3599C8.31258 7.3599 7.36258 8.3099 7.36258 9.4974C7.36258 10.6849 8.31258 11.6349 9.50008 11.6349C10.6876 11.6349 11.6376 10.6849 11.6376 9.4974ZM12.7459 9.4974C12.7459 11.3182 11.3209 12.7432 9.50008 12.7432C7.67925 12.7432 6.25425 11.3182 6.25425 9.4974C6.25425 7.67656 7.67925 6.25156 9.50008 6.25156C11.3209 6.25156 12.7459 7.67656 12.7459 9.4974ZM13.6167 6.09323C13.6167 6.56823 13.3001 6.8849 12.8251 6.8849C12.3501 6.8849 12.0334 6.56823 12.0334 6.09323C12.0334 5.61823 12.3501 5.30156 12.8251 5.30156C13.3001 5.30156 13.6167 5.6974 13.6167 6.09323ZM9.50008 4.2724C8.55008 4.2724 6.57091 4.19323 5.77925 4.5099C5.22508 4.7474 4.75008 5.2224 4.59175 5.77656C4.27508 6.56823 4.35425 8.5474 4.35425 9.4974C4.35425 10.4474 4.27508 12.4266 4.59175 13.2182C4.75008 13.7724 5.22508 14.2474 5.77925 14.4057C6.57091 14.7224 8.62925 14.6432 9.50008 14.6432C10.3709 14.6432 12.4292 14.7224 13.2209 14.4057C13.7751 14.1682 14.1709 13.7724 14.4084 13.2182C14.7251 12.3474 14.6459 10.3682 14.6459 9.4974C14.6459 8.62656 14.7251 6.56823 14.4084 5.77656C14.2501 5.2224 13.7751 4.7474 13.2209 4.58906C12.4292 4.19323 10.4501 4.2724 9.50008 4.2724ZM15.8334 9.4974V12.1099C15.8334 13.0599 15.5167 14.0099 14.8042 14.8016C14.0917 15.5141 13.1417 15.8307 12.1126 15.8307H6.88758C5.93758 15.8307 4.98758 15.5141 4.19591 14.8016C3.56258 14.0891 3.16675 13.1391 3.16675 12.1099V9.4974V6.8849C3.16675 5.85573 3.56258 4.90573 4.19591 4.19323C4.98758 3.5599 5.93758 3.16406 6.88758 3.16406H12.1126C13.0626 3.16406 14.0126 3.48073 14.8042 4.19323C15.4376 4.90573 15.8334 5.85573 15.8334 6.8849V9.4974Z" fill="white"/>
</svg>
