<svg width="24" height="24" viewBox="0 0 24 24" fill="none" xmlns="http://www.w3.org/2000/svg">
    <path d="M12 2C9.34784 2 6.8043 3.05357 4.92893 4.92893C3.05357 6.8043 2 9.34784 2 12C2 14.6522 3.05357 17.1957 4.92893 19.0711C6.8043 20.9464 9.34784 22 12 22C14.6522 22 17.1957 20.9464 19.0711 19.0711C20.9464 17.1957 22 14.6522 22 12C22 9.34784 20.9464 6.8043 19.0711 4.92893C17.1957 3.05357 14.6522 2 12 2Z"
          fill="#5540C7"/>
    <path d="M16.975 7.5L15.102 17.063C15.102 17.063 15.0215 17.5 14.4795 17.5C14.1915 17.5 14.043 17.363 14.043 17.363L9.986 13.9965L8.001 12.996L5.4535 12.3185C5.4535 12.3185 5 12.1875 5 11.8125C5 11.5 5.4665 11.351 5.4665 11.351L16.1245 7.117C16.124 7.1165 16.45 6.9995 16.6875 7C16.8335 7 17 7.0625 17 7.25C17 7.375 16.975 7.5 16.975 7.5Z"
          fill="white"/>
    <path d="M11.4999 15.2525L9.78692 16.9395C9.78692 16.9395 9.71242 16.997 9.61292 16.9995C9.57842 17.0005 9.54142 16.995 9.50342 16.978L9.98542 13.9955L11.4999 15.2525Z"
          fill="#C0C0C0"/>
    <path d="M14.9485 9.09801C14.864 8.98801 14.708 8.96801 14.598 9.05151L8 13C8 13 9.053 15.946 9.2135 16.456C9.3745 16.9665 9.5035 16.9785 9.5035 16.9785L9.9855 13.996L14.9015 9.44801C15.0115 9.36451 15.032 9.20801 14.9485 9.09801Z"
          fill="#DCDCDC"/>
</svg>
