<svg width="19" height="20" viewBox="0 0 19 20" fill="none" xmlns="http://www.w3.org/2000/svg">
<circle cx="9.48438" cy="10.0872" r="9.45312" fill="#5540C7"/>
<g clip-path="url(#clip0)">
<path d="M15.3926 6.47932C14.9493 6.67192 14.4803 6.79881 14.0005 6.85597C14.5048 6.56065 14.8841 6.09149 15.0671 5.53647C14.5903 5.81529 14.0695 6.01092 13.5271 6.11498C13.2986 5.87559 13.0239 5.68514 12.7196 5.55522C12.4153 5.4253 12.0877 5.35862 11.7568 5.35923C10.4171 5.35923 9.33298 6.42763 9.33298 7.74466C9.33203 7.92786 9.35302 8.11051 9.39551 8.28871C8.43485 8.24368 7.49418 7.99861 6.63366 7.5692C5.77315 7.13979 5.01174 6.53549 4.39815 5.79496C4.18289 6.15785 4.06905 6.5719 4.06852 6.99383C4.06852 7.82098 4.50007 8.55212 5.15169 8.98046C4.76562 8.9713 4.38746 8.86912 4.04932 8.68259V8.71213C4.04932 9.86915 4.88632 10.8317 5.9941 11.0508C5.78579 11.1063 5.57112 11.1345 5.35553 11.1345C5.20255 11.1348 5.04992 11.1199 4.89986 11.0902C5.20782 12.038 6.10414 12.7272 7.1659 12.7469C6.30315 13.4118 5.24391 13.7712 4.15468 13.7686C3.96134 13.7683 3.76818 13.7568 3.57617 13.7341C4.68425 14.4417 5.9723 14.8159 7.28702 14.8124C11.7516 14.8124 14.1908 11.1763 14.1908 8.02284C14.1908 7.91945 14.188 7.81605 14.1831 7.71512C14.6565 7.37837 15.0661 6.95988 15.3926 6.47932Z" fill="white"/>
</g>
<defs>
<clipPath id="clip0">
<rect width="12.6042" height="12.6042" fill="white" transform="translate(3.18225 3.78387)"/>
</clipPath>
</defs>
</svg>
