<svg width="19" height="20" viewBox="0 0 19 20" fill="none" xmlns="http://www.w3.org/2000/svg">
<circle cx="9.45312" cy="10.0859" r="9.45312" fill="#5540C7"/>
<path d="M3.78125 10.0859C3.78125 8.58166 4.37882 7.139 5.4425 6.07532C6.50619 5.01163 7.94885 4.41406 9.45312 4.41406C10.9574 4.41406 12.4001 5.01163 13.4637 6.07532C14.5274 7.139 15.125 8.58166 15.125 10.0859C15.125 11.5902 14.5274 13.0329 13.4637 14.0966C12.4001 15.1602 10.9574 15.7578 9.45312 15.7578C7.94885 15.7578 6.50619 15.1602 5.4425 14.0966C4.37882 13.0329 3.78125 11.5902 3.78125 10.0859ZM9.09863 5.17764C8.62361 5.32227 8.15214 5.75901 7.76078 6.4928C7.65939 6.68281 7.5651 6.88984 7.48073 7.11104C7.98056 7.22235 8.52436 7.29325 9.09863 7.31452V5.17764ZM6.79372 6.92316C6.8944 6.65091 7.00926 6.39567 7.13475 6.15887C7.25733 5.92707 7.39891 5.70582 7.55801 5.49739C6.95443 5.74752 6.40609 6.1142 5.94436 6.57646C6.20101 6.70692 6.48532 6.8239 6.79372 6.92387V6.92316ZM6.26908 9.73145C6.2946 8.97283 6.40237 8.2518 6.57819 7.59882C6.19442 7.47609 5.82295 7.31777 5.46863 7.12593C4.90396 7.88408 4.5688 8.78841 4.503 9.73145H6.26837H6.26908ZM7.26165 7.78812C7.09451 8.4232 6.99938 9.07508 6.97806 9.73145H9.09863V8.0235C8.45346 8.00223 7.83451 7.9207 7.26165 7.78812ZM9.80762 8.02279V9.73145H11.9275C11.9064 9.07511 11.8115 8.42323 11.6446 7.78812C11.0717 7.9207 10.4528 8.00152 9.80762 8.0235V8.02279ZM6.97877 10.4404C7.00358 11.1402 7.10355 11.7974 7.26165 12.3838C7.86504 12.2468 8.4802 12.1682 9.09863 12.1491V10.4404H6.97877ZM9.80762 10.4404V12.1484C10.4528 12.1696 11.0717 12.2512 11.6446 12.3838C11.8027 11.7974 11.9027 11.1402 11.9282 10.4404H9.80762ZM7.48073 13.0608C7.56581 13.282 7.65939 13.4891 7.76078 13.6791C8.15214 14.4129 8.62432 14.8489 9.09863 14.9942V12.8581C8.52436 12.8793 7.98056 12.9502 7.48073 13.0615V13.0608ZM7.55872 14.6745C7.39936 14.4661 7.25755 14.2448 7.13475 14.013C7.00417 13.7659 6.89024 13.5103 6.79372 13.248C6.50207 13.3417 6.2181 13.4579 5.94436 13.5954C6.40609 14.0577 6.95443 14.4244 7.55801 14.6745H7.55872ZM6.57819 12.5731C6.39412 11.8763 6.29018 11.1608 6.26837 10.4404H4.503C4.56877 11.3835 4.90392 12.2878 5.46863 13.0459C5.80186 12.863 6.17407 12.7042 6.57819 12.5731ZM11.3482 14.6745C11.9515 14.4245 12.4996 14.0581 12.9612 13.5961C12.6877 13.4586 12.4039 13.3425 12.1125 13.2487C12.016 13.5108 11.9021 13.7661 11.7715 14.013C11.6489 14.2448 11.5074 14.4661 11.3482 14.6745ZM9.80762 12.8574V14.9942C10.2826 14.8496 10.7541 14.4129 11.1455 13.6791C11.2469 13.4891 11.3412 13.282 11.4255 13.0608C10.8935 12.9442 10.352 12.8763 9.80762 12.8581V12.8574ZM12.3281 12.5731C12.7322 12.7042 13.1044 12.863 13.4376 13.0459C14.0023 12.2878 14.3375 11.3835 14.4033 10.4404H12.6379C12.6161 11.1608 12.5121 11.8763 12.3281 12.5731ZM14.4033 9.73145C14.3375 8.7884 14.0023 7.88406 13.4376 7.12593C13.1044 7.30885 12.7322 7.46766 12.3281 7.59882C12.5039 8.25109 12.6117 8.97283 12.6379 9.73145H14.4033ZM11.7715 6.15887C11.897 6.39567 12.0118 6.65091 12.1132 6.92316C12.4044 6.82939 12.6879 6.71324 12.9612 6.57576C12.4995 6.11408 11.9515 5.74789 11.3482 5.4981C11.5028 5.69874 11.6446 5.92136 11.7715 6.15887ZM11.4255 7.11104C11.345 6.8994 11.2514 6.69293 11.1455 6.4928C10.7541 5.75901 10.2826 5.32298 9.80762 5.17764V7.31381C10.3819 7.29254 10.9257 7.22164 11.4255 7.11033V7.11104Z" fill="white"/>
</svg>
