<svg width="19" height="19" viewBox="0 0 19 19" fill="none" xmlns="http://www.w3.org/2000/svg">
<circle cx="9.5" cy="9.5" r="9.5" fill="#5540C7"/>
<g clip-path="url(#clip0)">
<path d="M15.3411 6.40798C15.2753 6.14498 15.1412 5.904 14.9525 5.7094C14.7637 5.51479 14.5269 5.37345 14.266 5.29964C13.3129 5.06689 9.5002 5.06689 9.5002 5.06689C9.5002 5.06689 5.68754 5.06689 4.73437 5.32181C4.47349 5.39562 4.23672 5.53696 4.04795 5.73157C3.85918 5.92617 3.72511 6.16714 3.65929 6.43014C3.48484 7.39747 3.39951 8.37877 3.40437 9.36169C3.39815 10.352 3.48349 11.3408 3.65929 12.3154C3.73186 12.5702 3.86893 12.802 4.05726 12.9884C4.24558 13.1748 4.4788 13.3095 4.73437 13.3794C5.68754 13.6343 9.5002 13.6343 9.5002 13.6343C9.5002 13.6343 13.3129 13.6343 14.266 13.3794C14.5269 13.3056 14.7637 13.1642 14.9525 12.9696C15.1412 12.775 15.2753 12.5341 15.3411 12.2711C15.5142 11.311 15.5995 10.3372 15.596 9.36169C15.6023 8.37137 15.5169 7.38259 15.3411 6.40798V6.40798Z" stroke="white" stroke-width="1.3" stroke-linecap="round" stroke-linejoin="round"/>
<path d="M8.25317 11.1736L11.4396 9.36144L8.25317 7.54932V11.1736Z" stroke="white" stroke-width="1.2" stroke-linecap="round" stroke-linejoin="round"/>
</g>
<defs>
<clipPath id="clip0">
<rect width="13.3" height="13.3" fill="white" transform="translate(2.8501 2.8501)"/>
</clipPath>
</defs>
</svg>
