<svg width="42" height="42" viewBox="0 0 42 42" fill="none" xmlns="http://www.w3.org/2000/svg">
<path d="M21.2197 40.4394C31.8344 40.4394 40.4394 31.8344 40.4394 21.2197C40.4394 10.605 31.8344 2 21.2197 2C10.605 2 2 10.605 2 21.2197C2 31.8344 10.605 40.4394 21.2197 40.4394Z" fill="white" stroke="url(#paint0_linear_1316_9399)" stroke-width="2" stroke-miterlimit="10"/>
<path d="M17.6175 23.9365C18.3363 23.9365 18.919 23.3902 18.919 22.7163C18.919 22.0424 18.3363 21.4961 17.6175 21.4961C16.8986 21.4961 16.3159 22.0424 16.3159 22.7163C16.3159 23.3902 16.8986 23.9365 17.6175 23.9365Z" fill="white"/>
<path d="M24.5594 23.9365C25.2782 23.9365 25.8609 23.3902 25.8609 22.7163C25.8609 22.0424 25.2782 21.4961 24.5594 21.4961C23.8405 21.4961 23.2578 22.0424 23.2578 22.7163C23.2578 23.3902 23.8405 23.9365 24.5594 23.9365Z" fill="white"/>
<path d="M15.2749 16.2094C17.156 15.6574 19.1173 15.383 21.0883 15.3959C23.0594 15.383 25.0206 15.6574 26.9017 16.2094" stroke="white" stroke-width="2" stroke-linecap="round" stroke-linejoin="round"/>
<path d="M26.9016 25.9707C25.0205 26.5227 23.0593 26.7971 21.0883 26.7841C19.1172 26.7971 17.156 26.5227 15.2749 25.9707" stroke="white" stroke-width="2" stroke-linecap="round" stroke-linejoin="round"/>
<path d="M24.0216 26.5893L25.3259 29.0349C25.4128 29.1992 25.5566 29.3309 25.7337 29.4087C25.9108 29.4864 26.1109 29.5055 26.3011 29.4629C28.9626 28.8529 31.2571 27.7893 32.9282 26.4275C33.0558 26.3247 33.149 26.1894 33.1966 26.0381C33.2442 25.8867 33.2441 25.7257 33.1963 25.5744L29.5114 14.0591C29.4742 13.943 29.4099 13.8361 29.3231 13.7462C29.2363 13.6563 29.1292 13.5858 29.0096 13.5396C27.9686 13.14 26.8919 12.8275 25.7921 12.6058C25.5826 12.5628 25.3634 12.5938 25.1769 12.6931C24.9903 12.7923 24.8494 12.9527 24.7813 13.1434L23.9165 15.5756" stroke="white" stroke-width="2" stroke-linecap="round" stroke-linejoin="round"/>
<path d="M18.1549 26.5893L16.8506 29.0349C16.7637 29.1992 16.62 29.3309 16.4428 29.4087C16.2657 29.4864 16.0657 29.5055 15.8754 29.4629C13.2139 28.8529 10.9194 27.7893 9.24832 26.4276C9.1207 26.3247 9.02751 26.1895 8.97994 26.0381C8.93238 25.8868 8.93247 25.7258 8.98021 25.5745L12.6651 14.0591C12.7023 13.943 12.7667 13.8361 12.8535 13.7462C12.9403 13.6563 13.0474 13.5857 13.1669 13.5396C14.208 13.14 15.2846 12.8275 16.3844 12.6058C16.594 12.5628 16.8131 12.5938 16.9996 12.6931C17.1862 12.7923 17.3271 12.9527 17.3952 13.1434L18.26 15.5756" stroke="white" stroke-width="2" stroke-linecap="round" stroke-linejoin="round"/>
<path d="M17.6175 23.9365C18.3363 23.9365 18.919 23.3902 18.919 22.7163C18.919 22.0424 18.3363 21.4961 17.6175 21.4961C16.8986 21.4961 16.3159 22.0424 16.3159 22.7163C16.3159 23.3902 16.8986 23.9365 17.6175 23.9365Z" fill="#220970"/>
<path d="M24.5594 23.9365C25.2782 23.9365 25.8609 23.3902 25.8609 22.7163C25.8609 22.0424 25.2782 21.4961 24.5594 21.4961C23.8405 21.4961 23.2578 22.0424 23.2578 22.7163C23.2578 23.3902 23.8405 23.9365 24.5594 23.9365Z" fill="#220970"/>
<path d="M15.2749 16.2094C17.156 15.6574 19.1173 15.383 21.0883 15.3959C23.0594 15.383 25.0206 15.6574 26.9017 16.2094" stroke="#220970" stroke-width="2" stroke-linecap="round" stroke-linejoin="round"/>
<path d="M26.9016 25.9707C25.0205 26.5227 23.0593 26.7971 21.0883 26.7841C19.1172 26.7971 17.156 26.5227 15.2749 25.9707" stroke="#220970" stroke-width="2" stroke-linecap="round" stroke-linejoin="round"/>
<path d="M24.0216 26.5893L25.3259 29.0349C25.4128 29.1992 25.5566 29.3309 25.7337 29.4087C25.9108 29.4864 26.1109 29.5055 26.3011 29.4629C28.9626 28.8529 31.2571 27.7893 32.9282 26.4275C33.0558 26.3247 33.149 26.1894 33.1966 26.0381C33.2442 25.8867 33.2441 25.7257 33.1963 25.5744L29.5114 14.0591C29.4742 13.943 29.4099 13.8361 29.3231 13.7462C29.2363 13.6563 29.1292 13.5858 29.0096 13.5396C27.9686 13.14 26.8919 12.8275 25.7921 12.6058C25.5826 12.5628 25.3634 12.5938 25.1769 12.6931C24.9903 12.7923 24.8494 12.9527 24.7813 13.1434L23.9165 15.5756" stroke="#220970" stroke-width="2" stroke-linecap="round" stroke-linejoin="round"/>
<path d="M18.1549 26.5893L16.8506 29.0349C16.7637 29.1992 16.62 29.3309 16.4428 29.4087C16.2657 29.4864 16.0657 29.5055 15.8754 29.4629C13.2139 28.8529 10.9194 27.7893 9.24832 26.4276C9.1207 26.3247 9.02751 26.1895 8.97994 26.0381C8.93238 25.8868 8.93247 25.7258 8.98021 25.5745L12.6651 14.0591C12.7023 13.943 12.7667 13.8361 12.8535 13.7462C12.9403 13.6563 13.0474 13.5857 13.1669 13.5396C14.208 13.14 15.2846 12.8275 16.3844 12.6058C16.594 12.5628 16.8131 12.5938 16.9996 12.6931C17.1862 12.7923 17.3271 12.9527 17.3952 13.1434L18.26 15.5756" stroke="#220970" stroke-width="2" stroke-linecap="round" stroke-linejoin="round"/>
<defs>
<linearGradient id="paint0_linear_1316_9399" x1="1.82528" y1="2.00001" x2="17.0477" y2="-1.929" gradientUnits="userSpaceOnUse">
<stop stop-color="white"/>
</linearGradient>
</defs>
</svg>
