<svg width="42" height="42" viewBox="0 0 42 42" fill="none" xmlns="http://www.w3.org/2000/svg">
<path d="M17.2605 23.8428C17.9794 23.8428 18.5621 23.2965 18.5621 22.6226C18.5621 21.9487 17.9794 21.4023 17.2605 21.4023C16.5417 21.4023 15.959 21.9487 15.959 22.6226C15.959 23.2965 16.5417 23.8428 17.2605 23.8428Z" fill="white"/>
<path d="M24.2019 23.8428C24.9208 23.8428 25.5035 23.2965 25.5035 22.6226C25.5035 21.9487 24.9208 21.4023 24.2019 21.4023C23.4831 21.4023 22.9004 21.9487 22.9004 22.6226C22.9004 23.2965 23.4831 23.8428 24.2019 23.8428Z" fill="white"/>
<path d="M14.918 16.1147C16.7991 15.5627 18.7603 15.2883 20.7314 15.3012C22.7025 15.2883 24.6637 15.5627 26.5448 16.1147" stroke="white" stroke-width="2" stroke-linecap="round" stroke-linejoin="round"/>
<path d="M26.5446 25.877C24.6635 26.4289 22.7024 26.7033 20.7313 26.6904C18.7603 26.7033 16.7991 26.4289 14.918 25.877" stroke="white" stroke-width="2" stroke-linecap="round" stroke-linejoin="round"/>
<path d="M23.6637 26.4966L24.968 28.9421C25.0549 29.1064 25.1986 29.2382 25.3758 29.3159C25.5529 29.3937 25.753 29.4128 25.9432 29.3701C28.6047 28.7601 30.8992 27.6965 32.5703 26.3348C32.6979 26.2319 32.7911 26.0967 32.8387 25.9453C32.8862 25.794 32.8862 25.633 32.8384 25.4817L29.1535 13.9663C29.1163 13.8502 29.052 13.7433 28.9652 13.6534C28.8784 13.5636 28.7713 13.493 28.6517 13.4468C27.6107 13.0472 26.534 12.7347 25.4342 12.513C25.2246 12.47 25.0055 12.5011 24.819 12.6003C24.6324 12.6995 24.4915 12.8599 24.4234 13.0506L23.5586 15.4828" stroke="white" stroke-width="2" stroke-linecap="round" stroke-linejoin="round"/>
<path d="M17.7985 26.4965L16.4942 28.9421C16.4073 29.1064 16.2635 29.2382 16.0864 29.3159C15.9092 29.3937 15.7092 29.4128 15.519 29.3701C12.8574 28.7601 10.563 27.6965 8.89187 26.3348C8.76426 26.2319 8.67106 26.0967 8.6235 25.9453C8.57593 25.794 8.57602 25.633 8.62376 25.4817L12.3087 13.9663C12.3459 13.8502 12.4102 13.7433 12.497 13.6534C12.5838 13.5636 12.6909 13.493 12.8105 13.4468C13.8515 13.0472 14.9282 12.7347 16.028 12.513C16.2375 12.47 16.4566 12.5011 16.6432 12.6003C16.8298 12.6995 16.9707 12.8599 17.0388 13.0506L17.9036 15.4828" stroke="white" stroke-width="2" stroke-linecap="round" stroke-linejoin="round"/>
<path d="M17.2605 23.8428C17.9794 23.8428 18.5621 23.2965 18.5621 22.6226C18.5621 21.9487 17.9794 21.4023 17.2605 21.4023C16.5417 21.4023 15.959 21.9487 15.959 22.6226C15.959 23.2965 16.5417 23.8428 17.2605 23.8428Z" fill="white"/>
<path d="M24.2019 23.8428C24.9208 23.8428 25.5035 23.2965 25.5035 22.6226C25.5035 21.9487 24.9208 21.4023 24.2019 21.4023C23.4831 21.4023 22.9004 21.9487 22.9004 22.6226C22.9004 23.2965 23.4831 23.8428 24.2019 23.8428Z" fill="white"/>
<path d="M14.918 16.1147C16.7991 15.5627 18.7603 15.2883 20.7314 15.3012C22.7025 15.2883 24.6637 15.5627 26.5448 16.1147" stroke="white" stroke-width="2" stroke-linecap="round" stroke-linejoin="round"/>
<path d="M26.5446 25.877C24.6635 26.4289 22.7024 26.7033 20.7313 26.6904C18.7603 26.7033 16.7991 26.4289 14.918 25.877" stroke="white" stroke-width="2" stroke-linecap="round" stroke-linejoin="round"/>
<path d="M23.6637 26.4966L24.968 28.9421C25.0549 29.1064 25.1986 29.2382 25.3758 29.3159C25.5529 29.3937 25.753 29.4128 25.9432 29.3701C28.6047 28.7601 30.8992 27.6965 32.5703 26.3348C32.6979 26.2319 32.7911 26.0967 32.8387 25.9453C32.8862 25.794 32.8862 25.633 32.8384 25.4817L29.1535 13.9663C29.1163 13.8502 29.052 13.7433 28.9652 13.6534C28.8784 13.5636 28.7713 13.493 28.6517 13.4468C27.6107 13.0472 26.534 12.7347 25.4342 12.513C25.2246 12.47 25.0055 12.5011 24.819 12.6003C24.6324 12.6995 24.4915 12.8599 24.4234 13.0506L23.5586 15.4828" stroke="white" stroke-width="2" stroke-linecap="round" stroke-linejoin="round"/>
<path d="M17.7985 26.4965L16.4942 28.9421C16.4073 29.1064 16.2635 29.2382 16.0864 29.3159C15.9092 29.3937 15.7092 29.4128 15.519 29.3701C12.8574 28.7601 10.563 27.6965 8.89187 26.3348C8.76426 26.2319 8.67106 26.0967 8.6235 25.9453C8.57593 25.794 8.57602 25.633 8.62376 25.4817L12.3087 13.9663C12.3459 13.8502 12.4102 13.7433 12.497 13.6534C12.5838 13.5636 12.6909 13.493 12.8105 13.4468C13.8515 13.0472 14.9282 12.7347 16.028 12.513C16.2375 12.47 16.4566 12.5011 16.6432 12.6003C16.8298 12.6995 16.9707 12.8599 17.0388 13.0506L17.9036 15.4828" stroke="white" stroke-width="2" stroke-linecap="round" stroke-linejoin="round"/>
<path d="M20.8623 40.3456C31.477 40.3456 40.082 31.7407 40.082 21.1259C40.082 10.5112 31.477 1.90625 20.8623 1.90625C10.2475 1.90625 1.64258 10.5112 1.64258 21.1259C1.64258 31.7407 10.2475 40.3456 20.8623 40.3456Z" stroke="url(#paint0_linear_768_15541)" stroke-width="2" stroke-miterlimit="10"/>
<defs>
<linearGradient id="paint0_linear_768_15541" x1="1.46786" y1="1.90626" x2="16.6903" y2="-2.02275" gradientUnits="userSpaceOnUse">
<stop stop-color="white"/>
</linearGradient>
</defs>
</svg>
