<svg width="42" height="42" viewBox="0 0 42 42" fill="none" xmlns="http://www.w3.org/2000/svg">
<path d="M21.2197 40.4394C31.8344 40.4394 40.4394 31.8344 40.4394 21.2197C40.4394 10.605 31.8344 2 21.2197 2C10.605 2 2 10.605 2 21.2197C2 31.8344 10.605 40.4394 21.2197 40.4394Z" fill="white" stroke="url(#paint0_linear_1316_9397)" stroke-width="2" stroke-miterlimit="10"/>
<path d="M21.3496 31.1659C26.7408 31.1659 31.1113 26.7955 31.1113 21.4043C31.1113 16.013 26.7408 11.6426 21.3496 11.6426C15.9583 11.6426 11.5879 16.013 11.5879 21.4043C11.5879 26.7955 15.9583 31.1659 21.3496 31.1659Z" stroke="#220970" stroke-width="2" stroke-linecap="round" stroke-linejoin="round"/>
<path d="M25.417 17.3359H23.79C23.1428 17.3359 22.5221 17.5931 22.0644 18.0507C21.6067 18.5084 21.3496 19.1291 21.3496 19.7764V31.165" stroke="#220970" stroke-width="2" stroke-linecap="round" stroke-linejoin="round"/>
<path d="M18.0957 23.0312H24.6035" stroke="#220970" stroke-width="2" stroke-linecap="round" stroke-linejoin="round"/>
<defs>
<linearGradient id="paint0_linear_1316_9397" x1="1.82528" y1="2.00001" x2="17.0477" y2="-1.929" gradientUnits="userSpaceOnUse">
<stop stop-color="white"/>
</linearGradient>
</defs>
</svg>
