<svg width="41" height="42" viewBox="0 0 41 42" fill="none" xmlns="http://www.w3.org/2000/svg">
<path d="M20.5488 30.7577C25.94 30.7577 30.3105 26.3873 30.3105 20.9961C30.3105 15.6048 25.94 11.2344 20.5488 11.2344C15.1576 11.2344 10.7871 15.6048 10.7871 20.9961C10.7871 26.3873 15.1576 30.7577 20.5488 30.7577Z" stroke="white" stroke-width="2" stroke-linecap="round" stroke-linejoin="round"/>
<path d="M24.6162 16.9277H22.9892C22.342 16.9277 21.7213 17.1848 21.2636 17.6425C20.8059 18.1002 20.5488 18.7209 20.5488 19.3682V30.7568" stroke="white" stroke-width="2" stroke-linecap="round" stroke-linejoin="round"/>
<path d="M17.2949 22.623H23.8027" stroke="white" stroke-width="2" stroke-linecap="round" stroke-linejoin="round"/>
<path d="M20.4189 40.0312C31.0336 40.0312 39.6386 31.4262 39.6386 20.8115C39.6386 10.1968 31.0336 1.5918 20.4189 1.5918C9.80418 1.5918 1.19922 10.1968 1.19922 20.8115C1.19922 31.4262 9.80418 40.0312 20.4189 40.0312Z" stroke="url(#paint0_linear_768_15539)" stroke-width="2" stroke-miterlimit="10"/>
<defs>
<linearGradient id="paint0_linear_768_15539" x1="1.0245" y1="1.59181" x2="16.247" y2="-2.3372" gradientUnits="userSpaceOnUse">
<stop stop-color="white"/>
</linearGradient>
</defs>
</svg>
