<svg width="42" height="42" viewBox="0 0 42 42" fill="none" xmlns="http://www.w3.org/2000/svg">
<path d="M21.2197 40.4394C31.8344 40.4394 40.4394 31.8344 40.4394 21.2197C40.4394 10.605 31.8344 2 21.2197 2C10.605 2 2 10.605 2 21.2197C2 31.8344 10.605 40.4394 21.2197 40.4394Z" fill="white" stroke="url(#paint0_linear_1316_9398)" stroke-width="2" stroke-miterlimit="10"/>
<path d="M21.0898 25.1572C23.3362 25.1572 25.1572 23.3362 25.1572 21.0898C25.1572 18.8435 23.3362 17.0225 21.0898 17.0225C18.8435 17.0225 17.0225 18.8435 17.0225 21.0898C17.0225 23.3362 18.8435 25.1572 21.0898 25.1572Z" stroke="#220970" stroke-width="2" stroke-miterlimit="10"/>
<path d="M25.5639 11.7344H16.6157C13.9201 11.7344 11.7349 13.9196 11.7349 16.6152V25.5634C11.7349 28.259 13.9201 30.4443 16.6157 30.4443H25.5639C28.2595 30.4443 30.4448 28.259 30.4448 25.5634V16.6152C30.4448 13.9196 28.2595 11.7344 25.5639 11.7344Z" stroke="#220970" stroke-width="2" stroke-linecap="round" stroke-linejoin="round"/>
<path d="M26.3774 17.0225C27.0513 17.0225 27.5976 16.4761 27.5976 15.8022C27.5976 15.1283 27.0513 14.582 26.3774 14.582C25.7035 14.582 25.1572 15.1283 25.1572 15.8022C25.1572 16.4761 25.7035 17.0225 26.3774 17.0225Z" fill="#220970"/>
<defs>
<linearGradient id="paint0_linear_1316_9398" x1="1.82528" y1="2.00001" x2="17.0477" y2="-1.929" gradientUnits="userSpaceOnUse">
<stop stop-color="white"/>
</linearGradient>
</defs>
</svg>
