<svg width="763" height="513" viewBox="0 0 763 513" fill="none" xmlns="http://www.w3.org/2000/svg">
<g style="mix-blend-mode:screen" opacity="0.67">
<path style="mix-blend-mode:screen" opacity="0.67" d="M40.1957 511.932C27.9294 459.764 41.6671 423.928 81.2082 397.055C109.994 377.498 169.4 361.393 189.959 333.329C198.815 321.29 203.71 306.803 209.917 293.199C236.59 234.57 295.527 187.324 359.855 189.745C403.288 191.377 443.284 214.599 475.842 243.385C499.265 264.065 520.854 288.598 550.283 299.379C579.711 310.161 641.243 318.615 665.736 338.292C743.146 400.613 718.76 482.45 707.925 511.732" fill="url(#paint0_linear_759_9113)"/>
</g>
<path d="M487.131 491.131C487.131 491.131 515.222 449.891 529.468 470.839C542.844 490.556 493.15 500.775 493.15 500.775" fill="url(#paint1_linear_759_9113)"/>
<path d="M311.072 463.857C311.072 463.857 274.608 429.774 297.468 418.926C318.991 408.706 321.546 459.39 321.546 459.39" fill="url(#paint2_linear_759_9113)"/>
<path d="M564.022 511.426H189.867C190.095 510.557 191.472 509.112 195.218 506.731C203.244 501.594 228.325 506.209 228.325 506.209C228.325 506.209 222.466 503.868 222.493 500.859C222.617 499.347 223.156 497.899 224.05 496.674C224.945 495.449 226.16 494.495 227.562 493.916C230.406 492.823 233.468 492.419 236.498 492.739C242.663 493.1 248.729 494.456 254.462 496.752C253.841 496.384 253.303 495.891 252.882 495.304C252.461 494.718 252.167 494.05 252.017 493.343C251.868 492.637 251.867 491.907 252.014 491.2C252.161 490.493 252.453 489.825 252.872 489.236C253.291 488.648 253.828 488.154 254.448 487.784C255.068 487.414 255.758 487.176 256.475 487.087C257.191 486.997 257.919 487.058 258.611 487.264C259.303 487.47 259.944 487.818 260.495 488.285C256.629 483.068 247.574 456.729 265.913 446.51C288.92 433.708 309.493 447.393 313.212 455.098C315.098 447.54 323.766 441.721 329.491 440.383C356.779 433.815 376.711 457.251 376.965 457.652C377.232 457.251 377.5 456.85 377.794 456.449C380.657 452.663 386.422 445.747 390.729 443.794C402.902 438.109 411.382 437.106 424.438 440.383C430.15 441.721 438.831 447.526 440.731 455.098C444.449 447.393 465.33 430.11 487.696 443.982C508.041 456.582 497.3 483.068 493.434 488.285C493.985 487.818 494.627 487.47 495.319 487.264C496.011 487.058 496.738 486.997 497.454 487.087C498.171 487.176 498.861 487.414 499.481 487.784C500.101 488.154 500.638 488.648 501.057 489.236C501.476 489.825 501.768 490.493 501.915 491.2C502.063 491.907 502.061 492.637 501.912 493.343C501.763 494.05 501.468 494.718 501.047 495.304C500.626 495.891 500.088 496.384 499.467 496.752C505.2 494.456 511.266 493.1 517.432 492.739C520.461 492.418 523.524 492.822 526.367 493.916C527.77 494.493 528.986 495.447 529.881 496.673C530.776 497.898 531.314 499.347 531.437 500.859C531.437 503.895 525.618 506.209 525.618 506.209C525.618 506.209 550.753 501.594 558.712 506.731C562.403 509.112 563.781 510.557 564.022 511.426Z" fill="url(#paint3_linear_759_9113)"/>
<path d="M204.259 217.275C199.043 217.283 193.941 215.744 189.6 212.851C185.259 209.959 181.874 205.844 179.872 201.027C177.87 196.21 177.342 190.908 178.355 185.791C179.368 180.674 181.876 175.973 185.561 172.281C189.247 168.59 193.945 166.075 199.06 165.054C204.176 164.034 209.479 164.554 214.299 166.548C219.119 168.542 223.239 171.922 226.138 176.258C229.036 180.595 230.584 185.694 230.584 190.91C230.577 197.893 227.802 204.589 222.868 209.531C217.934 214.473 211.242 217.257 204.259 217.275ZM204.259 168.036C199.732 168.036 195.306 169.379 191.542 171.894C187.778 174.41 184.844 177.985 183.112 182.168C181.381 186.351 180.928 190.953 181.812 195.393C182.697 199.833 184.878 203.912 188.08 207.112C191.282 210.312 195.361 212.491 199.802 213.373C204.242 214.254 208.845 213.799 213.027 212.065C217.208 210.33 220.782 207.395 223.295 203.629C225.809 199.864 227.149 195.437 227.146 190.91C227.139 184.843 224.725 179.027 220.434 174.739C216.143 170.45 210.325 168.04 204.259 168.036Z" fill="url(#paint4_linear_759_9113)"/>
<path d="M215.87 197.142C215.924 195.625 215.452 194.136 214.532 192.929C213.665 191.853 212.543 191.012 211.268 190.481C209.779 189.883 208.245 189.404 206.68 189.049V180.582C208.014 180.749 209.322 181.081 210.573 181.572C210.852 181.687 211.151 181.747 211.453 181.746C211.756 181.745 212.055 181.685 212.333 181.568C212.612 181.451 212.864 181.28 213.077 181.065C213.289 180.85 213.456 180.595 213.569 180.314C213.81 179.732 213.81 179.078 213.569 178.495C213.463 178.237 213.307 178.002 213.109 177.805C212.912 177.607 212.677 177.451 212.419 177.345C210.581 176.638 208.655 176.188 206.694 176.007V173.412C206.694 172.756 206.433 172.126 205.969 171.662C205.505 171.198 204.875 170.938 204.219 170.938C203.563 170.938 202.933 171.198 202.469 171.662C202.005 172.126 201.744 172.756 201.744 173.412V176.087C199.264 176.313 196.92 177.325 195.056 178.977C194.28 179.707 193.665 180.591 193.251 181.572C192.836 182.553 192.631 183.61 192.648 184.675C192.575 186.196 193.024 187.697 193.919 188.929C194.805 190.007 195.939 190.856 197.223 191.404C198.702 192.003 200.222 192.495 201.771 192.875V201.262C200.29 201.099 198.834 200.753 197.437 200.232C196.944 200.062 196.461 199.861 195.992 199.63C195.719 199.507 195.423 199.443 195.123 199.443C194.867 199.441 194.613 199.486 194.374 199.577C193.781 199.798 193.3 200.246 193.036 200.821C192.79 201.377 192.77 202.007 192.983 202.577C193.196 203.147 193.623 203.612 194.173 203.871C194.859 204.178 195.56 204.45 196.273 204.686C198.057 205.258 199.903 205.612 201.771 205.743V208.325C201.771 208.981 202.032 209.611 202.496 210.075C202.96 210.539 203.589 210.8 204.246 210.8C204.902 210.8 205.532 210.539 205.996 210.075C206.46 209.611 206.72 208.981 206.72 208.325V205.65C209.201 205.414 211.543 204.398 213.409 202.747C214.188 202.037 214.811 201.171 215.234 200.206C215.658 199.24 215.875 198.197 215.87 197.142ZM199.417 186.588C199.091 186.322 198.83 185.984 198.654 185.602C198.477 185.219 198.391 184.802 198.4 184.381C198.398 183.509 198.733 182.67 199.337 182.04C200.009 181.37 200.858 180.906 201.785 180.702V187.779C200.929 187.531 200.126 187.127 199.417 186.588ZM209.182 199.965C208.496 200.592 207.648 201.013 206.734 201.182V194.239C207.608 194.532 208.421 194.986 209.128 195.577C209.447 195.845 209.701 196.182 209.873 196.561C210.044 196.941 210.128 197.354 210.118 197.771C210.098 198.579 209.762 199.348 209.182 199.911V199.965Z" fill="url(#paint5_linear_759_9113)"/>
<path d="M620.578 511.934H667.195V325.612H620.578V511.934Z" fill="url(#paint6_linear_759_9113)"/>
<path d="M617.968 511.934H661.014V325.612H617.968V511.934Z" fill="url(#paint7_linear_759_9113)"/>
<path d="M572.193 371.492L578.801 370.703L596.445 259.504C596.525 258.99 596.786 258.521 597.181 258.183C597.576 257.844 598.078 257.658 598.599 257.658H720.633L721.837 253.846L726.679 256.909L726.826 257.016C727.128 257.256 727.361 257.572 727.502 257.931C727.643 258.291 727.687 258.681 727.629 259.063L709.463 373.512C709.383 374.026 709.123 374.495 708.728 374.833C708.333 375.172 707.83 375.358 707.31 375.358H578.815C578.274 375.355 577.754 375.15 577.357 374.783L572.193 371.492Z" fill="url(#paint8_linear_759_9113)"/>
<path d="M573.639 372.027H702.161C702.679 372.027 703.181 371.843 703.575 371.507C703.97 371.171 704.232 370.706 704.315 370.194L722.466 255.704C722.515 255.393 722.495 255.076 722.409 254.773C722.323 254.471 722.173 254.191 721.968 253.952C721.763 253.713 721.51 253.521 721.224 253.389C720.938 253.258 720.627 253.19 720.313 253.19H591.751C591.231 253.186 590.726 253.369 590.329 253.705C589.931 254.041 589.667 254.508 589.584 255.022L571.432 369.512C571.383 369.827 571.404 370.149 571.493 370.456C571.582 370.762 571.737 371.045 571.948 371.285C572.158 371.525 572.419 371.716 572.711 371.844C573.003 371.972 573.32 372.034 573.639 372.027Z" fill="url(#paint9_linear_759_9113)"/>
<path d="M579.712 366.597H697.679C698.006 366.599 698.322 366.483 698.568 366.268C698.815 366.054 698.974 365.757 699.017 365.433L715.697 260.227C715.737 260.03 715.733 259.827 715.684 259.632C715.635 259.438 715.543 259.257 715.414 259.102C715.286 258.948 715.124 258.825 714.942 258.742C714.759 258.658 714.56 258.617 714.36 258.621H596.339C596.01 258.619 595.692 258.738 595.445 258.955C595.198 259.172 595.04 259.472 595.001 259.799L578.307 364.991C578.265 365.194 578.271 365.403 578.323 365.603C578.376 365.803 578.474 365.988 578.61 366.143C578.746 366.299 578.917 366.421 579.108 366.499C579.299 366.578 579.505 366.611 579.712 366.597Z" fill="url(#paint10_linear_759_9113)"/>
<path d="M620.496 317.026H659.716C660.131 317.025 660.533 316.876 660.849 316.607C661.165 316.337 661.375 315.964 661.442 315.554L666.953 280.775C666.993 280.525 666.979 280.269 666.911 280.025C666.843 279.781 666.723 279.554 666.559 279.361C666.395 279.167 666.191 279.012 665.961 278.905C665.731 278.798 665.481 278.743 665.227 278.742H626.007C625.59 278.744 625.187 278.894 624.87 279.166C624.554 279.438 624.345 279.815 624.282 280.227L618.771 315.006C618.732 315.255 618.748 315.51 618.817 315.752C618.886 315.995 619.006 316.22 619.17 316.412C619.334 316.603 619.537 316.758 619.766 316.864C619.995 316.97 620.244 317.025 620.496 317.026Z" fill="url(#paint11_linear_759_9113)"/>
<path d="M627.961 312.304H625.286C625.196 312.306 625.106 312.287 625.024 312.25C624.942 312.212 624.869 312.157 624.811 312.087C624.754 312.018 624.712 311.936 624.69 311.849C624.668 311.761 624.666 311.67 624.684 311.581L627.868 291.182C627.907 290.986 628.012 290.809 628.165 290.68C628.318 290.551 628.51 290.478 628.71 290.473H631.386C631.475 290.469 631.565 290.486 631.647 290.522C631.729 290.558 631.802 290.612 631.86 290.68C631.918 290.749 631.96 290.829 631.982 290.916C632.004 291.003 632.006 291.094 631.988 291.182L628.75 311.581C628.716 311.772 628.62 311.945 628.478 312.076C628.335 312.206 628.154 312.286 627.961 312.304Z" fill="#EDF7FF"/>
<path d="M634.943 312.303H632.268C632.177 312.308 632.086 312.291 632.003 312.254C631.919 312.218 631.845 312.162 631.787 312.092C631.728 312.022 631.687 311.94 631.666 311.851C631.645 311.762 631.645 311.67 631.666 311.581L634.234 295.409C634.268 295.213 634.37 295.034 634.521 294.905C634.673 294.776 634.864 294.703 635.064 294.7H637.739C637.829 294.696 637.918 294.712 638 294.748C638.082 294.784 638.155 294.838 638.213 294.907C638.272 294.975 638.313 295.056 638.335 295.143C638.357 295.23 638.359 295.321 638.341 295.409L635.773 311.581C635.741 311.78 635.641 311.961 635.489 312.093C635.338 312.225 635.144 312.299 634.943 312.303Z" fill="#EDF7FF"/>
<path d="M641.938 312.303H639.263C639.172 312.304 639.083 312.286 639.001 312.248C638.918 312.211 638.846 312.155 638.788 312.086C638.73 312.017 638.689 311.935 638.667 311.848C638.645 311.76 638.643 311.669 638.661 311.58L641.71 292.398C641.747 292.202 641.848 292.023 641.999 291.892C642.15 291.761 642.34 291.685 642.54 291.676H645.215C645.305 291.674 645.395 291.693 645.477 291.73C645.559 291.768 645.632 291.823 645.69 291.892C645.748 291.962 645.789 292.043 645.811 292.131C645.833 292.218 645.835 292.31 645.817 292.398L642.767 311.58C642.731 311.777 642.629 311.955 642.479 312.086C642.328 312.217 642.137 312.294 641.938 312.303Z" fill="#EDF7FF"/>
<path d="M648.92 312.302H646.244C646.153 312.307 646.063 312.29 645.979 312.254C645.896 312.217 645.822 312.161 645.763 312.091C645.705 312.021 645.664 311.939 645.643 311.85C645.622 311.761 645.622 311.669 645.643 311.58L650.191 282.901C650.227 282.702 650.331 282.522 650.484 282.391C650.638 282.259 650.831 282.184 651.033 282.178H653.709C653.8 282.174 653.891 282.191 653.974 282.227C654.058 282.264 654.131 282.319 654.19 282.39C654.248 282.46 654.289 282.542 654.31 282.631C654.331 282.72 654.331 282.812 654.311 282.901L649.749 311.58C649.718 311.779 649.617 311.96 649.466 312.092C649.314 312.224 649.121 312.299 648.92 312.302Z" fill="#EDF7FF"/>
<path d="M655.957 312.303H653.282C653.192 312.305 653.102 312.286 653.02 312.249C652.938 312.211 652.865 312.156 652.808 312.086C652.75 312.017 652.708 311.936 652.686 311.848C652.664 311.76 652.662 311.669 652.68 311.58L656.292 288.84C656.331 288.646 656.433 288.471 656.584 288.342C656.734 288.214 656.923 288.14 657.121 288.131H659.796C659.886 288.127 659.975 288.144 660.058 288.18C660.14 288.216 660.213 288.27 660.271 288.338C660.329 288.407 660.371 288.488 660.393 288.575C660.415 288.662 660.417 288.753 660.398 288.84L656.787 311.58C656.753 311.778 656.652 311.958 656.501 312.089C656.35 312.221 656.158 312.296 655.957 312.303Z" fill="#EDF7FF"/>
<path opacity="0.5" d="M670.259 341.515H691.781C692.012 341.517 692.235 341.436 692.41 341.286C692.584 341.136 692.699 340.927 692.731 340.699L695.754 321.638C695.775 321.501 695.767 321.36 695.729 321.227C695.691 321.093 695.624 320.97 695.534 320.864C695.444 320.759 695.332 320.674 695.206 320.616C695.08 320.558 694.943 320.528 694.804 320.527H673.349C673.12 320.531 672.899 320.614 672.726 320.763C672.552 320.912 672.436 321.118 672.399 321.343L669.336 340.405C669.315 340.54 669.323 340.678 669.359 340.809C669.395 340.941 669.459 341.063 669.547 341.168C669.634 341.273 669.743 341.358 669.865 341.418C669.988 341.478 670.122 341.511 670.259 341.515Z" fill="url(#paint12_linear_759_9113)"/>
<path opacity="0.3" d="M626.276 356.043H674.057C674.374 356.048 674.682 355.941 674.927 355.74C675.172 355.539 675.338 355.258 675.395 354.946L679.461 329.063C679.486 328.873 679.47 328.68 679.414 328.497C679.358 328.314 679.263 328.145 679.136 328.002C679.01 327.859 678.854 327.744 678.679 327.667C678.504 327.589 678.315 327.549 678.123 327.551H630.396C630.079 327.546 629.771 327.653 629.526 327.854C629.281 328.055 629.115 328.336 629.058 328.648L624.978 354.478C624.946 354.668 624.954 354.863 625.004 355.05C625.054 355.237 625.144 355.41 625.267 355.559C625.39 355.708 625.544 355.828 625.718 355.912C625.893 355.995 626.083 356.04 626.276 356.043Z" fill="url(#paint13_linear_759_9113)"/>
<path d="M631.88 338.627L630.141 349.583H672.17L674.323 336.032C673.326 335.626 672.246 335.463 671.173 335.559C670.101 335.654 669.066 336.004 668.157 336.581C665.388 338.092 661.375 342.493 658.606 342.172C655.837 341.851 654.111 334.775 650.339 334.828C646.567 334.882 643.49 342.64 640.467 342.721C637.444 342.801 633.873 338.534 631.88 338.627Z" fill="url(#paint14_linear_759_9113)"/>
<path opacity="0.5" d="M676.304 288.225H699.525C699.677 288.226 699.824 288.173 699.94 288.075C700.055 287.976 700.131 287.84 700.154 287.69L702.16 275.089C702.174 274.998 702.167 274.904 702.142 274.816C702.117 274.727 702.073 274.644 702.014 274.574C701.954 274.503 701.881 274.446 701.798 274.405C701.715 274.365 701.624 274.343 701.532 274.34H678.31C678.156 274.339 678.007 274.394 677.892 274.495C677.776 274.596 677.701 274.736 677.681 274.888L675.675 287.489C675.661 287.58 675.668 287.672 675.693 287.76C675.718 287.848 675.762 287.93 675.822 288C675.882 288.069 675.955 288.126 676.038 288.164C676.121 288.203 676.212 288.224 676.304 288.225Z" fill="url(#paint15_linear_759_9113)"/>
<path d="M680.409 293.642H692.742C692.923 293.635 693.096 293.566 693.233 293.447C693.369 293.328 693.46 293.165 693.491 292.986C693.51 292.905 693.509 292.822 693.49 292.741C693.471 292.66 693.433 292.585 693.38 292.522C693.327 292.458 693.26 292.408 693.184 292.375C693.108 292.342 693.025 292.327 692.942 292.331H680.623C680.439 292.334 680.263 292.402 680.124 292.521C679.984 292.641 679.891 292.805 679.86 292.986C679.844 293.067 679.846 293.15 679.867 293.229C679.887 293.309 679.925 293.382 679.977 293.445C680.03 293.508 680.096 293.558 680.171 293.592C680.245 293.626 680.327 293.643 680.409 293.642Z" fill="url(#paint16_linear_759_9113)"/>
<path d="M680.036 296.089H692.355C692.539 296.085 692.715 296.018 692.854 295.898C692.994 295.779 693.087 295.614 693.118 295.433C693.137 295.353 693.136 295.269 693.117 295.188C693.098 295.108 693.06 295.033 693.007 294.969C692.954 294.905 692.887 294.855 692.811 294.822C692.735 294.789 692.652 294.774 692.569 294.778H680.25C680.067 294.784 679.892 294.852 679.753 294.972C679.614 295.091 679.521 295.254 679.487 295.433C679.471 295.514 679.473 295.597 679.494 295.676C679.514 295.756 679.552 295.83 679.604 295.893C679.657 295.955 679.723 296.006 679.798 296.04C679.872 296.074 679.954 296.091 680.036 296.089Z" fill="url(#paint17_linear_759_9113)"/>
<path d="M679.635 298.549H691.954C692.137 298.543 692.312 298.475 692.451 298.356C692.59 298.237 692.683 298.074 692.717 297.894C692.733 297.813 692.731 297.73 692.71 297.651C692.69 297.572 692.652 297.498 692.6 297.435C692.547 297.372 692.481 297.322 692.406 297.288C692.332 297.254 692.25 297.237 692.168 297.238H679.835C679.654 297.245 679.481 297.314 679.344 297.433C679.208 297.553 679.117 297.715 679.086 297.894C679.067 297.975 679.068 298.059 679.087 298.139C679.106 298.22 679.144 298.295 679.197 298.358C679.25 298.422 679.317 298.472 679.393 298.505C679.469 298.538 679.552 298.554 679.635 298.549Z" fill="url(#paint18_linear_759_9113)"/>
<path d="M686.069 300.971H691.566C691.749 300.965 691.924 300.897 692.063 300.778C692.202 300.658 692.295 300.495 692.329 300.316C692.345 300.235 692.343 300.152 692.322 300.073C692.302 299.993 692.264 299.92 692.212 299.857C692.159 299.794 692.093 299.743 692.018 299.709C691.944 299.676 691.862 299.659 691.78 299.66H686.269C686.087 299.669 685.913 299.738 685.775 299.857C685.637 299.975 685.542 300.137 685.507 300.316C685.49 300.397 685.493 300.481 685.514 300.562C685.535 300.642 685.574 300.717 685.628 300.78C685.682 300.843 685.75 300.893 685.826 300.926C685.903 300.96 685.985 300.975 686.069 300.971Z" fill="url(#paint19_linear_759_9113)"/>
<path d="M597.676 335.831H610.009C610.191 335.825 610.364 335.756 610.5 335.636C610.637 335.517 610.728 335.354 610.758 335.176C610.777 335.095 610.777 335.011 610.758 334.93C610.738 334.85 610.701 334.775 610.648 334.711C610.594 334.648 610.527 334.597 610.451 334.564C610.375 334.531 610.293 334.516 610.21 334.52H597.89C597.707 334.526 597.532 334.595 597.394 334.714C597.255 334.833 597.161 334.996 597.128 335.176C597.112 335.256 597.114 335.339 597.134 335.419C597.155 335.498 597.192 335.572 597.245 335.635C597.298 335.698 597.364 335.748 597.438 335.782C597.513 335.816 597.594 335.833 597.676 335.831Z" fill="url(#paint20_linear_759_9113)"/>
<path d="M597.29 338.292H609.623C609.804 338.285 609.977 338.217 610.114 338.097C610.25 337.978 610.341 337.815 610.372 337.637C610.39 337.556 610.39 337.472 610.371 337.391C610.352 337.311 610.314 337.236 610.261 337.172C610.208 337.109 610.14 337.058 610.065 337.025C609.989 336.992 609.906 336.977 609.823 336.981H597.503C597.321 336.987 597.146 337.055 597.007 337.175C596.868 337.294 596.774 337.457 596.741 337.637C596.725 337.717 596.727 337.8 596.748 337.879C596.768 337.959 596.806 338.033 596.858 338.096C596.911 338.159 596.977 338.209 597.052 338.243C597.126 338.277 597.208 338.294 597.29 338.292Z" fill="url(#paint21_linear_759_9113)"/>
<path d="M596.901 340.741H609.234C609.415 340.735 609.588 340.666 609.725 340.547C609.861 340.427 609.952 340.264 609.983 340.086C610.002 340.005 610.001 339.921 609.982 339.841C609.963 339.76 609.925 339.685 609.872 339.621C609.819 339.558 609.752 339.507 609.676 339.474C609.6 339.441 609.517 339.426 609.434 339.43H597.101C596.918 339.436 596.743 339.505 596.605 339.624C596.466 339.743 596.372 339.906 596.339 340.086C596.322 340.167 596.325 340.252 596.346 340.332C596.367 340.413 596.406 340.487 596.46 340.55C596.514 340.613 596.582 340.663 596.658 340.697C596.735 340.73 596.817 340.745 596.901 340.741Z" fill="url(#paint22_linear_759_9113)"/>
<path d="M603.334 343.202H608.832C609.015 343.196 609.19 343.127 609.329 343.008C609.467 342.889 609.561 342.726 609.594 342.546C609.61 342.466 609.608 342.383 609.588 342.303C609.568 342.224 609.53 342.15 609.477 342.087C609.424 342.024 609.358 341.974 609.284 341.94C609.209 341.906 609.128 341.889 609.046 341.891H603.535C603.353 341.899 603.179 341.968 603.041 342.087C602.902 342.206 602.808 342.367 602.772 342.546C602.756 342.628 602.759 342.712 602.78 342.792C602.801 342.873 602.84 342.947 602.894 343.011C602.948 343.074 603.016 343.124 603.092 343.157C603.168 343.19 603.251 343.205 603.334 343.202Z" fill="url(#paint23_linear_759_9113)"/>
<path d="M603.361 280.132H615.681C615.863 280.123 616.037 280.054 616.175 279.935C616.314 279.817 616.408 279.655 616.444 279.476C616.46 279.395 616.458 279.311 616.437 279.23C616.416 279.15 616.377 279.075 616.322 279.012C616.268 278.949 616.2 278.899 616.124 278.866C616.048 278.832 615.965 278.817 615.882 278.821H603.562C603.38 278.829 603.206 278.898 603.068 279.017C602.93 279.136 602.835 279.298 602.8 279.476C602.783 279.558 602.786 279.642 602.807 279.722C602.828 279.803 602.867 279.878 602.921 279.941C602.975 280.004 603.043 280.054 603.119 280.087C603.196 280.12 603.278 280.135 603.361 280.132Z" fill="url(#paint24_linear_759_9113)"/>
<path d="M602.959 282.593H615.293C615.475 282.584 615.649 282.515 615.787 282.396C615.925 282.278 616.019 282.116 616.055 281.937C616.071 281.856 616.069 281.771 616.048 281.691C616.027 281.611 615.988 281.536 615.934 281.473C615.88 281.41 615.812 281.36 615.735 281.327C615.659 281.293 615.576 281.278 615.493 281.282H603.173C602.991 281.288 602.816 281.356 602.677 281.475C602.538 281.595 602.444 281.757 602.411 281.937C602.395 282.018 602.397 282.101 602.417 282.18C602.438 282.26 602.476 282.333 602.528 282.396C602.581 282.459 602.647 282.509 602.722 282.543C602.796 282.577 602.877 282.594 602.959 282.593Z" fill="url(#paint25_linear_759_9113)"/>
<path d="M609.393 285.054H614.904C615.085 285.047 615.259 284.978 615.395 284.859C615.531 284.74 615.623 284.577 615.653 284.398C615.672 284.318 615.672 284.234 615.652 284.153C615.633 284.072 615.596 283.997 615.542 283.934C615.489 283.87 615.422 283.82 615.346 283.787C615.27 283.754 615.188 283.739 615.105 283.743H609.607C609.423 283.746 609.247 283.814 609.108 283.933C608.969 284.053 608.876 284.217 608.845 284.398C608.829 284.479 608.831 284.562 608.851 284.641C608.871 284.721 608.909 284.795 608.962 284.857C609.014 284.92 609.08 284.971 609.155 285.005C609.23 285.039 609.311 285.055 609.393 285.054Z" fill="url(#paint26_linear_759_9113)"/>
<path style="mix-blend-mode:screen" opacity="0.3" d="M427.941 357.673H331.751L259.424 137.041H500.255L427.941 357.673Z" fill="url(#paint27_linear_759_9113)"/>
<path style="mix-blend-mode:screen" opacity="0.15" d="M441.865 357.673H317.811L214.785 137.041H544.891L441.865 357.673Z" fill="url(#paint28_linear_759_9113)"/>
<path d="M446.174 357.676H313.506V511.934H446.174V357.676Z" fill="url(#paint29_linear_759_9113)"/>
<path d="M419.42 357.676H340.258V511.934H419.42V357.676Z" fill="url(#paint30_linear_759_9113)"/>
<path d="M451.485 357.676H308.196C307.671 357.676 307.246 358.101 307.246 358.626V375.961C307.246 376.486 307.671 376.911 308.196 376.911H451.485C452.01 376.911 452.435 376.486 452.435 375.961V358.626C452.435 358.101 452.01 357.676 451.485 357.676Z" fill="url(#paint31_linear_759_9113)"/>
<g style="mix-blend-mode:color-burn">
<path d="M446.174 376.922H313.506V384.025H446.174V376.922Z" fill="url(#paint32_linear_759_9113)"/>
</g>
<path d="M363.037 376.922V511.998" stroke="url(#paint33_linear_759_9113)" stroke-width="1.07" stroke-miterlimit="10"/>
<path d="M379.84 376.922V511.998" stroke="url(#paint34_linear_759_9113)" stroke-width="1.07" stroke-miterlimit="10"/>
<path d="M396.641 376.922V511.998" stroke="url(#paint35_linear_759_9113)" stroke-width="1.07" stroke-miterlimit="10"/>
<path d="M441.196 235.856C440.575 233.43 439.77 231.056 438.789 228.753C438.026 226.96 437.16 225.214 436.193 223.523C435.339 222.027 434.401 220.58 433.384 219.189C432.435 217.851 431.431 216.647 430.361 215.443C429.96 214.988 429.532 214.534 429.104 214.105L421.078 205.879C421.506 206.32 421.921 206.762 422.335 207.217C423.406 208.42 424.409 209.664 425.358 210.962C426.369 212.362 427.306 213.813 428.168 215.309C429.139 216.998 430.006 218.745 430.763 220.54C431.743 222.843 432.547 225.218 433.17 227.642C435.237 235.864 435.425 244.446 433.719 252.75C433.294 254.964 432.744 257.152 432.074 259.305C431.259 261.934 430.285 264.512 429.157 267.023C428.266 268.985 427.294 270.902 426.241 272.775C425.278 274.46 424.248 276.106 423.165 277.697C422.081 279.289 421.038 280.68 419.887 282.098C418.737 283.516 417.614 284.841 416.396 286.111C415.179 287.382 413.922 288.68 412.611 289.897C411.3 291.114 409.868 292.345 408.437 293.482C407.006 294.619 405.32 295.863 403.702 296.96C401.918 298.181 400.055 299.309 398.111 300.344C395.777 301.628 393.37 302.771 390.901 303.768C382.472 307.237 373.385 308.812 364.281 308.383C351.531 307.926 339.44 302.603 330.492 293.509L338.451 301.748C347.43 310.88 359.575 316.21 372.374 316.637C381.478 317.066 390.565 315.49 398.993 312.022C401.46 311.019 403.868 309.876 406.203 308.597C408.112 307.554 409.976 306.426 411.795 305.213C413.413 304.116 415.005 302.952 416.53 301.735C418.055 300.518 419.366 299.394 420.703 298.15C422.041 296.906 423.285 295.676 424.502 294.365C425.72 293.054 426.87 291.689 427.994 290.352C429.117 289.014 430.228 287.462 431.258 285.951C432.288 284.439 433.371 282.714 434.334 281.028C435.297 279.343 436.381 277.229 437.264 275.276C438.393 272.767 439.362 270.189 440.166 267.558C440.835 265.404 441.389 263.216 441.825 261.004C443.509 252.68 443.294 244.084 441.196 235.856Z" fill="url(#paint36_linear_759_9113)"/>
<path d="M387.37 190.99C419.367 192.662 440.154 220.311 433.787 252.736C427.42 285.16 396.333 310.081 364.349 308.395C332.366 306.71 311.566 279.087 317.919 246.663C324.273 214.238 355.36 189.318 387.37 190.99Z" fill="url(#paint37_linear_759_9113)"/>
<g style="mix-blend-mode:screen">
<path style="mix-blend-mode:screen" d="M386.045 197.758C414.35 199.243 432.729 223.695 427.111 252.388C421.493 281.081 393.978 303.112 365.686 301.627C337.395 300.142 318.989 275.69 324.607 247.011C330.225 218.331 357.727 196.273 386.045 197.758Z" fill="url(#paint38_linear_759_9113)"/>
</g>
<path d="M343.228 259.785L345.729 262.366L338.613 261.992L336.125 259.41L343.228 259.785Z" fill="white"/>
<path d="M345.957 245.928L348.445 248.496L345.73 262.367L343.229 259.786L345.957 245.928Z" fill="white"/>
<path d="M347.199 233.717L349.687 236.285L358.302 250.745L355.814 248.177L347.199 233.717Z" fill="white"/>
<path d="M360.55 260.696L363.038 263.265L357.058 262.957L354.57 260.389L360.55 260.696Z" fill="white"/>
<path d="M365.661 234.68L368.149 237.261L363.039 263.265L360.551 260.697L365.661 234.68Z" fill="white"/>
<path d="M365.66 234.679L360.551 260.696L354.571 260.388L345.957 245.928L343.228 259.786L336.125 259.412L341.235 233.395L347.201 233.716L355.815 248.176L358.531 234.304L365.66 234.679Z" fill="url(#paint39_linear_759_9113)"/>
<path d="M390.93 236.002L389.82 241.687L376.938 241.005L375.814 246.743L378.302 249.312L379.426 243.586L392.308 244.255L393.418 238.57L390.93 236.002Z" fill="white"/>
<path d="M386.033 253.019L374.703 252.43L372.951 261.353L365.688 260.965L368.176 263.546L375.439 263.921L377.191 254.999L388.521 255.587L389.631 249.916L387.143 247.334L386.033 253.019Z" fill="white"/>
<path d="M390.929 236.004L389.819 241.689L376.937 241.007L375.814 246.745L387.143 247.334L386.033 253.019L374.703 252.43L372.951 261.353L365.688 260.965L370.797 234.947L390.929 236.004Z" fill="url(#paint40_linear_759_9113)"/>
<path d="M398.849 242.315L390.957 241.9L393.445 244.469L401.337 244.883L398.849 242.315Z" fill="white"/>
<path d="M415.101 237.273L413.95 243.106L406.098 242.691L402.152 262.876L394.889 262.502L397.377 265.07L404.64 265.444L408.586 245.273L416.438 245.687L417.589 239.842L415.101 237.273Z" fill="white"/>
<path d="M415.102 237.272L413.951 243.104L406.099 242.69L402.153 262.875L394.89 262.5L398.849 242.315L390.957 241.901L392.107 236.068L415.102 237.272Z" fill="url(#paint41_linear_759_9113)"/>
<path d="M332.393 180.689C335.548 180.689 338.105 178.132 338.105 174.977C338.105 171.823 335.548 169.266 332.393 169.266C329.239 169.266 326.682 171.823 326.682 174.977C326.682 178.132 329.239 180.689 332.393 180.689Z" fill="url(#paint42_linear_759_9113)"/>
<path opacity="0.5" d="M348.298 327.723C348.298 329.17 347.869 330.585 347.065 331.788C346.261 332.992 345.118 333.929 343.781 334.483C342.444 335.037 340.973 335.182 339.554 334.9C338.134 334.617 336.83 333.92 335.807 332.897C334.784 331.874 334.087 330.57 333.805 329.151C333.522 327.731 333.667 326.26 334.221 324.923C334.775 323.586 335.713 322.443 336.916 321.639C338.119 320.835 339.534 320.406 340.981 320.406C341.942 320.406 342.893 320.596 343.781 320.963C344.669 321.331 345.475 321.87 346.155 322.549C346.834 323.229 347.373 324.035 347.741 324.923C348.109 325.811 348.298 326.762 348.298 327.723Z" fill="url(#paint43_linear_759_9113)"/>
<path d="M430.843 309.933C430.843 310.462 430.686 310.979 430.392 311.419C430.098 311.859 429.68 312.202 429.191 312.405C428.702 312.607 428.165 312.66 427.646 312.557C427.127 312.454 426.65 312.199 426.276 311.825C425.902 311.451 425.647 310.974 425.544 310.455C425.44 309.936 425.493 309.398 425.696 308.909C425.898 308.42 426.241 308.003 426.681 307.709C427.121 307.415 427.638 307.258 428.167 307.258C428.877 307.258 429.557 307.54 430.059 308.041C430.561 308.543 430.843 309.224 430.843 309.933Z" fill="url(#paint44_linear_759_9113)"/>
<path d="M386.836 346.812C386.836 347.252 386.705 347.681 386.461 348.046C386.217 348.411 385.871 348.696 385.465 348.864C385.059 349.032 384.613 349.076 384.182 348.99C383.751 348.905 383.355 348.693 383.045 348.382C382.734 348.072 382.523 347.676 382.437 347.246C382.352 346.815 382.395 346.368 382.564 345.963C382.732 345.557 383.016 345.21 383.381 344.966C383.747 344.722 384.176 344.592 384.615 344.592C384.907 344.59 385.197 344.646 385.467 344.757C385.737 344.868 385.983 345.032 386.189 345.238C386.396 345.445 386.559 345.69 386.67 345.961C386.781 346.231 386.837 346.52 386.836 346.812Z" fill="url(#paint45_linear_759_9113)"/>
<path d="M307.246 232.472C307.246 232.912 307.115 233.342 306.871 233.708C306.626 234.073 306.278 234.358 305.872 234.525C305.465 234.693 305.018 234.736 304.587 234.649C304.156 234.563 303.76 234.35 303.45 234.038C303.14 233.726 302.93 233.329 302.846 232.897C302.762 232.466 302.807 232.019 302.978 231.613C303.148 231.208 303.434 230.862 303.801 230.62C304.168 230.377 304.599 230.249 305.039 230.252C305.33 230.252 305.618 230.31 305.886 230.421C306.155 230.533 306.399 230.697 306.604 230.903C306.809 231.11 306.971 231.354 307.082 231.624C307.192 231.893 307.247 232.182 307.246 232.472Z" fill="url(#paint46_linear_759_9113)"/>
<path d="M413.962 177.186C413.965 177.626 413.837 178.057 413.594 178.424C413.351 178.792 413.004 179.078 412.598 179.248C412.192 179.418 411.744 179.463 411.312 179.378C410.88 179.292 410.483 179.081 410.172 178.769C409.86 178.458 409.649 178.061 409.564 177.629C409.478 177.197 409.523 176.749 409.693 176.343C409.863 175.937 410.149 175.59 410.517 175.347C410.884 175.104 411.315 174.976 411.755 174.979C412.341 174.979 412.902 175.211 413.316 175.625C413.73 176.039 413.962 176.6 413.962 177.186Z" fill="url(#paint47_linear_759_9113)"/>
<path opacity="0.2" d="M415.1 335.014C416.947 335.014 418.444 333.517 418.444 331.67C418.444 329.823 416.947 328.326 415.1 328.326C413.253 328.326 411.756 329.823 411.756 331.67C411.756 333.517 413.253 335.014 415.1 335.014Z" fill="url(#paint48_linear_759_9113)"/>
<path opacity="0.3" d="M452.875 221.944C452.878 222.609 452.683 223.26 452.315 223.814C451.947 224.368 451.423 224.801 450.809 225.057C450.195 225.312 449.518 225.38 448.866 225.251C448.213 225.122 447.614 224.802 447.144 224.331C446.673 223.861 446.353 223.261 446.224 222.609C446.095 221.956 446.163 221.28 446.418 220.666C446.674 220.052 447.106 219.528 447.661 219.16C448.215 218.792 448.866 218.597 449.531 218.6C450.417 218.603 451.265 218.957 451.892 219.583C452.518 220.209 452.872 221.058 452.875 221.944Z" fill="url(#paint49_linear_759_9113)"/>
<path d="M606.465 280.627C606.383 280.573 606.291 280.535 606.195 280.517C606.098 280.498 605.999 280.5 605.903 280.52C605.93 280.451 605.93 280.375 605.903 280.306C605.676 280.092 604.98 280.306 604.204 280.467C604.267 280.306 604.267 280.186 604.204 280.105C603.87 279.811 603.201 280.105 603.201 280.105L598.814 282.032L598.439 282.246C598.263 282.356 598.093 282.477 597.931 282.607C597.309 283.186 596.732 283.812 596.205 284.48C595.057 285.897 593.565 286.998 591.871 287.677L574.361 294.779L588.46 295.729C588.46 295.729 594.386 291.944 596.125 291.582C597.864 291.221 600.138 291.342 601.048 290.379C601.957 289.415 604.405 287.075 604.325 286.085C604.325 285.336 603.616 285.51 603.388 285.603C602.533 286.175 601.716 286.8 600.94 287.476C600.566 287.703 599.175 287.971 598.707 287.355L601.114 284.921C602.171 284.062 603.304 283.301 604.499 282.647C606.104 281.751 606.746 280.908 606.465 280.627Z" fill="#EFCDAF"/>
<path d="M572.221 490.918L572.675 501.071C572.675 501.071 578.441 503.545 583.015 501.071L584.246 488.791" fill="#EFCDAF"/>
<path d="M572.675 501.084C571.62 502.233 570.923 503.665 570.669 505.204C570.489 507.275 570.525 509.36 570.776 511.424C570.776 511.692 577.464 511.558 584.246 511.598C591.336 511.598 598.572 511.865 599.134 511.598C600.231 511.103 583.082 501.084 583.082 501.084C579.651 501.802 576.107 501.802 572.675 501.084Z" fill="url(#paint50_linear_759_9113)"/>
<path d="M519.718 486.76L516.842 496.498C516.842 496.498 520.948 500.685 526.098 499.855L531.061 487.937" fill="#EFCDAF"/>
<path d="M513.525 499.72C514.28 498.353 515.413 497.234 516.789 496.496C518.126 497.673 526.299 499.961 526.299 499.961C526.299 499.961 526.299 500.308 527.811 501.86C528.988 503.051 530.366 504.535 531.824 505.793C532.6 506.02 540.733 511.143 539.636 511.625C538.539 512.106 531.222 511.973 528.613 511.866C527.998 511.866 519.517 508.415 516.682 507.371C513.846 506.328 511.331 505.044 511.451 504.522C512.017 502.87 512.71 501.264 513.525 499.72Z" fill="url(#paint51_linear_759_9113)"/>
<path d="M569.88 352.9C569.88 352.9 565.599 391.452 563.352 410.955C562.616 417.322 562.095 421.656 562.014 421.977C560.677 427.033 558.67 433.24 556.356 439.888C547.595 464.875 534.432 495.401 534.432 495.401C534.432 495.401 524.199 493.728 518.26 489.542L533.228 420.024C533.228 420.024 532.426 364.163 532.011 354.907L569.88 352.9Z" fill="url(#paint52_linear_759_9113)"/>
<path style="mix-blend-mode:color-burn" opacity="0.35" d="M563.353 410.954C562.617 417.321 562.095 421.655 562.015 421.976C560.677 427.032 558.671 433.239 556.357 439.887C555.915 432.864 553.146 386.381 553.146 386.381L563.353 410.954Z" fill="url(#paint53_linear_759_9113)"/>
<path d="M591.336 241.955C590.253 247.787 587.203 259.986 584.033 264.507C583.821 264.819 583.519 265.058 583.168 265.194C582.817 265.331 582.433 265.357 582.066 265.27C578.615 264.494 567.151 260.909 565.091 247.452C562.657 231.574 574.241 228.484 579.659 229.822C585.076 231.16 593.089 232.163 591.336 241.955Z" fill="#EFCDAF"/>
<path d="M586.011 349.461L588.298 416.25L585.248 497.366C585.248 497.366 574.922 499.145 567.431 497.941C567.431 497.941 560.609 435.325 560.234 426.43C559.753 415.02 546.242 356.417 546.55 348.953" fill="url(#paint54_linear_759_9113)"/>
<path d="M579.511 261.216C578.478 265.175 577.7 269.196 577.184 273.255C577.184 273.255 567.325 272.921 561.627 269.831C564.259 263.092 565.912 256.01 566.536 248.803" fill="#EFCDAF"/>
<path d="M597.837 235.188C597.65 234.69 597.358 234.238 596.982 233.862C596.606 233.486 596.154 233.195 595.656 233.007C594.884 232.848 594.12 232.647 593.369 232.405C591.51 231.482 591.429 228.727 589.851 227.363C589.303 226.927 588.67 226.612 587.992 226.44C586.296 225.917 584.509 225.758 582.748 225.971C581.961 226.133 581.152 226.169 580.354 226.078C579.897 225.978 579.449 225.839 579.016 225.664C577.348 224.973 575.496 224.864 573.759 225.356C573.072 225.59 572.437 225.953 571.886 226.426C566.322 228.379 568.02 232.111 568.02 232.111C564.155 232.967 561.693 235.014 561.56 242.103C561.426 249.193 562.563 258.155 563.499 259.413C564.436 260.67 572.462 262.891 576.314 261.031C577.652 260.416 581.384 249.14 581.812 247.909C581.844 247.712 581.92 247.525 582.033 247.362C582.147 247.198 582.296 247.062 582.469 246.963C582.642 246.865 582.835 246.806 583.034 246.791C583.232 246.777 583.432 246.807 583.617 246.879C584.771 246.901 585.905 246.584 586.881 245.969C588.146 246.093 589.422 245.928 590.613 245.488C591.493 245.186 592.287 244.676 592.928 244.003C593.257 243.632 593.511 243.2 593.677 242.732C594.7 242.408 595.627 241.833 596.372 241.06C597.117 240.287 597.658 239.339 597.944 238.305C598.23 237.279 598.193 236.191 597.837 235.188Z" fill="url(#paint55_linear_759_9113)"/>
<path d="M531.086 358.49C532.919 359.52 572.192 361.794 586.425 357.821C586.425 357.821 586.318 348.805 586.425 344.378C586.425 342.465 588.886 296.878 588.177 284.839C588.177 284.839 584.539 274.646 577.008 272.479C571.05 270.827 564.991 269.562 558.869 268.693C554.936 269.402 547.205 277.107 544.529 284.21C536.37 305.8 529.561 357.58 531.086 358.49Z" fill="url(#paint56_linear_759_9113)"/>
<path d="M639.491 291.754C639.317 291.754 638.782 291.901 638.046 292.088C638.447 291.567 638.34 290.991 637.979 291.112C637.618 291.232 634.862 292.021 634.193 292.356C633.525 292.69 631.291 294.148 631.291 294.148C631.063 294.24 630.843 294.352 630.635 294.483C629.445 295.312 628.308 297.867 626.823 299.124C625.665 300.038 624.435 300.857 623.144 301.572L598.639 308.261L593.087 296.797L575.818 300.609C575.818 300.609 585.717 319.069 590.533 322.667C592.298 324.005 619.519 309.545 625.873 306.147C626.97 305.558 631.224 304.689 632.334 303.084C632.951 302.274 633.435 301.371 633.765 300.409L635.772 297.974C635.772 297.974 638.033 296.449 638.206 295.767C638.256 295.641 638.254 295.5 638.201 295.376C638.149 295.251 638.05 295.151 637.926 295.098L638.688 294.536C639.584 293.72 639.022 293.199 639.022 293.199C639.986 292.717 640.226 291.674 639.491 291.754Z" fill="#EFCDAF"/>
<path d="M569.707 284.398C569.253 289.481 576.73 307.66 576.73 307.66C576.73 307.66 587.271 305.693 594.748 298.831C594.748 298.831 588.287 282.204 585.184 279.061C581.412 275.222 570.416 276.439 569.707 284.398Z" fill="url(#paint57_linear_759_9113)"/>
<path d="M534.231 212.688H504.16C503.295 212.688 502.465 213.031 501.852 213.643C501.24 214.256 500.896 215.086 500.896 215.951V237.033C500.896 237.898 501.24 238.729 501.852 239.341C502.465 239.953 503.295 240.297 504.16 240.297H524.051L528.439 245.112C528.552 245.232 528.699 245.315 528.86 245.351C529.022 245.387 529.19 245.374 529.344 245.314C529.498 245.253 529.63 245.148 529.724 245.012C529.817 244.876 529.868 244.716 529.87 244.55V240.297H534.231C535.096 240.297 535.927 239.953 536.539 239.341C537.151 238.729 537.495 237.898 537.495 237.033V215.938C537.491 215.075 537.146 214.248 536.534 213.639C535.922 213.03 535.094 212.687 534.231 212.688Z" fill="url(#paint58_linear_759_9113)"/>
<path d="M527.797 226.478C527.797 226.888 527.918 227.289 528.146 227.63C528.374 227.971 528.698 228.236 529.077 228.393C529.456 228.55 529.873 228.591 530.275 228.511C530.677 228.431 531.046 228.234 531.336 227.944C531.626 227.654 531.824 227.284 531.904 226.882C531.984 226.48 531.943 226.063 531.786 225.684C531.629 225.305 531.363 224.982 531.022 224.754C530.681 224.526 530.28 224.404 529.87 224.404C529.32 224.404 528.793 224.623 528.404 225.012C528.015 225.4 527.797 225.928 527.797 226.478Z" fill="#F0F9FF"/>
<path d="M517.082 226.478C517.079 226.892 517.2 227.297 517.428 227.642C517.656 227.987 517.982 228.257 518.364 228.416C518.746 228.576 519.167 228.618 519.573 228.538C519.979 228.458 520.352 228.259 520.644 227.967C520.937 227.674 521.136 227.301 521.216 226.895C521.296 226.489 521.254 226.068 521.094 225.686C520.934 225.304 520.665 224.979 520.32 224.75C519.975 224.522 519.569 224.402 519.155 224.404C518.607 224.408 518.081 224.627 517.693 225.016C517.305 225.404 517.086 225.929 517.082 226.478Z" fill="#F0F9FF"/>
<path d="M506.381 226.478C506.381 226.888 506.502 227.289 506.73 227.63C506.958 227.971 507.282 228.236 507.661 228.393C508.04 228.55 508.457 228.591 508.859 228.511C509.261 228.431 509.63 228.234 509.92 227.944C510.21 227.654 510.408 227.284 510.488 226.882C510.568 226.48 510.527 226.063 510.37 225.684C510.213 225.305 509.947 224.982 509.606 224.754C509.265 224.526 508.864 224.404 508.454 224.404C507.904 224.404 507.377 224.623 506.988 225.012C506.599 225.4 506.381 225.928 506.381 226.478Z" fill="#F0F9FF"/>
<path d="M198.562 500.282L190.322 501.312L186.857 482.21L197.813 481.648C197.813 481.648 198.334 499.506 198.562 500.282Z" fill="#EFCDAF"/>
<path d="M137.805 484.953C137.805 484.953 132.641 499.199 132.575 500.001L123.211 497.085L126.782 482.371L137.805 484.953Z" fill="#EFCDAF"/>
<path d="M197.853 422.045C195.953 405.832 192.154 361.208 190.549 346.106L161.977 339.498C148.132 368.926 162.525 376.163 165.843 382.664C166.605 384.149 167.916 398.529 172.879 420.56C175.995 452.77 181.065 491.723 181.065 491.723C181.065 491.723 195.017 492.258 199.792 489.757L197.853 422.045Z" fill="url(#paint59_linear_759_9113)"/>
<path d="M144.694 345.194C144.694 345.194 137.738 357.3 138.728 368.055C139.584 377.285 141.403 404.492 142.741 419.314C135.625 441.826 125.164 485.942 125.164 485.942C128.853 487.774 132.727 489.205 136.721 490.209C138.327 490.664 143.851 491.44 144.841 491.132C144.841 491.132 163.488 434.162 166.618 422.524C174.042 394.968 179.62 344.793 179.62 344.793L144.694 345.194Z" fill="url(#paint60_linear_759_9113)"/>
<path d="M218.103 502.956C218.356 503.052 218.585 503.202 218.772 503.397C218.96 503.591 219.101 503.825 219.187 504.081C219.273 504.337 219.301 504.609 219.268 504.878C219.236 505.146 219.144 505.403 219 505.632C217.662 508.414 206.827 511.317 201.61 511.892H188.902L208.017 504.909C209.958 504.012 211.978 503.296 214.05 502.769C215.404 502.65 216.767 502.713 218.103 502.956Z" fill="url(#paint61_linear_759_9113)"/>
<path d="M190.172 500.522C190.172 500.522 195.656 500.79 198.519 499.76C198.519 499.76 205.568 502.181 209.488 502.181C213.407 502.181 217.086 502.181 218.102 502.984C215.427 502.555 212.752 503.345 209.581 505.204C197.69 512.227 188.888 511.892 188.888 511.892C188.888 511.892 187.778 504.134 190.172 500.522Z" fill="url(#paint62_linear_759_9113)"/>
<path d="M146.058 511.933C146.673 507.198 140.814 505.004 137.189 504.349C134.808 503.091 132.855 498.998 132.855 498.998C129.536 498.907 126.303 497.928 123.491 496.162C122.302 497.235 121.353 498.548 120.709 500.015C119.865 501.897 119.301 503.894 119.037 505.94C119.037 505.94 123.05 508.549 125.578 510.034C128.106 511.518 133.43 511.946 133.43 511.946L146.058 511.933Z" fill="url(#paint63_linear_759_9113)"/>
<path d="M183.766 237.005C184.823 238.927 185.324 241.104 185.213 243.294C185.102 245.484 184.383 247.6 183.138 249.405C181.523 252.259 180.346 255.338 179.646 258.541C178.309 264.36 180.088 275.623 180.088 275.623C180.088 275.623 172.677 276.64 169.387 275.115C166.096 273.59 168.731 254.97 168.731 254.97C168.731 254.97 170.978 244.576 171.406 243.56C171.834 242.543 178.309 234.758 178.309 234.758L183.766 237.005Z" fill="url(#paint64_linear_759_9113)"/>
<path d="M172.288 270.366C172.208 269.738 172.382 259.144 172.382 259.144L171.432 257.552L167.111 250.248C167.111 250.248 160.182 245.968 159.473 250.248C158.978 253.365 159.326 270.005 159.326 270.005L151.715 272.681C154.39 279.65 163.874 280.332 163.874 280.332C177.344 281.589 183.069 272.975 183.069 272.975C183.069 272.975 172.435 270.942 172.288 270.366Z" fill="#EFCDAF"/>
<path d="M163.113 256.375C163.113 256.375 165.347 263.398 172.303 265.471V262.916L163.113 256.375Z" fill="#E8A77D"/>
<path d="M233.152 282.954C233.032 282.299 232.845 281.697 232.524 281.617C232.316 281.547 232.1 281.507 231.882 281.496L233.299 279.73C233.741 279.195 235.587 277.229 235.694 276.413C235.801 275.597 234.878 275.744 234.637 275.905C233.559 276.714 232.577 277.643 231.708 278.674C231.092 279.356 229.915 280.653 229.032 281.55C229.538 280.689 229.985 279.795 230.37 278.874C230.417 278.704 230.401 278.522 230.325 278.362C230.249 278.203 230.117 278.076 229.955 278.005C228.358 279.279 227.034 280.862 226.063 282.66C225.722 283.811 225.503 284.995 225.407 286.191C225.006 287.351 224.293 288.379 223.347 289.161L212.098 298.297L217.676 303.741L227.721 292.88C228.513 292.152 229.416 291.555 230.397 291.114C231.025 290.729 231.564 290.214 231.975 289.602C232.217 289.22 232.414 288.812 232.564 288.385C232.684 288.76 233.005 288.88 233.233 288.586C233.722 287.674 234.078 286.696 234.289 285.683C234.289 285.175 234.436 283.449 234.102 283.101C233.962 283.014 233.805 282.956 233.642 282.931C233.479 282.906 233.312 282.914 233.152 282.954Z" fill="#EFCDAF"/>
<path d="M183.617 235.078C183.617 235.078 183.684 262.514 176.1 263.557C172.649 264.025 165.399 260.133 161.72 254.541C161.72 254.541 156.182 246.676 156.998 238.115C157.814 229.554 180.139 223.227 183.617 235.078Z" fill="#EFCDAF"/>
<path d="M183.768 248.322C183.768 248.322 185.386 242.877 183.447 239.894C183.447 239.894 182.109 238.262 178.578 239.399C176.009 240.215 170.953 242.168 166.097 238.463C166.097 238.463 166.646 244.737 162.084 247.666C161.212 249.66 160.674 251.784 160.492 253.953C160.385 256.709 159.931 263.638 159.235 270.005L149.979 273.175C149.979 273.175 150.326 270.085 150.594 259.304C150.848 248.95 147.544 236.564 156.787 232.925C156.787 232.925 159.636 223.227 172.692 225.287C185.747 227.347 191.593 237.874 183.768 248.322Z" fill="url(#paint65_linear_759_9113)"/>
<path d="M164.731 246.649C164.731 246.649 163.193 242.289 160.33 244.482C158.243 246.074 158.725 253.618 162.47 253.939" fill="#EFCDAF"/>
<path d="M215.696 295.328C215.696 295.328 208.312 300.932 202.159 305.226C199.738 300.103 198.681 298.03 193.09 285.055C188.287 273.952 184.622 273.283 184.622 273.283L180.342 300.304C180.342 300.304 192.555 321.318 198.882 322.429C202.467 323.057 214.76 311.487 221.809 303.889C220.597 300.975 218.906 298.285 216.806 295.93C216.458 295.691 216.086 295.489 215.696 295.328Z" fill="url(#paint66_linear_759_9113)"/>
<path d="M143.008 324.435C143.449 330.24 139.316 356.19 138.888 359.374C138.687 360.832 139.342 361.247 139.342 361.247C139.342 361.247 170.336 370.383 191.685 361.247C191.685 361.247 192.514 360.939 192.287 358.986C191.899 355.428 188.795 313.506 188.795 313.506C190.541 309.896 191.942 306.129 192.982 302.256C193.852 297.936 188.969 290.431 188.354 287.101C187.739 283.77 184.622 273.309 184.622 273.309C184.622 273.309 182.281 272.641 175.258 271.049C175.258 271.049 170.657 283.088 155.715 271.049C154.217 271.33 147.93 272.52 145.817 272.988C145.645 273.039 145.471 273.079 145.295 273.109C142.974 273.97 140.975 275.525 139.57 277.563C137.546 285.374 137.5 293.567 139.436 301.4C141.223 308.974 142.417 316.675 143.008 324.435Z" fill="url(#paint67_linear_759_9113)"/>
<path d="M141.914 343.428L171.118 354.579C171.871 354.867 172.713 354.49 173.001 353.738L189.33 310.975C189.617 310.223 189.24 309.38 188.488 309.093L159.284 297.941C158.532 297.653 157.689 298.03 157.402 298.783L141.072 341.545C140.785 342.298 141.162 343.14 141.914 343.428Z" fill="#22256F"/>
<path d="M145.225 347.898L174.893 352.724C176.015 352.907 177.074 352.144 177.257 351.021L184.413 307.029C184.596 305.906 183.834 304.848 182.711 304.665L153.044 299.839C151.921 299.656 150.862 300.418 150.68 301.541L143.523 345.534C143.34 346.657 144.103 347.715 145.225 347.898Z" fill="url(#paint68_linear_759_9113)"/>
<path d="M183.109 327.578C183.698 327.578 184.327 327.176 184.046 326.829C183.765 326.481 180.033 324.822 179.11 325.09C178.187 325.357 176.822 326.2 175.873 326.427C174.9 326.548 173.916 326.548 172.943 326.427L160.409 323.752L156.396 330.989L174.147 332.045C174.147 332.045 175.94 332.795 177.157 333.383H177.304C178.094 333.711 178.928 333.923 179.779 334.012C180.862 334.012 181.33 333.37 181.344 332.915C181.932 332.781 182.173 332.42 182.186 332.072C182.197 331.896 182.16 331.721 182.079 331.564C182.284 331.534 182.472 331.436 182.613 331.285C182.754 331.134 182.839 330.94 182.855 330.735C182.861 330.545 182.82 330.356 182.735 330.186C182.95 330.165 183.151 330.069 183.302 329.915C183.454 329.761 183.546 329.559 183.564 329.343C183.565 329.06 183.476 328.784 183.31 328.554C182.273 327.934 181.144 327.482 179.966 327.216C181.002 327.424 182.053 327.545 183.109 327.578Z" fill="#EFCDAF"/>
<path d="M161.159 323.712L145.201 319.98C147.301 311.861 150.016 299.541 151.742 291.889C153.842 282.432 151.274 273.965 145.829 272.908C145.658 272.959 145.484 272.999 145.308 273.029C142.936 273.695 140.866 275.16 139.449 277.175C137.672 280.551 136.47 284.199 135.891 287.97C135.891 287.97 128.186 327.658 133.63 330.253C138.339 332.501 157.708 335.122 157.708 335.122C157.708 335.122 159.607 332.701 161.132 326.575C161.452 325.649 161.461 324.644 161.159 323.712Z" fill="url(#paint69_linear_759_9113)"/>
<path d="M85.0466 235.842H19.4882C15.6762 235.842 12.5859 238.932 12.5859 242.744V282.352C12.5859 286.164 15.6762 289.254 19.4882 289.254H85.0466C88.8586 289.254 91.9489 286.164 91.9489 282.352V242.744C91.9489 238.932 88.8586 235.842 85.0466 235.842Z" fill="url(#paint70_linear_759_9113)"/>
<path d="M52.4474 244.764H22.3903C20.8685 244.764 19.6348 245.997 19.6348 247.519V277.576C19.6348 279.098 20.8685 280.332 22.3903 280.332H52.4474C53.9692 280.332 55.2029 279.098 55.2029 277.576V247.519C55.2029 245.997 53.9692 244.764 52.4474 244.764Z" fill="url(#paint71_linear_759_9113)"/>
<path d="M25.3749 256.281H22.7799C22.4031 256.281 22.0977 256.587 22.0977 256.963V276.44C22.0977 276.816 22.4031 277.122 22.7799 277.122H25.3749C25.7517 277.122 26.0571 276.816 26.0571 276.44V256.963C26.0571 256.587 25.7517 256.281 25.3749 256.281Z" fill="#EDF7FF"/>
<path d="M32.0487 260.32H29.4537C29.0769 260.32 28.7715 260.626 28.7715 261.003V276.439C28.7715 276.816 29.0769 277.121 29.4537 277.121H32.0487C32.4255 277.121 32.7309 276.816 32.7309 276.439V261.003C32.7309 260.626 32.4255 260.32 32.0487 260.32Z" fill="#EDF7FF"/>
<path d="M38.7245 257.43H36.1295C35.7527 257.43 35.4473 257.735 35.4473 258.112V276.438C35.4473 276.815 35.7527 277.12 36.1295 277.12H38.7245C39.1013 277.12 39.4067 276.815 39.4067 276.438V258.112C39.4067 257.735 39.1013 257.43 38.7245 257.43Z" fill="#EDF7FF"/>
<path d="M45.3983 248.375H42.8033C42.4265 248.375 42.1211 248.68 42.1211 249.057V276.439C42.1211 276.816 42.4265 277.121 42.8033 277.121H45.3983C45.7751 277.121 46.0805 276.816 46.0805 276.439V249.057C46.0805 248.68 45.7751 248.375 45.3983 248.375Z" fill="#EDF7FF"/>
<path d="M52.0604 254.061H49.4654C49.0886 254.061 48.7832 254.366 48.7832 254.743V276.439C48.7832 276.816 49.0886 277.122 49.4654 277.122H52.0604C52.4372 277.122 52.7427 276.816 52.7427 276.439V254.743C52.7427 254.366 52.4372 254.061 52.0604 254.061Z" fill="#EDF7FF"/>
<path d="M64.541 248.562H83.335" stroke="white" stroke-width="1.06" stroke-miterlimit="10" stroke-linecap="round"/>
<path d="M64.541 252.684H81.0343" stroke="white" stroke-width="1.06" stroke-miterlimit="10" stroke-linecap="round"/>
<path d="M64.541 256.803H81.0343" stroke="white" stroke-width="1.06" stroke-miterlimit="10" stroke-linecap="round"/>
<path d="M64.541 260.924H83.335" stroke="white" stroke-width="1.06" stroke-miterlimit="10" stroke-linecap="round"/>
<path d="M64.541 265.043H77.3959" stroke="white" stroke-width="1.06" stroke-miterlimit="10" stroke-linecap="round"/>
<path d="M64.541 269.176H83.335" stroke="white" stroke-width="1.06" stroke-miterlimit="10" stroke-linecap="round"/>
<path d="M64.541 273.297H83.335" stroke="white" stroke-width="1.06" stroke-miterlimit="10" stroke-linecap="round"/>
<path d="M64.541 277.416H77.7169" stroke="white" stroke-width="1.06" stroke-miterlimit="10" stroke-linecap="round"/>
<path opacity="0.3" d="M504.896 394.393C504.896 394.193 504.802 393.965 504.749 393.765C504.566 392.923 504.333 392.092 504.053 391.277C503.426 389.453 502.558 387.721 501.471 386.127L503.986 383.625L497.98 377.606L497.86 377.726L495.439 380.121C492.937 378.435 490.12 377.27 487.158 376.696V373.205H478.651V376.75C475.694 377.326 472.883 378.49 470.384 380.174L467.883 377.659L461.863 383.679L464.378 386.18C462.695 388.679 461.53 391.49 460.954 394.447H457.449V402.954H461.007C461.568 405.914 462.729 408.727 464.418 411.221L461.904 413.723L467.923 419.742L470.424 417.227C472.915 418.923 475.73 420.085 478.691 420.638V424.21H487.199V420.638C490.165 420.087 492.985 418.926 495.479 417.227L497.86 419.635L497.98 419.742L501.592 416.13L503.986 413.723L501.592 411.342L501.471 411.221C501.519 411.169 501.559 411.11 501.592 411.047C503.223 408.598 504.346 405.846 504.896 402.954H508.454V394.447L504.896 394.393ZM482.945 412.853C480.136 412.853 477.391 412.021 475.055 410.461C472.72 408.901 470.899 406.684 469.823 404.09C468.747 401.496 468.464 398.641 469.01 395.886C469.556 393.131 470.906 390.599 472.89 388.612C474.874 386.624 477.403 385.269 480.157 384.718C482.911 384.166 485.766 384.444 488.363 385.515C490.959 386.586 493.179 388.403 494.744 390.735C496.308 393.068 497.145 395.812 497.151 398.62C497.156 400.489 496.792 402.34 496.081 404.067C495.369 405.795 494.323 407.364 493.003 408.687C491.684 410.009 490.116 411.058 488.389 411.773C486.663 412.488 484.813 412.855 482.945 412.853Z" fill="#ACE2F9"/>
<path opacity="0.1" d="M697.717 214.439L697.637 214.091C697.54 213.637 697.41 213.19 697.249 212.754C696.905 211.738 696.424 210.775 695.818 209.891L697.222 208.486L693.865 205.142L693.798 205.209L692.46 206.547C691.074 205.599 689.508 204.948 687.859 204.634V202.654H683.123V204.634C681.47 204.948 679.899 205.599 678.508 206.547L677.171 205.142L673.827 208.486L675.164 209.891C674.224 211.279 673.578 212.845 673.265 214.493H671.285V219.228H673.345C673.66 220.874 674.307 222.44 675.245 223.829L673.907 225.167L677.251 228.524L678.589 227.12C679.983 228.058 681.553 228.704 683.204 229.019V230.999H687.939V229.019C689.585 228.704 691.151 228.058 692.54 227.12L693.878 228.458L693.945 228.524L695.965 226.505L697.302 225.167L695.965 223.829L695.898 223.762L695.965 223.669C696.871 222.304 697.494 220.771 697.797 219.161H699.777V214.426L697.717 214.439ZM685.504 224.726C683.941 224.726 682.412 224.262 681.112 223.393C679.812 222.525 678.799 221.29 678.201 219.845C677.602 218.401 677.446 216.811 677.751 215.278C678.056 213.744 678.809 212.336 679.914 211.23C681.02 210.124 682.429 209.371 683.962 209.066C685.496 208.761 687.085 208.918 688.53 209.516C689.974 210.115 691.209 211.128 692.078 212.428C692.946 213.728 693.41 215.256 693.41 216.82C693.41 218.917 692.577 220.928 691.094 222.41C689.612 223.893 687.601 224.726 685.504 224.726Z" fill="#ACE2F9"/>
<path opacity="0.2" d="M152.879 194.949C152.879 194.815 152.879 194.668 152.772 194.521C152.651 193.955 152.494 193.396 152.304 192.849C151.887 191.622 151.306 190.457 150.578 189.384L152.264 187.712L148.251 183.699L148.171 183.78L146.565 185.398C144.89 184.261 143.002 183.473 141.014 183.084V180.703H135.289V183.084C133.301 183.473 131.413 184.261 129.738 185.398L128.052 183.699L124.039 187.712L125.738 189.384C124.6 191.065 123.813 192.958 123.424 194.949H121.043V200.648H123.437C123.812 202.641 124.596 204.536 125.738 206.212L124.039 207.898L128.052 211.911L129.738 210.225C131.415 211.354 133.303 212.132 135.289 212.513V214.907H140.961V212.553C142.946 212.173 144.835 211.394 146.512 210.265L148.117 211.87L148.197 211.951L150.632 209.516L152.237 207.911L150.632 206.306L150.552 206.226L150.632 206.105C151.721 204.453 152.475 202.603 152.852 200.661H155.247V194.949H152.879ZM138.165 207.349C136.275 207.349 134.428 206.789 132.857 205.739C131.286 204.689 130.062 203.196 129.34 201.45C128.617 199.704 128.429 197.783 128.799 195.93C129.168 194.077 130.079 192.375 131.416 191.04C132.753 189.705 134.456 188.796 136.31 188.429C138.163 188.062 140.084 188.253 141.829 188.978C143.574 189.703 145.065 190.93 146.113 192.502C147.161 194.074 147.718 195.922 147.716 197.812C147.712 199.067 147.461 200.309 146.977 201.468C146.493 202.626 145.786 203.678 144.895 204.562C144.004 205.447 142.948 206.147 141.786 206.623C140.624 207.099 139.38 207.341 138.125 207.336L138.165 207.349Z" fill="#ACE2F9"/>
<path d="M280.4 333.826H230.024C226.071 333.826 222.867 337.03 222.867 340.983V387.051C222.867 391.004 226.071 394.208 230.024 394.208H280.4C284.352 394.208 287.556 391.004 287.556 387.051V340.983C287.556 337.03 284.352 333.826 280.4 333.826Z" fill="url(#paint72_linear_759_9113)"/>
<path d="M278.351 338.039H232.082C229.489 338.039 227.387 340.141 227.387 342.734V385.285C227.387 387.878 229.489 389.98 232.082 389.98H278.351C280.944 389.98 283.046 387.878 283.046 385.285V342.734C283.046 340.141 280.944 338.039 278.351 338.039Z" fill="#EDF7FF"/>
<path d="M266.967 389.994H232.068C231.125 389.994 230.205 389.707 229.428 389.172C228.652 388.637 228.057 387.879 227.721 386.998L242.983 364.258C243.349 363.706 243.846 363.253 244.43 362.94C245.013 362.627 245.665 362.463 246.327 362.463C246.99 362.463 247.642 362.627 248.225 362.94C248.809 363.253 249.306 363.706 249.672 364.258L254.527 371.494L266.967 389.994Z" fill="url(#paint73_linear_759_9113)"/>
<path d="M283.047 364.549V385.243C283.043 386.487 282.547 387.679 281.668 388.559C280.788 389.439 279.596 389.934 278.352 389.938H242.088L254.515 371.425L268.132 351.173C268.459 350.682 268.903 350.279 269.423 350C269.944 349.722 270.525 349.576 271.115 349.576C271.705 349.576 272.286 349.722 272.807 350C273.327 350.279 273.771 350.682 274.098 351.173L283.047 364.549Z" fill="url(#paint74_linear_759_9113)"/>
<path d="M251.88 348.712C251.88 349.89 251.53 351.042 250.876 352.021C250.221 353 249.29 353.763 248.202 354.213C247.114 354.663 245.916 354.78 244.761 354.55C243.606 354.319 242.545 353.751 241.713 352.917C240.881 352.083 240.316 351.021 240.087 349.865C239.859 348.71 239.979 347.513 240.432 346.425C240.884 345.338 241.649 344.409 242.63 343.756C243.611 343.104 244.763 342.757 245.941 342.76C246.722 342.76 247.495 342.914 248.216 343.213C248.938 343.512 249.593 343.951 250.145 344.504C250.697 345.057 251.134 345.713 251.431 346.435C251.729 347.158 251.882 347.931 251.88 348.712Z" fill="url(#paint75_linear_759_9113)"/>
<path d="M78.3731 319.699C78.3836 322.129 77.6733 324.509 76.3319 326.536C74.9905 328.563 73.0783 330.147 70.8368 331.087C68.5954 332.028 66.1255 332.283 63.7392 331.82C61.353 331.357 59.1575 330.197 57.4303 328.487C55.7031 326.777 54.5218 324.593 54.0355 322.211C53.5493 319.829 53.7801 317.357 54.6987 315.106C55.6173 312.856 57.1824 310.928 59.1963 309.567C61.2102 308.206 63.5824 307.472 66.0131 307.459C67.6286 307.45 69.23 307.76 70.7257 308.371C72.2214 308.981 73.5821 309.88 74.73 311.017C75.8779 312.154 76.7905 313.506 77.4156 314.995C78.0407 316.485 78.3661 318.083 78.3731 319.699Z" fill="url(#paint76_linear_759_9113)"/>
<path d="M60.6758 320.396L65.5315 325.064L71.9522 316.303" stroke="white" stroke-width="1.58" stroke-linecap="round" stroke-linejoin="round"/>
<path d="M754.768 312.407C754.747 314.238 754.183 316.022 753.148 317.533C752.112 319.043 750.652 320.213 748.952 320.893C747.252 321.574 745.388 321.735 743.597 321.356C741.805 320.977 740.166 320.075 738.887 318.764C737.608 317.453 736.747 315.793 736.412 313.992C736.077 312.192 736.284 310.333 737.006 308.65C737.728 306.967 738.933 305.536 740.469 304.538C742.004 303.54 743.801 303.02 745.632 303.044C746.847 303.058 748.047 303.311 749.164 303.789C750.281 304.268 751.293 304.962 752.142 305.831C752.99 306.701 753.659 307.729 754.11 308.858C754.56 309.986 754.784 311.192 754.768 312.407Z" fill="#BDF3FF"/>
<path d="M741.447 312.676L745.046 316.261L749.981 309.76" stroke="white" stroke-width="1.47" stroke-linecap="round" stroke-linejoin="round"/>
<path opacity="0.5" d="M121.15 293.814C121.153 294.489 120.955 295.15 120.582 295.712C120.209 296.275 119.677 296.714 119.054 296.975C118.431 297.235 117.744 297.304 117.082 297.174C116.419 297.044 115.81 296.72 115.332 296.244C114.854 295.767 114.527 295.159 114.395 294.497C114.262 293.835 114.329 293.149 114.586 292.525C114.844 291.901 115.281 291.367 115.843 290.992C116.404 290.616 117.064 290.416 117.739 290.416C118.641 290.416 119.507 290.774 120.146 291.41C120.786 292.047 121.147 292.911 121.15 293.814Z" fill="#BDF3FF"/>
<path d="M114.541 374.036C114.541 374.449 114.418 374.852 114.189 375.195C113.96 375.539 113.634 375.806 113.252 375.964C112.871 376.122 112.452 376.163 112.047 376.083C111.642 376.002 111.27 375.803 110.978 375.512C110.687 375.22 110.488 374.848 110.407 374.443C110.327 374.038 110.368 373.619 110.526 373.237C110.684 372.856 110.951 372.53 111.295 372.301C111.638 372.072 112.041 371.949 112.454 371.949C112.728 371.947 113.001 372 113.255 372.105C113.509 372.209 113.739 372.362 113.933 372.556C114.128 372.751 114.281 372.981 114.385 373.235C114.49 373.489 114.542 373.761 114.541 374.036Z" fill="#BDF3FF"/>
<path opacity="0.3" d="M237.793 454.548C237.795 454.961 237.675 455.366 237.447 455.711C237.22 456.056 236.895 456.325 236.514 456.485C236.133 456.645 235.713 456.689 235.307 456.61C234.901 456.531 234.528 456.333 234.235 456.042C233.942 455.75 233.742 455.379 233.66 454.973C233.579 454.568 233.619 454.148 233.777 453.766C233.934 453.384 234.202 453.057 234.545 452.827C234.889 452.597 235.293 452.475 235.706 452.475C235.979 452.473 236.25 452.525 236.503 452.629C236.756 452.732 236.987 452.884 237.181 453.077C237.375 453.27 237.528 453.499 237.633 453.751C237.738 454.004 237.793 454.275 237.793 454.548Z" fill="#BDF3FF"/>
<path opacity="0.1" d="M70.4004 426.711C70.4004 427.569 70.1459 428.407 69.6691 429.12C69.1922 429.833 68.5146 430.389 67.7219 430.716C66.9291 431.044 66.057 431.129 65.216 430.961C64.3749 430.792 63.6027 430.378 62.9971 429.771C62.3915 429.163 61.9798 428.39 61.8141 427.548C61.6484 426.707 61.7361 425.835 62.0662 425.043C62.3963 424.251 62.9538 423.575 63.6683 423.101C64.3828 422.626 65.2221 422.374 66.0798 422.377C66.6483 422.377 67.2112 422.489 67.7363 422.707C68.2614 422.925 68.7383 423.245 69.1397 423.647C69.5411 424.05 69.859 424.528 70.0754 425.053C70.2917 425.579 70.4022 426.142 70.4004 426.711Z" fill="#BDF3FF"/>
<path opacity="0.1" d="M424.021 4.33402C424.021 5.19177 423.767 6.03023 423.29 6.74324C422.813 7.45625 422.136 8.01173 421.343 8.33937C420.55 8.667 419.678 8.75204 418.837 8.58373C417.996 8.41541 417.224 8.00131 416.618 7.39385C416.013 6.78639 415.601 6.0129 415.435 5.17131C415.269 4.32971 415.357 3.45787 415.687 2.66618C416.017 1.87448 416.575 1.19853 417.289 0.723921C418.004 0.249308 418.843 -0.00262673 419.701 2.0652e-05C420.269 1.79273e-05 420.832 0.112216 421.357 0.330183C421.882 0.548151 422.359 0.867601 422.761 1.27023C423.162 1.67285 423.48 2.15073 423.696 2.67648C423.913 3.20223 424.023 3.7655 424.021 4.33402Z" fill="#BDF3FF"/>
<path opacity="0.1" d="M170.484 135.572C170.484 136.71 170.147 137.822 169.515 138.768C168.883 139.714 167.985 140.451 166.934 140.886C165.883 141.322 164.726 141.436 163.61 141.214C162.494 140.992 161.47 140.444 160.665 139.639C159.861 138.835 159.313 137.81 159.091 136.694C158.869 135.579 158.983 134.422 159.418 133.371C159.854 132.32 160.591 131.422 161.537 130.79C162.483 130.158 163.595 129.82 164.732 129.82C166.258 129.82 167.721 130.426 168.8 131.505C169.878 132.584 170.484 134.047 170.484 135.572Z" fill="#BDF3FF"/>
<path opacity="0.1" d="M683.353 95.6969C683.353 96.8378 683.014 97.953 682.38 98.9013C681.746 99.8497 680.845 100.589 679.791 101.025C678.737 101.461 677.577 101.574 676.458 101.35C675.339 101.127 674.312 100.576 673.506 99.7689C672.7 98.9612 672.152 97.9327 671.931 96.8135C671.71 95.6942 671.827 94.5346 672.265 93.4814C672.703 92.4281 673.444 91.5287 674.394 90.8968C675.344 90.2649 676.46 89.929 677.601 89.9317C679.128 89.9352 680.591 90.5442 681.669 91.625C682.747 92.7058 683.353 94.1702 683.353 95.6969Z" fill="#BDF3FF"/>
<path d="M646.26 174.857C646.26 175.529 646.061 176.186 645.688 176.744C645.314 177.303 644.784 177.738 644.163 177.996C643.542 178.253 642.859 178.32 642.2 178.189C641.541 178.058 640.935 177.734 640.46 177.259C639.985 176.784 639.661 176.179 639.53 175.519C639.399 174.86 639.466 174.177 639.723 173.556C639.981 172.936 640.416 172.405 640.975 172.032C641.534 171.658 642.191 171.459 642.863 171.459C643.764 171.459 644.628 171.817 645.265 172.454C645.902 173.091 646.26 173.956 646.26 174.857Z" fill="#BDF3FF"/>
<path d="M607.348 434.804C607.348 435.476 607.149 436.133 606.775 436.692C606.402 437.25 605.871 437.686 605.251 437.943C604.63 438.2 603.947 438.267 603.288 438.136C602.628 438.005 602.023 437.682 601.548 437.206C601.073 436.731 600.749 436.126 600.618 435.467C600.487 434.808 600.554 434.124 600.811 433.504C601.069 432.883 601.504 432.352 602.063 431.979C602.622 431.606 603.278 431.406 603.95 431.406C604.851 431.406 605.716 431.764 606.353 432.401C606.99 433.039 607.348 433.903 607.348 434.804Z" fill="#98E7F4"/>
<path d="M458.56 160.759H455.818V158.083C455.818 157.796 455.704 157.521 455.501 157.317C455.298 157.114 455.022 157 454.735 157C454.447 157 454.172 157.114 453.969 157.317C453.765 157.521 453.651 157.796 453.651 158.083V160.759H450.976C450.708 160.789 450.46 160.916 450.28 161.117C450.1 161.319 450 161.579 450 161.849C450 162.119 450.1 162.379 450.28 162.581C450.46 162.782 450.708 162.909 450.976 162.939H453.651V165.614C453.651 165.902 453.765 166.177 453.969 166.381C454.172 166.584 454.447 166.698 454.735 166.698C455.022 166.698 455.298 166.584 455.501 166.381C455.704 166.177 455.818 165.902 455.818 165.614V162.939H458.56C458.829 162.909 459.077 162.782 459.257 162.581C459.437 162.379 459.536 162.119 459.536 161.849C459.536 161.579 459.437 161.319 459.257 161.117C459.077 160.916 458.829 160.789 458.56 160.759Z" fill="#BDF3FF"/>
<path d="M612.843 237.086C612.556 237.086 612.28 236.972 612.077 236.769C611.874 236.565 611.76 236.29 611.76 236.002V228.351C611.76 228.064 611.874 227.788 612.077 227.585C612.28 227.382 612.556 227.268 612.843 227.268C613.131 227.268 613.406 227.382 613.609 227.585C613.813 227.788 613.927 228.064 613.927 228.351V236.002C613.927 236.29 613.813 236.565 613.609 236.769C613.406 236.972 613.131 237.086 612.843 237.086Z" fill="#BDF3FF"/>
<path d="M616.67 233.259H609.019C608.732 233.259 608.456 233.145 608.253 232.941C608.05 232.738 607.936 232.463 607.936 232.175C607.936 231.888 608.05 231.612 608.253 231.409C608.456 231.206 608.732 231.092 609.019 231.092H616.67C616.958 231.092 617.233 231.206 617.437 231.409C617.64 231.612 617.754 231.888 617.754 232.175C617.754 232.463 617.64 232.738 617.437 232.941C617.233 233.145 616.958 233.259 616.67 233.259Z" fill="#BDF3FF"/>
<path d="M249.766 307.392H247.09V304.65C247.09 304.363 246.976 304.087 246.773 303.884C246.57 303.681 246.294 303.566 246.007 303.566C245.719 303.566 245.444 303.681 245.241 303.884C245.038 304.087 244.923 304.363 244.923 304.65V307.392H242.181C241.894 307.392 241.618 307.506 241.415 307.709C241.212 307.913 241.098 308.188 241.098 308.476C241.098 308.763 241.212 309.039 241.415 309.242C241.618 309.445 241.894 309.559 242.181 309.559H244.923V312.301C244.923 312.589 245.038 312.864 245.241 313.067C245.444 313.271 245.719 313.385 246.007 313.385C246.294 313.385 246.57 313.271 246.773 313.067C246.976 312.864 247.09 312.589 247.09 312.301V309.559H249.766C250.053 309.559 250.329 309.445 250.532 309.242C250.735 309.039 250.849 308.763 250.849 308.476C250.849 308.188 250.735 307.913 250.532 307.709C250.329 307.506 250.053 307.392 249.766 307.392Z" fill="#BDF3FF"/>
<path d="M665.629 147.021H662.887V144.345C662.887 144.058 662.772 143.782 662.569 143.579C662.366 143.376 662.09 143.262 661.803 143.262C661.516 143.262 661.24 143.376 661.037 143.579C660.834 143.782 660.72 144.058 660.72 144.345V147.021H658.044C657.776 147.05 657.528 147.178 657.348 147.379C657.168 147.58 657.068 147.841 657.068 148.111C657.068 148.381 657.168 148.641 657.348 148.842C657.528 149.043 657.776 149.171 658.044 149.201H660.72V151.876C660.72 152.164 660.834 152.439 661.037 152.642C661.24 152.846 661.516 152.96 661.803 152.96C662.09 152.96 662.366 152.846 662.569 152.642C662.772 152.439 662.887 152.164 662.887 151.876V149.201H665.629C665.897 149.171 666.145 149.043 666.325 148.842C666.505 148.641 666.605 148.381 666.605 148.111C666.605 147.841 666.505 147.58 666.325 147.379C666.145 147.178 665.897 147.05 665.629 147.021Z" fill="#98E7F4"/>
<path opacity="0.5" d="M512.279 321.356H509.604V318.681C509.604 318.394 509.49 318.118 509.287 317.915C509.083 317.712 508.808 317.598 508.521 317.598C508.233 317.598 507.958 317.712 507.754 317.915C507.551 318.118 507.437 318.394 507.437 318.681V321.356H504.695C504.408 321.356 504.132 321.471 503.929 321.674C503.725 321.877 503.611 322.153 503.611 322.44C503.611 322.727 503.725 323.003 503.929 323.206C504.132 323.409 504.408 323.523 504.695 323.523H507.437V326.266C507.437 326.553 507.551 326.829 507.754 327.032C507.958 327.235 508.233 327.349 508.521 327.349C508.808 327.349 509.083 327.235 509.287 327.032C509.49 326.829 509.604 326.553 509.604 326.266V323.523H512.279C512.567 323.523 512.842 323.409 513.045 323.206C513.249 323.003 513.363 322.727 513.363 322.44C513.363 322.153 513.249 321.877 513.045 321.674C512.842 321.471 512.567 321.356 512.279 321.356Z" fill="#BDF3FF"/>
<path d="M752.576 394.205H690.669C687.818 394.205 685.506 396.517 685.506 399.368V445.103C685.506 447.954 687.818 450.266 690.669 450.266H752.576C755.427 450.266 757.739 447.954 757.739 445.103V399.368C757.739 396.517 755.427 394.205 752.576 394.205Z" fill="url(#paint77_linear_759_9113)"/>
<path d="M743.119 400.613H700.101C698.121 400.613 696.516 402.218 696.516 404.198V435.994C696.516 437.974 698.121 439.579 700.101 439.579H743.119C745.099 439.579 746.704 437.974 746.704 435.994V404.198C746.704 402.218 745.099 400.613 743.119 400.613Z" fill="url(#paint78_linear_759_9113)"/>
<path d="M745.581 445.184H697.626C697.331 445.184 697.049 445.067 696.841 444.858C696.633 444.65 696.516 444.368 696.516 444.073C696.519 443.781 696.638 443.502 696.845 443.297C697.053 443.092 697.334 442.977 697.626 442.977H745.581C745.873 442.977 746.153 443.092 746.361 443.297C746.569 443.502 746.687 443.781 746.691 444.073C746.691 444.368 746.574 444.65 746.366 444.858C746.158 445.067 745.875 445.184 745.581 445.184Z" fill="url(#paint79_linear_759_9113)"/>
<path d="M746.718 444.101C746.718 444.396 746.601 444.678 746.393 444.886C746.185 445.094 745.902 445.211 745.608 445.211H713.344V443.004H745.581C745.728 443.001 745.874 443.026 746.011 443.08C746.148 443.133 746.273 443.213 746.379 443.315C746.485 443.417 746.569 443.539 746.627 443.674C746.686 443.809 746.716 443.954 746.718 444.101Z" fill="url(#paint80_linear_759_9113)"/>
<path d="M713.343 447.03C714.976 447.03 716.299 445.706 716.299 444.073C716.299 442.441 714.976 441.117 713.343 441.117C711.71 441.117 710.387 442.441 710.387 444.073C710.387 445.706 711.71 447.03 713.343 447.03Z" fill="url(#paint81_linear_759_9113)"/>
<path d="M715.013 444.1C715.016 444.434 714.919 444.762 714.735 445.041C714.551 445.32 714.288 445.539 713.979 445.668C713.671 445.797 713.331 445.832 713.003 445.767C712.674 445.702 712.373 445.541 712.136 445.305C711.9 445.068 711.739 444.767 711.674 444.439C711.61 444.111 711.644 443.771 711.773 443.462C711.903 443.154 712.121 442.89 712.4 442.706C712.679 442.522 713.007 442.425 713.341 442.428C713.784 442.431 714.207 442.609 714.52 442.921C714.833 443.234 715.01 443.657 715.013 444.1Z" fill="url(#paint82_linear_759_9113)"/>
<path d="M717.127 412.651C717.003 412.676 716.891 412.743 716.811 412.84C716.73 412.938 716.686 413.06 716.685 413.186V424.811C716.204 424.625 715.688 424.546 715.173 424.579C714.659 424.611 714.157 424.754 713.702 424.998C712.084 425.8 711.255 427.432 711.856 428.65C712.301 429.267 712.966 429.689 713.713 429.828C714.46 429.968 715.233 429.814 715.869 429.399C716.503 429.147 717.039 428.697 717.396 428.116C717.753 427.535 717.912 426.854 717.849 426.175V415.407L728.136 413.481V422.43C727.654 422.248 727.138 422.17 726.624 422.203C726.11 422.235 725.608 422.376 725.153 422.617C723.534 423.419 722.705 425.065 723.307 426.269C723.751 426.886 724.416 427.308 725.163 427.447C725.91 427.587 726.683 427.433 727.32 427.018C727.954 426.766 728.489 426.316 728.846 425.735C729.203 425.154 729.362 424.473 729.3 423.794V411.006C729.299 410.927 729.281 410.848 729.247 410.776C729.213 410.704 729.163 410.641 729.102 410.59C729.041 410.539 728.97 410.502 728.893 410.482C728.816 410.461 728.736 410.457 728.657 410.471L717.127 412.651Z" fill="url(#paint83_linear_759_9113)"/>
<path d="M0.855469 511.934H762.622" stroke="url(#paint84_linear_759_9113)" stroke-miterlimit="10"/>
<defs>
<linearGradient id="paint0_linear_759_9113" x1="254805" y1="69479" x2="254805" y2="133293" gradientUnits="userSpaceOnUse">
<stop stop-color="#2E48CD"/>
<stop offset="1" stop-color="#1F237E"/>
</linearGradient>
<linearGradient id="paint1_linear_759_9113" x1="15872.6" y1="24625.1" x2="26933.9" y2="21540.2" gradientUnits="userSpaceOnUse">
<stop stop-color="#0A199C"/>
<stop offset="1" stop-color="#173EC8"/>
</linearGradient>
<linearGradient id="paint2_linear_759_9113" x1="19443.8" y1="-6169.38" x2="19020.1" y2="-7711.39" gradientUnits="userSpaceOnUse">
<stop stop-color="#2E3E9D"/>
<stop offset="1" stop-color="#79D3FD"/>
</linearGradient>
<linearGradient id="paint3_linear_759_9113" x1="188.166" y1="438.523" x2="287.551" y2="458.926" gradientUnits="userSpaceOnUse">
<stop stop-color="#44C1F8"/>
<stop offset="1" stop-color="#3027EF"/>
</linearGradient>
<linearGradient id="paint4_linear_759_9113" x1="12166.6" y1="9168.77" x2="13671.5" y2="10673.7" gradientUnits="userSpaceOnUse">
<stop stop-color="#F9DD68"/>
<stop offset="1" stop-color="#F9A942"/>
</linearGradient>
<linearGradient id="paint5_linear_759_9113" x1="5469.45" y1="6986.95" x2="6459.52" y2="7563.81" gradientUnits="userSpaceOnUse">
<stop stop-color="#F9DD68"/>
<stop offset="1" stop-color="#F9A942"/>
</linearGradient>
<linearGradient id="paint6_linear_759_9113" x1="-15406" y1="-124981" x2="-27821.4" y2="-124285" gradientUnits="userSpaceOnUse">
<stop stop-color="#0A199C"/>
<stop offset="1" stop-color="#173EC8"/>
</linearGradient>
<linearGradient id="paint7_linear_759_9113" x1="661.209" y1="511.934" x2="649.295" y2="511.823" gradientUnits="userSpaceOnUse">
<stop stop-color="#44C1F8"/>
<stop offset="1" stop-color="#3027EF"/>
</linearGradient>
<linearGradient id="paint8_linear_759_9113" x1="72968.5" y1="26364.4" x2="86444.8" y2="21201.3" gradientUnits="userSpaceOnUse">
<stop offset="0.21" stop-color="#113FE1"/>
</linearGradient>
<linearGradient id="paint9_linear_759_9113" x1="51271.4" y1="27136.7" x2="64343" y2="23410.6" gradientUnits="userSpaceOnUse">
<stop offset="0.04" stop-color="#2DADE2"/>
<stop offset="0.23" stop-color="#169AC7"/>
<stop offset="0.59" stop-color="#1FC3DF"/>
<stop offset="1" stop-color="#2AF6FF"/>
</linearGradient>
<linearGradient id="paint10_linear_759_9113" x1="577.655" y1="258.621" x2="611.489" y2="260.583" gradientUnits="userSpaceOnUse">
<stop stop-color="#44C4FA"/>
<stop offset="1" stop-color="#3027F2"/>
</linearGradient>
<linearGradient id="paint11_linear_759_9113" x1="27247.9" y1="10450.7" x2="28986.9" y2="10450.7" gradientUnits="userSpaceOnUse">
<stop stop-color="#A6E5D4"/>
<stop offset="1" stop-color="#79D3FD"/>
</linearGradient>
<linearGradient id="paint12_linear_759_9113" x1="16268.9" y1="6416.65" x2="16792.2" y2="6416.65" gradientUnits="userSpaceOnUse">
<stop stop-color="#A6E5D4"/>
<stop offset="1" stop-color="#79D3FD"/>
</linearGradient>
<linearGradient id="paint13_linear_759_9113" x1="30979.7" y1="8832.53" x2="33201.6" y2="8832.53" gradientUnits="userSpaceOnUse">
<stop stop-color="#A6E5D4"/>
<stop offset="1" stop-color="#79D3FD"/>
</linearGradient>
<linearGradient id="paint14_linear_759_9113" x1="25403.8" y1="4743.8" x2="26863.1" y2="4743.8" gradientUnits="userSpaceOnUse">
<stop stop-color="#A6E5D4"/>
<stop offset="1" stop-color="#79D3FD"/>
</linearGradient>
<linearGradient id="paint15_linear_759_9113" x1="16435.8" y1="3791.11" x2="16960.7" y2="3791.11" gradientUnits="userSpaceOnUse">
<stop stop-color="#A6E5D4"/>
<stop offset="1" stop-color="#79D3FD"/>
</linearGradient>
<linearGradient id="paint16_linear_759_9113" x1="692.381" y1="292.986" x2="679.992" y2="289.022" gradientUnits="userSpaceOnUse">
<stop stop-color="white"/>
<stop offset="1" stop-color="#E2F5FF"/>
</linearGradient>
<linearGradient id="paint17_linear_759_9113" x1="-388.083" y1="640.885" x2="-248.664" y2="640.885" gradientUnits="userSpaceOnUse">
<stop stop-color="white"/>
<stop offset="1" stop-color="#E2F5FF"/>
</linearGradient>
<linearGradient id="paint18_linear_759_9113" x1="-392.447" y1="645.76" x2="-253.028" y2="645.76" gradientUnits="userSpaceOnUse">
<stop stop-color="white"/>
<stop offset="1" stop-color="#E2F5FF"/>
</linearGradient>
<linearGradient id="paint19_linear_759_9113" x1="146.524" y1="650.55" x2="181.493" y2="650.55" gradientUnits="userSpaceOnUse">
<stop stop-color="white"/>
<stop offset="1" stop-color="#E2F5FF"/>
</linearGradient>
<linearGradient id="paint20_linear_759_9113" x1="241.674" y1="719.598" x2="380.956" y2="719.598" gradientUnits="userSpaceOnUse">
<stop stop-color="white"/>
<stop offset="1" stop-color="#E2F5FF"/>
</linearGradient>
<linearGradient id="paint21_linear_759_9113" x1="237.328" y1="724.461" x2="376.61" y2="724.461" gradientUnits="userSpaceOnUse">
<stop stop-color="white"/>
<stop offset="1" stop-color="#E2F5FF"/>
</linearGradient>
<linearGradient id="paint22_linear_759_9113" x1="232.607" y1="729.449" x2="372.026" y2="729.449" gradientUnits="userSpaceOnUse">
<stop stop-color="white"/>
<stop offset="1" stop-color="#E2F5FF"/>
</linearGradient>
<linearGradient id="paint23_linear_759_9113" x1="418.609" y1="734.147" x2="453.578" y2="734.147" gradientUnits="userSpaceOnUse">
<stop stop-color="white"/>
<stop offset="1" stop-color="#E2F5FF"/>
</linearGradient>
<linearGradient id="paint24_linear_759_9113" x1="369.385" y1="609.339" x2="508.771" y2="609.339" gradientUnits="userSpaceOnUse">
<stop stop-color="white"/>
<stop offset="1" stop-color="#E2F5FF"/>
</linearGradient>
<linearGradient id="paint25_linear_759_9113" x1="364.898" y1="614.106" x2="504.42" y2="614.106" gradientUnits="userSpaceOnUse">
<stop stop-color="white"/>
<stop offset="1" stop-color="#E2F5FF"/>
</linearGradient>
<linearGradient id="paint26_linear_759_9113" x1="488.094" y1="619.029" x2="523.011" y2="619.029" gradientUnits="userSpaceOnUse">
<stop stop-color="white"/>
<stop offset="1" stop-color="#E2F5FF"/>
</linearGradient>
<linearGradient id="paint27_linear_759_9113" x1="379.839" y1="357.673" x2="379.839" y2="141.576" gradientUnits="userSpaceOnUse">
<stop stop-color="#8AFFFF"/>
<stop offset="1" stop-color="#79D3FD" stop-opacity="0"/>
</linearGradient>
<linearGradient id="paint28_linear_759_9113" x1="379.838" y1="357.673" x2="379.838" y2="141.576" gradientUnits="userSpaceOnUse">
<stop stop-color="#8AFFFF"/>
<stop offset="1" stop-color="#79D3FD" stop-opacity="0"/>
</linearGradient>
<linearGradient id="paint29_linear_759_9113" x1="44833.1" y1="35253.9" x2="56798.9" y2="32946.6" gradientUnits="userSpaceOnUse">
<stop offset="0.04" stop-color="#2DADE2"/>
<stop offset="0.23" stop-color="#169AC7"/>
<stop offset="0.59" stop-color="#1FC3DF"/>
<stop offset="1" stop-color="#2AF6FF"/>
</linearGradient>
<linearGradient id="paint30_linear_759_9113" x1="26904.8" y1="29109.8" x2="34213.4" y2="28268.9" gradientUnits="userSpaceOnUse">
<stop offset="1" stop-color="#78F9FF"/>
</linearGradient>
<linearGradient id="paint31_linear_759_9113" x1="67920.2" y1="4490.98" x2="70282.8" y2="-849.278" gradientUnits="userSpaceOnUse">
<stop offset="0.21" stop-color="#113FE1"/>
</linearGradient>
<linearGradient id="paint32_linear_759_9113" x1="312.903" y1="376.922" x2="336.472" y2="394.531" gradientUnits="userSpaceOnUse">
<stop stop-color="#44C1F8"/>
<stop offset="1" stop-color="#3027EF"/>
</linearGradient>
<linearGradient id="paint33_linear_759_9113" x1="-nan" y1="-nan" x2="-nan" y2="-nan" gradientUnits="userSpaceOnUse">
<stop stop-color="#79D3FD"/>
<stop offset="1" stop-color="white"/>
</linearGradient>
<linearGradient id="paint34_linear_759_9113" x1="-nan" y1="-nan" x2="-nan" y2="-nan" gradientUnits="userSpaceOnUse">
<stop stop-color="#79D3FD"/>
<stop offset="1" stop-color="white"/>
</linearGradient>
<linearGradient id="paint35_linear_759_9113" x1="-nan" y1="-nan" x2="-nan" y2="-nan" gradientUnits="userSpaceOnUse">
<stop stop-color="#79D3FD"/>
<stop offset="1" stop-color="white"/>
</linearGradient>
<linearGradient id="paint36_linear_759_9113" x1="44485.6" y1="25229.4" x2="41671.4" y2="30554.5" gradientUnits="userSpaceOnUse">
<stop stop-color="#F9DD68"/>
<stop offset="1" stop-color="#F9A942"/>
</linearGradient>
<linearGradient id="paint37_linear_759_9113" x1="38886.6" y1="27192.3" x2="49324.5" y2="27192.3" gradientUnits="userSpaceOnUse">
<stop stop-color="#F9DD68"/>
<stop offset="1" stop-color="#F9A942"/>
</linearGradient>
<linearGradient id="paint38_linear_759_9113" x1="34976.4" y1="24085.7" x2="43143.9" y2="24085.7" gradientUnits="userSpaceOnUse">
<stop stop-color="#F9DD68"/>
<stop offset="1" stop-color="#F9A942"/>
</linearGradient>
<linearGradient id="paint39_linear_759_9113" x1="10583.4" y1="6378.14" x2="11842" y2="7093.11" gradientUnits="userSpaceOnUse">
<stop stop-color="#F9DD68"/>
<stop offset="1" stop-color="#F9A942"/>
</linearGradient>
<linearGradient id="paint40_linear_759_9113" x1="9223.94" y1="5977.3" x2="10360.3" y2="6547.72" gradientUnits="userSpaceOnUse">
<stop stop-color="#F9DD68"/>
<stop offset="1" stop-color="#F9A942"/>
</linearGradient>
<linearGradient id="paint41_linear_759_9113" x1="8957.95" y1="5867.59" x2="10070" y2="6393.58" gradientUnits="userSpaceOnUse">
<stop stop-color="#F9DD68"/>
<stop offset="1" stop-color="#F9A942"/>
</linearGradient>
<linearGradient id="paint42_linear_759_9113" x1="4140.32" y1="2154.8" x2="4237.88" y2="2154.8" gradientUnits="userSpaceOnUse">
<stop stop-color="#F9DD68"/>
<stop offset="1" stop-color="#F9A942"/>
</linearGradient>
<linearGradient id="paint43_linear_759_9113" x1="5294.86" y1="4534.83" x2="5454.95" y2="4534.83" gradientUnits="userSpaceOnUse">
<stop stop-color="#F9DD68"/>
<stop offset="1" stop-color="#F9A942"/>
</linearGradient>
<linearGradient id="paint44_linear_759_9113" x1="2606.6" y1="1777.06" x2="2628.38" y2="1777.06" gradientUnits="userSpaceOnUse">
<stop stop-color="#F9DD68"/>
<stop offset="1" stop-color="#F9A942"/>
</linearGradient>
<linearGradient id="paint45_linear_759_9113" x1="2050" y1="1686.99" x2="2064.7" y2="1686.99" gradientUnits="userSpaceOnUse">
<stop stop-color="#F9DD68"/>
<stop offset="1" stop-color="#F9A942"/>
</linearGradient>
<linearGradient id="paint46_linear_759_9113" x1="1706.17" y1="1193.02" x2="1720.87" y2="1193.02" gradientUnits="userSpaceOnUse">
<stop stop-color="#F9DD68"/>
<stop offset="1" stop-color="#F9A942"/>
</linearGradient>
<linearGradient id="paint47_linear_759_9113" x1="2167.18" y1="954.198" x2="2181.88" y2="954.198" gradientUnits="userSpaceOnUse">
<stop stop-color="#F9DD68"/>
<stop offset="1" stop-color="#F9A942"/>
</linearGradient>
<linearGradient id="paint48_linear_759_9113" x1="3069.94" y1="2274.28" x2="3103.38" y2="2274.28" gradientUnits="userSpaceOnUse">
<stop stop-color="#F9DD68"/>
<stop offset="1" stop-color="#F9A942"/>
</linearGradient>
<linearGradient id="paint49_linear_759_9113" x1="3287.75" y1="1621.5" x2="3321.39" y2="1621.5" gradientUnits="userSpaceOnUse">
<stop stop-color="#F9DD68"/>
<stop offset="1" stop-color="#F9A942"/>
</linearGradient>
<linearGradient id="paint50_linear_759_9113" x1="570.535" y1="506.408" x2="599.188" y2="506.408" gradientUnits="userSpaceOnUse">
<stop stop-color="#00FFFF"/>
<stop offset="1" stop-color="#5793FB"/>
</linearGradient>
<linearGradient id="paint51_linear_759_9113" x1="13863.8" y1="6993.89" x2="14462.1" y2="6993.89" gradientUnits="userSpaceOnUse">
<stop stop-color="#00FFFF"/>
<stop offset="1" stop-color="#5793FB"/>
</linearGradient>
<linearGradient id="paint52_linear_759_9113" x1="544.076" y1="359.709" x2="544.076" y2="470.092" gradientUnits="userSpaceOnUse">
<stop stop-color="#00004F"/>
<stop offset="1" stop-color="#000079"/>
</linearGradient>
<linearGradient id="paint53_linear_759_9113" x1="558.243" y1="388.213" x2="558.243" y2="429.413" gradientUnits="userSpaceOnUse">
<stop stop-color="#00006C"/>
<stop offset="1" stop-color="#3049B9"/>
</linearGradient>
<linearGradient id="paint54_linear_759_9113" x1="22000.2" y1="46315.1" x2="22000.2" y2="59168.5" gradientUnits="userSpaceOnUse">
<stop stop-color="#00004F"/>
<stop offset="1" stop-color="#000079"/>
</linearGradient>
<linearGradient id="paint55_linear_759_9113" x1="579.899" y1="219.845" x2="579.899" y2="259.225" gradientUnits="userSpaceOnUse">
<stop stop-color="#00B5FF"/>
<stop offset="1" stop-color="#3049B9"/>
</linearGradient>
<linearGradient id="paint56_linear_759_9113" x1="559.591" y1="359.654" x2="559.591" y2="279.502" gradientUnits="userSpaceOnUse">
<stop stop-color="#7995FD"/>
<stop offset="1" stop-color="#54DEFF"/>
</linearGradient>
<linearGradient id="paint57_linear_759_9113" x1="13856.4" y1="8703.69" x2="13524.5" y2="8154.56" gradientUnits="userSpaceOnUse">
<stop stop-color="#7995FD"/>
<stop offset="1" stop-color="#54DEFF"/>
</linearGradient>
<linearGradient id="paint58_linear_759_9113" x1="500.73" y1="212.688" x2="518.502" y2="204.96" gradientUnits="userSpaceOnUse">
<stop stop-color="#44C1F8"/>
<stop offset="1" stop-color="#3027EF"/>
</linearGradient>
<linearGradient id="paint59_linear_759_9113" x1="9786.68" y1="48212.6" x2="13634.2" y2="62886.4" gradientUnits="userSpaceOnUse">
<stop stop-color="#00006C"/>
<stop offset="1" stop-color="#5793FB"/>
</linearGradient>
<linearGradient id="paint60_linear_759_9113" x1="11024" y1="45544.3" x2="13921.6" y2="59852.3" gradientUnits="userSpaceOnUse">
<stop stop-color="#00006C"/>
<stop offset="1" stop-color="#5793FB"/>
</linearGradient>
<linearGradient id="paint61_linear_759_9113" x1="7939.53" y1="4363.06" x2="7395.24" y2="4690.79" gradientUnits="userSpaceOnUse">
<stop stop-color="#00006C"/>
<stop offset="1" stop-color="#3049B9"/>
</linearGradient>
<linearGradient id="paint62_linear_759_9113" x1="6808.2" y1="5629.61" x2="7234.88" y2="5449.39" gradientUnits="userSpaceOnUse">
<stop stop-color="#00FFFF"/>
<stop offset="1" stop-color="#5793FB"/>
</linearGradient>
<linearGradient id="paint63_linear_759_9113" x1="4978.63" y1="7073.63" x2="5325.33" y2="7380.92" gradientUnits="userSpaceOnUse">
<stop stop-color="#00FFFF"/>
<stop offset="1" stop-color="#5793FB"/>
</linearGradient>
<linearGradient id="paint64_linear_759_9113" x1="179.513" y1="232.805" x2="173.306" y2="273.737" gradientUnits="userSpaceOnUse">
<stop stop-color="#000051"/>
<stop offset="1" stop-color="#30389C"/>
</linearGradient>
<linearGradient id="paint65_linear_759_9113" x1="8247.95" y1="10630.8" x2="7963.64" y2="12083.7" gradientUnits="userSpaceOnUse">
<stop stop-color="#000051"/>
<stop offset="1" stop-color="#30389C"/>
</linearGradient>
<linearGradient id="paint66_linear_759_9113" x1="10130" y1="14315.2" x2="10130" y2="12881" gradientUnits="userSpaceOnUse">
<stop stop-color="#7995FD"/>
<stop offset="1" stop-color="#54DEFF"/>
</linearGradient>
<linearGradient id="paint67_linear_759_9113" x1="11889.6" y1="30028.4" x2="11889.6" y2="24428.5" gradientUnits="userSpaceOnUse">
<stop stop-color="#7995FD"/>
<stop offset="1" stop-color="#54DEFF"/>
</linearGradient>
<linearGradient id="paint68_linear_759_9113" x1="175.06" y1="348.664" x2="151.036" y2="300.241" gradientUnits="userSpaceOnUse">
<stop stop-color="#160EC0"/>
<stop offset="1" stop-color="#5451FF"/>
</linearGradient>
<linearGradient id="paint69_linear_759_9113" x1="6045.52" y1="17951.7" x2="6045.52" y2="16429.3" gradientUnits="userSpaceOnUse">
<stop stop-color="#7995FD"/>
<stop offset="1" stop-color="#54DEFF"/>
</linearGradient>
<linearGradient id="paint70_linear_759_9113" x1="12.2252" y1="235.842" x2="44.5851" y2="221.559" gradientUnits="userSpaceOnUse">
<stop stop-color="#44C1F8"/>
<stop offset="1" stop-color="#3027EF"/>
</linearGradient>
<linearGradient id="paint71_linear_759_9113" x1="3729.4" y1="8755.17" x2="4675.15" y2="8755.17" gradientUnits="userSpaceOnUse">
<stop stop-color="#8AFFFF"/>
<stop offset="1" stop-color="#79D3FD"/>
</linearGradient>
<linearGradient id="paint72_linear_759_9113" x1="16798.1" y1="19361.9" x2="19926.4" y2="19361.9" gradientUnits="userSpaceOnUse">
<stop stop-color="#2C89FB"/>
<stop offset="1" stop-color="#0059FF"/>
</linearGradient>
<linearGradient id="paint73_linear_759_9113" x1="227.542" y1="362.463" x2="238.371" y2="363.08" gradientUnits="userSpaceOnUse">
<stop stop-color="#44C1F8"/>
<stop offset="1" stop-color="#3027EF"/>
</linearGradient>
<linearGradient id="paint74_linear_759_9113" x1="241.902" y1="349.576" x2="253.221" y2="350.036" gradientUnits="userSpaceOnUse">
<stop stop-color="#44C1F8"/>
<stop offset="1" stop-color="#3027EF"/>
</linearGradient>
<linearGradient id="paint75_linear_759_9113" x1="3436.27" y1="3898.7" x2="3571.63" y2="4034.06" gradientUnits="userSpaceOnUse">
<stop stop-color="#F9DD68"/>
<stop offset="1" stop-color="#F9A942"/>
</linearGradient>
<linearGradient id="paint76_linear_759_9113" x1="8304.14" y1="5869.32" x2="10494" y2="5378.33" gradientUnits="userSpaceOnUse">
<stop offset="0.04" stop-color="#2DADE2"/>
<stop offset="0.23" stop-color="#169AC7"/>
<stop offset="0.59" stop-color="#1FC3DF"/>
<stop offset="1" stop-color="#2AF6FF"/>
</linearGradient>
<linearGradient id="paint77_linear_759_9113" x1="44258" y1="19050.7" x2="46969.1" y2="22543.8" gradientUnits="userSpaceOnUse">
<stop stop-color="#2C89FB"/>
<stop offset="1" stop-color="#0059FF"/>
</linearGradient>
<linearGradient id="paint78_linear_759_9113" x1="31367.4" y1="13613.1" x2="32676.9" y2="15299.9" gradientUnits="userSpaceOnUse">
<stop stop-color="#F9DD68"/>
<stop offset="1" stop-color="#F9A942"/>
</linearGradient>
<linearGradient id="paint79_linear_759_9113" x1="31718.4" y1="1246.74" x2="31722.5" y2="1338.69" gradientUnits="userSpaceOnUse">
<stop stop-color="#10274A"/>
<stop offset="1" stop-color="#00347F"/>
</linearGradient>
<linearGradient id="paint80_linear_759_9113" x1="21663.8" y1="1254.44" x2="21667.9" y2="1317.16" gradientUnits="userSpaceOnUse">
<stop stop-color="white"/>
<stop offset="1" stop-color="#79D3FD"/>
</linearGradient>
<linearGradient id="paint81_linear_759_9113" x1="4382.76" y1="2647.7" x2="4402.98" y2="2667.92" gradientUnits="userSpaceOnUse">
<stop stop-color="#10274A"/>
<stop offset="1" stop-color="#00347F"/>
</linearGradient>
<linearGradient id="paint82_linear_759_9113" x1="2808.03" y1="1703.07" x2="2814.54" y2="1709.61" gradientUnits="userSpaceOnUse">
<stop stop-color="white"/>
<stop offset="1" stop-color="#79D3FD"/>
</linearGradient>
<linearGradient id="paint83_linear_759_9113" x1="11721.8" y1="7247.98" x2="11919.7" y2="7428.12" gradientUnits="userSpaceOnUse">
<stop stop-color="#10274A"/>
<stop offset="1" stop-color="#00347F"/>
</linearGradient>
<linearGradient id="paint84_linear_759_9113" x1="-nan" y1="-nan" x2="-nan" y2="-nan" gradientUnits="userSpaceOnUse">
<stop stop-color="#2EFFFF"/>
<stop offset="1" stop-color="#79D3FD"/>
</linearGradient>
</defs>
</svg>
