<svg width="42" height="42" viewBox="0 0 42 42" fill="none" xmlns="http://www.w3.org/2000/svg">
<path d="M20.2197 40.4394C30.8344 40.4394 39.4394 31.8344 39.4394 21.2197C39.4394 10.605 30.8344 2 20.2197 2C9.60496 2 1 10.605 1 21.2197C1 31.8344 9.60496 40.4394 20.2197 40.4394Z" fill="white" stroke="url(#paint0_linear_1316_9396)" stroke-width="2" stroke-miterlimit="10"/>
<path d="M28.3564 12.0674H12.0869C11.6376 12.0674 11.2734 12.4316 11.2734 12.8809V29.1503C11.2734 29.5996 11.6376 29.9638 12.0869 29.9638H28.3564C28.8057 29.9638 29.1699 29.5996 29.1699 29.1503V12.8809C29.1699 12.4316 28.8057 12.0674 28.3564 12.0674Z" stroke="#220970" stroke-width="2" stroke-linecap="round" stroke-linejoin="round"/>
<path d="M19.4102 19.3887V25.8965" stroke="#220970" stroke-width="2" stroke-linecap="round" stroke-linejoin="round"/>
<path d="M19.4102 22.2358C19.4102 21.4807 19.7101 20.7565 20.2441 20.2226C20.778 19.6886 21.5022 19.3887 22.2573 19.3887C23.0124 19.3887 23.7366 19.6886 24.2706 20.2226C24.8045 20.7565 25.1045 21.4807 25.1045 22.2358V25.8965" stroke="#220970" stroke-width="2" stroke-linecap="round" stroke-linejoin="round"/>
<path d="M16.1562 19.3887V25.8965" stroke="#220970" stroke-width="2" stroke-linecap="round" stroke-linejoin="round"/>
<path d="M16.1558 17.3545C16.8297 17.3545 17.376 16.8082 17.376 16.1343C17.376 15.4604 16.8297 14.9141 16.1558 14.9141C15.4819 14.9141 14.9355 15.4604 14.9355 16.1343C14.9355 16.8082 15.4819 17.3545 16.1558 17.3545Z" fill="#220970"/>
<defs>
<linearGradient id="paint0_linear_1316_9396" x1="0.825279" y1="2.00001" x2="15.7304" y2="-2.58119" gradientUnits="userSpaceOnUse">
<stop stop-color="white"/>
</linearGradient>
</defs>
</svg>
