<svg width="813" height="788" viewBox="0 0 813 788" fill="none" xmlns="http://www.w3.org/2000/svg">
<path style="mix-blend-mode:hard-light" opacity="0.5" d="M706.888 467.857C377.342 495.689 157.685 638.791 88.4111 690.266" stroke="url(#paint0_linear_668_28473)" stroke-width="1.05" stroke-miterlimit="10" stroke-linecap="round"/>
<path opacity="0.1" d="M642.945 420.155C313.399 447.987 93.7424 591.235 24.3707 642.564C14.85 649.625 0.824767 642.077 0.824767 629.926V331.645C0.780481 327.435 1.70112 323.271 3.51608 319.472C5.33105 315.674 7.99208 312.341 11.295 309.73C61.7715 270.138 292.459 104.562 651.882 76.6327C653.979 76.5039 656.08 76.8025 658.058 77.5103C660.036 78.2181 661.85 79.3205 663.389 80.7504C664.929 82.1804 666.161 83.9082 667.013 85.8289C667.864 87.7497 668.316 89.8234 668.342 91.9242V392.519C668.411 399.489 665.824 406.225 661.107 411.358C656.391 416.491 649.897 419.636 642.945 420.155Z" fill="url(#paint1_linear_668_28473)"/>
<path opacity="0.2" d="M674.99 435.64C345.444 463.496 125.788 606.598 56.5132 658.049C46.9926 665.11 32.9672 657.586 32.9672 645.411V347.13C32.9248 342.92 33.8462 338.757 35.6611 334.959C37.4759 331.16 40.136 327.827 43.4376 325.215C93.9141 285.623 324.601 120.047 684.024 92.1421C686.12 92.0098 688.221 92.3052 690.199 93.0103C692.177 93.7153 693.991 94.8153 695.53 96.2434C697.07 97.6714 698.303 99.3977 699.155 101.317C700.007 103.237 700.459 105.309 700.484 107.409V408.028C700.551 415.012 697.95 421.758 693.213 426.889C688.475 432.021 681.957 435.151 674.99 435.64Z" fill="url(#paint2_linear_668_28473)"/>
<path opacity="0.5" d="M706.887 451.152C377.341 478.983 157.684 622.085 88.4101 673.56C78.8894 680.597 64.8641 673.073 64.8641 660.923V362.617C64.8161 358.407 65.7352 354.241 67.5504 350.442C69.3657 346.643 72.0287 343.311 75.3344 340.703C125.811 301.11 356.498 135.509 715.921 107.605C718.019 107.473 720.122 107.769 722.101 108.475C724.081 109.182 725.896 110.284 727.436 111.715C728.976 113.145 730.209 114.874 731.059 116.797C731.909 118.719 732.359 120.795 732.381 122.896V423.515C732.448 430.502 729.848 437.25 725.111 442.386C720.374 447.521 713.856 450.656 706.887 451.152Z" fill="url(#paint3_linear_668_28473)"/>
<g opacity="0.5">
<path opacity="0.5" d="M122.111 518.211L57 565.424V554.589L122.111 507.375V518.211Z" fill="url(#paint4_linear_668_28473)"/>
<path opacity="0.5" d="M127.856 680.453L51.2285 736.018V565.767L127.856 510.201V680.453Z" fill="url(#paint5_linear_668_28473)"/>
<path opacity="0.5" d="M104.846 515.484L74.2627 537.666V531.238L104.846 509.08V515.484Z" fill="url(#paint6_linear_668_28473)"/>
<path opacity="0.5" d="M112.954 514.022L66.1543 547.965V542.535L112.954 508.592V514.022Z" fill="url(#paint7_linear_668_28473)"/>
</g>
<g opacity="0.5">
<path opacity="0.5" d="M668.757 333.376V328.214L662.012 329.407V307.079L660.502 307.347V301.357L657.799 301.844V301.795V295.61V295.586L654.317 296.219V291.057V291.008L652.613 291.325V291.349L650.665 291.69V291.666V287.697L648.96 287.989L647.524 288.232V285.262V285.213L645.357 285.602V285.578V263.274L642.849 263.737V256.407L641.144 256.724L639.683 256.967L637.93 196.094L636.201 257.601L634.74 257.868L633.036 258.161V265.49L632.232 265.612L630.528 265.928V288.257L628.361 288.646V288.671V291.666L626.924 291.909L625.22 292.226V296.219V296.243L623.272 296.584V296.56L621.567 296.852V296.901V302.063L618.085 302.672V302.696V308.881V308.929L615.188 309.441V315.455L613.873 315.674V338.003L607.128 339.22V344.382L609.709 343.92V370.874L607.128 371.337V558.073L610.439 557.489L613.069 557.026L613.946 556.856L616.965 556.32L619.619 555.858L620.496 555.687L623.515 555.151L626.048 554.713L627.021 554.518L629.992 554.007L631.745 553.69L633.791 553.325L634.472 553.203L636.834 552.765L638.88 552.424L639.561 552.278L641.899 551.864L643.871 551.523L644.65 551.377L645.04 551.304L646.16 551.109L646.355 551.085L649.472 550.525L652.126 550.038L653.002 549.892L656.022 549.356L658.651 548.894L659.528 548.723L662.547 548.187L665.08 547.725L666.078 547.554L668.757 547.092V360.331L666.516 360.745V333.766L668.757 333.376Z" fill="url(#paint8_linear_668_28473)"/>
<path opacity="0.5" d="M662.012 307.08L630.139 312.778V553.96L668.757 547.093V360.332L666.517 360.746V333.767L668.757 333.378V328.215L662.012 329.409V307.08Z" fill="url(#paint9_linear_668_28473)"/>
</g>
<g opacity="0.7">
<path opacity="0.7" d="M311.794 385.457V347.155V339.388L305.877 342.091L305.804 342.115V336.149L300.861 338.39V334.299L266.87 349.834V353.949L261.367 356.457V362.447L255.352 365.174V372.942V372.966V411.268L249.387 413.995V414.068H249.338V638.205H249.387L250.044 637.888L252.357 636.841L253.039 636.525L255.352 635.478L256.034 635.161L258.347 634.09L259.053 633.773L261.367 632.726L262.048 632.41L264.094 631.46L264.775 631.144L266.845 630.218L267.527 629.902L269.572 628.976L270.254 628.66L272.324 627.71L273.006 627.394L275.051 626.468L275.733 626.152L277.802 625.202L278.484 624.886L280.53 623.96L281.211 623.644L283.281 622.694L283.963 622.378L286.008 621.452L286.69 621.136L288.76 620.186L289.442 619.87L291.487 618.944L292.169 618.628L294.238 617.703L294.92 617.386L296.966 616.436L297.647 616.12L299.717 615.195L300.399 614.878L302.444 613.928L303.126 613.612L305.196 612.687L305.877 612.37L307.996 611.396L308.678 611.08L310.991 610.033L311.673 609.716L313.986 608.669L314.668 608.352L317.005 607.281L317.687 606.965V382.827V382.779L311.794 385.457Z" fill="url(#paint10_linear_668_28473)"/>
<path opacity="0.7" d="M311.794 385.481V339.387L305.804 342.114V336.148L280.797 347.568L270.059 352.487V368.972V415.528V628.756L317.662 606.988V432.548V382.778L311.794 385.481Z" fill="url(#paint11_linear_668_28473)"/>
<path opacity="0.7" d="M282.964 301.111L278.752 344.405L282.964 342.481L287.153 340.558L282.964 301.111Z" fill="url(#paint12_linear_668_28473)"/>
</g>
<path d="M542.358 226.822L545.451 187.156L548.567 225.482L542.358 226.822Z" fill="url(#paint13_linear_668_28473)"/>
<path d="M564.222 242.796L526.383 250.953V239.509L564.222 231.352V242.796Z" fill="url(#paint14_linear_668_28473)"/>
<path d="M583.144 567.958L507.782 584.223V254.044L545.5 240.919L583.144 237.803V567.958Z" fill="url(#paint15_linear_668_28473)"/>
<path d="M507.782 254.044V584.223L545.5 240.92L507.782 254.044Z" fill="url(#paint16_linear_668_28473)"/>
<path d="M555.165 223.826L535.077 228.16V237.632L555.165 233.298V223.826Z" fill="url(#paint17_linear_668_28473)"/>
<path d="M583.143 237.803L545.499 240.919L583.143 567.958V237.803Z" fill="url(#paint18_linear_668_28473)"/>
<path d="M507.782 584.223L525.996 418.476L565.004 410.051L583.241 567.957L507.782 584.223Z" fill="url(#paint19_linear_668_28473)"/>
<g opacity="0.5">
<path opacity="0.5" d="M733.062 303.888L690.719 309.123V302.086L733.062 296.826V303.888Z" fill="url(#paint20_linear_668_28473)"/>
<path opacity="0.5" d="M736.812 485.997L686.969 492.181V307.101L736.812 300.916V485.997Z" fill="url(#paint21_linear_668_28473)"/>
<path opacity="0.5" d="M721.839 295.973L701.945 298.433V294.244L721.839 291.785V295.973Z" fill="url(#paint22_linear_668_28473)"/>
<path opacity="0.5" d="M727.099 297.579L696.662 301.354V297.823L727.099 294.049V297.579Z" fill="url(#paint23_linear_668_28473)"/>
</g>
<path d="M121.308 695.963L138.06 685.906L147.337 405.619L121.308 436.981V695.963Z" fill="url(#paint24_linear_668_28473)"/>
<path d="M147.337 405.619L121.308 695.963L138.06 685.906L171.589 665.794V406.837L147.337 405.619Z" fill="url(#paint25_linear_668_28473)"/>
<path d="M171.588 406.837L147.336 405.619L171.588 665.794V406.837Z" fill="url(#paint26_linear_668_28473)"/>
<g opacity="0.4">
<path opacity="0.4" d="M456.162 337.808V312.338L448.613 315.041V252.414L441.016 255.214V247.106L435.489 249.054C435.489 249.054 435.489 248.932 435.489 248.883C435.489 241.871 425.189 239.874 412.503 244.403C399.817 248.932 389.493 258.258 389.493 265.246C389.493 265.246 389.493 265.246 389.493 265.417L383.99 267.389V275.498L376.295 278.249V288.817V340.876L368.625 343.603V368.975L365.021 370.266V417.406V566.547L368.625 565.257L369.477 564.94L372.424 563.893L373.325 563.576L376.295 562.529L377.172 562.213L380.142 561.142L381.019 560.825L383.99 559.778L384.866 559.461L387.496 558.536L388.373 558.22L391.002 557.27L391.903 556.953L394.533 556.028L395.41 555.712L398.039 554.786L398.916 554.47L401.546 553.52L402.422 553.204L405.052 552.278L405.953 551.962L408.583 551.012L409.459 550.72L412.016 549.843L412.893 549.527L415.522 548.601L416.399 548.285L419.029 547.335L419.93 547.019L422.559 546.093L423.436 545.777L426.066 544.852L426.942 544.535L429.572 543.585L430.449 543.269L433.078 542.344L433.979 542.027L436.609 541.102L437.486 540.785L440.115 539.836L440.992 539.519L443.695 538.569L444.571 538.253L447.542 537.182L448.443 536.889L451.389 535.818L452.29 535.501L455.236 534.454L456.137 534.138L459.911 532.799V336.542L456.162 337.808Z" fill="url(#paint27_linear_668_28473)"/>
<path opacity="0.4" d="M402.374 260.742L383.942 267.317V275.449L376.247 278.176V340.803L368.577 343.53V369L364.925 370.291V566.547L402.374 553.204V260.742Z" fill="url(#paint28_linear_668_28473)"/>
<path opacity="0.4" d="M459.936 336.763V336.495L456.162 337.81V312.341L448.589 315.019V252.416L440.895 255.144V247.035L420.32 254.364L402.374 260.744V277.204V357.265V360.942V553.206L459.936 532.728V336.763Z" fill="url(#paint29_linear_668_28473)"/>
</g>
<path d="M238.405 484.562V446.235V438.468L232.488 442.315L232.415 442.364V436.374L227.472 439.564V435.473L222.115 432.648L198.861 447.696L193.48 457.485V461.6L187.977 465.179V471.145L181.963 475.041V482.808V521.11L175.997 524.982V525.055L175.973 525.079V658.782L175.997 658.758L176.654 658.344L178.968 656.834L179.649 656.396L181.963 654.886L182.644 654.448L184.958 652.938L185.664 652.5L187.977 650.99L188.659 650.552L190.704 649.213L191.386 648.775L193.456 647.46L194.137 646.997L196.183 645.682L196.865 645.22L198.934 643.905L199.616 643.466L201.661 642.127L202.343 641.689L204.413 640.35L205.095 639.911L207.14 638.572L207.822 638.134L209.891 636.795L210.573 636.356L212.619 635.041L213.3 634.579L215.37 633.264L216.052 632.801L218.097 631.486L218.779 631.024L220.849 629.709L221.531 629.271L223.576 627.931L224.258 627.493L226.327 626.154L227.009 625.716L229.055 624.376L229.761 623.938L231.806 622.599L232.488 622.161L234.606 620.797L235.288 620.359L237.601 618.849L238.283 618.411L240.596 616.901L241.302 616.463L243.616 614.953L244.297 614.515V480.812V480.739L238.405 484.562Z" fill="url(#paint30_linear_668_28473)"/>
<path d="M238.404 484.561V438.491L232.414 442.363V436.373L207.407 452.565L196.669 459.529V476.014V522.57V645.365L244.297 614.514V530.508V480.762L238.404 484.561Z" fill="url(#paint31_linear_668_28473)"/>
<path d="M697.223 348.789V336.005L692.474 336.614V329.114L688.238 329.626V322.15L672.313 324.123V331.598L668.101 332.134V339.633L663.328 340.218V352.977L660.333 353.366V510.737L700.217 505.794V348.423L697.223 348.789Z" fill="url(#paint32_linear_668_28473)"/>
<path d="M501.062 400.676V391.959L492.393 393.809V388.696L484.747 390.352V385.238L455.82 391.472V396.585L448.15 398.241V403.354L439.506 405.229V413.946L434.052 415.115V651.963L506.492 636.355V399.507L501.062 400.676Z" fill="url(#paint33_linear_668_28473)"/>
<path d="M484.746 390.351L492.392 388.695V393.809L501.06 391.958V400.675L506.49 399.506V636.354L465.193 645.242V394.564L484.746 390.351Z" fill="url(#paint34_linear_668_28473)"/>
<path d="M614.214 362.157V355.801L608.857 356.751V353.026L604.109 353.878V350.152L590.717 352.539L586.188 353.342V357.068L581.44 357.92V358.017V361.645L576.083 362.619V362.814V368.974L572.723 369.559V504.163L590.717 500.949L617.599 496.152V361.572L614.214 362.157Z" fill="url(#paint35_linear_668_28473)"/>
<path d="M604.109 353.878L608.857 353.025V356.751L614.214 355.801V362.156L617.598 361.572V496.152L591.35 500.851V356.142L604.109 353.878Z" fill="url(#paint36_linear_668_28473)"/>
<path d="M374.032 488.774L373.399 488.92L367.896 490.088V479.034L365.461 479.569V470.39L368.456 469.757V465.642L360.786 467.297V363.057L363.099 362.546V359.819L360.786 360.33L358.789 360.744V331.257L356.427 331.768V322.515L354.285 322.978V314.115L352.166 314.577V305.738L349.926 306.225V297.362L347.174 297.971V289.132L344.813 289.643V280.78L342.548 281.267V272.428L341.525 272.647L339.772 237.998L338.043 273.402L337.069 273.621V282.46L334.829 282.947V291.786L332.443 292.297V301.136L329.692 301.721V310.584L327.451 311.071V319.91L325.333 320.372V329.211L323.19 329.674V338.927L320.828 339.438V368.925L318.832 369.364L316.518 369.851V372.602L318.832 372.091V375.305V375.329V476.209V476.355L311.162 478.011V482.102L314.157 481.469V490.624L311.722 491.135V502.214L306.146 503.408L305.439 503.554V504.82L306.146 504.674V630.926L373.399 616.438V490.161L374.032 490.04V488.774Z" fill="url(#paint37_linear_668_28473)"/>
<path d="M358.788 331.256L336.508 336.077V624.399L373.397 616.437V490.161L374.03 490.039V488.773L367.894 490.088V479.033L365.459 479.569V470.389L368.454 469.756V465.641L360.784 467.297V363.056L363.097 362.545V359.818L358.788 360.743V331.256Z" fill="url(#paint38_linear_668_28473)"/>
<path d="M497.605 536.96L511.314 533.21L518.911 388.891L497.605 407.567V536.96Z" fill="url(#paint39_linear_668_28473)"/>
<path d="M518.911 388.891L497.605 536.96L511.314 533.21L538.756 525.735V396.366L518.911 388.891Z" fill="url(#paint40_linear_668_28473)"/>
<path d="M538.756 396.366L518.911 388.891L538.756 525.735V396.366Z" fill="url(#paint41_linear_668_28473)"/>
<path d="M360.745 488.163C352.564 475.676 346.213 477.219 344.061 479.552L345.675 492.469C354.107 496.236 368.926 500.65 360.745 488.163Z" fill="#FFDFC5"/>
<path d="M363.437 486.01C360.423 477.399 362.898 477.04 364.513 477.937L367.743 484.934C367.563 488.881 366.451 494.621 363.437 486.01Z" fill="#FFDFC5"/>
<path d="M432.347 212.382C432.347 212.864 432.205 213.335 431.937 213.735C431.67 214.135 431.289 214.448 430.844 214.632C430.399 214.816 429.91 214.864 429.437 214.77C428.965 214.676 428.531 214.445 428.191 214.104C427.85 213.763 427.618 213.33 427.524 212.857C427.43 212.385 427.479 211.895 427.663 211.45C427.847 211.005 428.159 210.625 428.56 210.358C428.96 210.09 429.431 209.947 429.913 209.947C430.558 209.947 431.178 210.204 431.634 210.66C432.091 211.117 432.347 211.736 432.347 212.382Z" fill="#77DEE8"/>
<path d="M668.173 152.945C668.173 153.706 667.947 154.45 667.525 155.082C667.102 155.715 666.501 156.208 665.798 156.499C665.095 156.79 664.321 156.867 663.575 156.718C662.829 156.57 662.143 156.203 661.605 155.665C661.067 155.127 660.701 154.442 660.552 153.695C660.404 152.949 660.48 152.176 660.771 151.473C661.063 150.77 661.556 150.169 662.188 149.746C662.821 149.323 663.565 149.098 664.326 149.098C665.346 149.098 666.325 149.503 667.046 150.224C667.768 150.946 668.173 151.925 668.173 152.945Z" fill="#77DEE8"/>
<path d="M605.739 254.507C605.739 254.989 605.596 255.46 605.329 255.86C605.061 256.26 604.681 256.573 604.236 256.757C603.791 256.941 603.301 256.989 602.829 256.895C602.357 256.801 601.923 256.57 601.582 256.229C601.242 255.888 601.01 255.455 600.916 254.982C600.822 254.51 600.87 254.02 601.054 253.575C601.239 253.13 601.551 252.75 601.951 252.483C602.352 252.215 602.822 252.072 603.304 252.072C603.95 252.072 604.569 252.329 605.026 252.785C605.482 253.242 605.739 253.861 605.739 254.507Z" fill="#77DEE8"/>
<path d="M233.438 381.097C233.438 381.579 233.295 382.049 233.028 382.45C232.76 382.85 232.38 383.162 231.935 383.347C231.49 383.531 231.001 383.579 230.528 383.485C230.056 383.391 229.622 383.159 229.281 382.819C228.941 382.478 228.709 382.044 228.615 381.572C228.521 381.1 228.569 380.61 228.754 380.165C228.938 379.72 229.25 379.34 229.651 379.072C230.051 378.805 230.522 378.662 231.003 378.662C231.649 378.662 232.268 378.919 232.725 379.375C233.182 379.832 233.438 380.451 233.438 381.097Z" fill="#77DEE8"/>
<path d="M237.673 315.404C237.673 315.885 237.53 316.356 237.262 316.756C236.995 317.157 236.614 317.469 236.169 317.653C235.725 317.838 235.235 317.886 234.763 317.792C234.29 317.698 233.856 317.466 233.516 317.125C233.175 316.785 232.943 316.351 232.85 315.879C232.756 315.406 232.804 314.917 232.988 314.472C233.172 314.027 233.484 313.647 233.885 313.379C234.285 313.112 234.756 312.969 235.238 312.969C235.883 312.969 236.503 313.225 236.959 313.682C237.416 314.139 237.673 314.758 237.673 315.404Z" fill="#77DEE8"/>
<path d="M712.757 160.613C712.757 161.094 712.614 161.565 712.346 161.965C712.079 162.366 711.698 162.678 711.253 162.862C710.809 163.047 710.319 163.095 709.847 163.001C709.374 162.907 708.94 162.675 708.6 162.334C708.259 161.994 708.027 161.56 707.934 161.088C707.84 160.615 707.888 160.126 708.072 159.681C708.256 159.236 708.568 158.856 708.969 158.588C709.369 158.321 709.84 158.178 710.322 158.178C710.967 158.178 711.587 158.434 712.043 158.891C712.5 159.348 712.757 159.967 712.757 160.613Z" fill="#77DEE8"/>
<path d="M611.268 185.79C611.268 186.272 611.126 186.743 610.858 187.143C610.59 187.544 610.21 187.856 609.765 188.04C609.32 188.224 608.831 188.273 608.358 188.179C607.886 188.085 607.452 187.853 607.111 187.512C606.771 187.172 606.539 186.738 606.445 186.265C606.351 185.793 606.399 185.304 606.584 184.859C606.768 184.414 607.08 184.033 607.481 183.766C607.881 183.498 608.352 183.355 608.833 183.355C609.479 183.355 610.098 183.612 610.555 184.069C611.012 184.525 611.268 185.145 611.268 185.79Z" fill="#77DEE8"/>
<path d="M371.427 309.753C371.427 310.235 371.284 310.706 371.016 311.106C370.749 311.507 370.368 311.819 369.923 312.003C369.478 312.187 368.989 312.235 368.517 312.141C368.044 312.048 367.61 311.816 367.27 311.475C366.929 311.135 366.697 310.701 366.603 310.228C366.509 309.756 366.558 309.266 366.742 308.822C366.926 308.377 367.238 307.996 367.639 307.729C368.039 307.461 368.51 307.318 368.992 307.318C369.637 307.318 370.257 307.575 370.713 308.032C371.17 308.488 371.427 309.108 371.427 309.753Z" fill="#77DEE8"/>
<path d="M150.553 364.103C150.553 364.585 150.41 365.055 150.142 365.456C149.875 365.856 149.494 366.168 149.049 366.353C148.604 366.537 148.115 366.585 147.642 366.491C147.17 366.397 146.736 366.165 146.396 365.825C146.055 365.484 145.823 365.05 145.729 364.578C145.635 364.106 145.684 363.616 145.868 363.171C146.052 362.726 146.364 362.346 146.765 362.078C147.165 361.811 147.636 361.668 148.118 361.668C148.763 361.668 149.383 361.924 149.839 362.381C150.296 362.838 150.553 363.457 150.553 364.103Z" fill="#77DEE8"/>
<path d="M511.094 155.38C511.094 155.862 510.951 156.333 510.683 156.733C510.416 157.133 510.035 157.446 509.59 157.63C509.145 157.814 508.656 157.862 508.184 157.768C507.711 157.674 507.277 157.443 506.937 157.102C506.596 156.761 506.364 156.328 506.27 155.855C506.176 155.383 506.225 154.893 506.409 154.448C506.593 154.004 506.905 153.623 507.306 153.356C507.706 153.088 508.177 152.945 508.659 152.945C509.304 152.945 509.924 153.202 510.38 153.658C510.837 154.115 511.094 154.734 511.094 155.38Z" fill="#77DEE8"/>
<path d="M172.44 317.765C172.44 318.247 172.297 318.717 172.03 319.118C171.762 319.518 171.382 319.83 170.937 320.015C170.492 320.199 170.003 320.247 169.53 320.153C169.058 320.059 168.624 319.827 168.283 319.487C167.943 319.146 167.711 318.712 167.617 318.24C167.523 317.768 167.571 317.278 167.756 316.833C167.94 316.388 168.252 316.008 168.653 315.74C169.053 315.473 169.524 315.33 170.005 315.33C170.651 315.33 171.27 315.587 171.727 316.043C172.184 316.5 172.44 317.119 172.44 317.765Z" fill="#77DEE8"/>
<path d="M199.859 420.376C199.859 420.858 199.716 421.329 199.449 421.729C199.181 422.13 198.801 422.442 198.356 422.626C197.911 422.81 197.421 422.859 196.949 422.765C196.477 422.671 196.043 422.439 195.702 422.098C195.362 421.758 195.13 421.324 195.036 420.851C194.942 420.379 194.99 419.89 195.175 419.445C195.359 419 195.671 418.619 196.071 418.352C196.472 418.084 196.943 417.941 197.424 417.941C198.07 417.941 198.689 418.198 199.146 418.655C199.603 419.111 199.859 419.731 199.859 420.376Z" fill="#77DEE8"/>
<path d="M99.6374 477.23C99.6374 477.711 99.4947 478.182 99.2271 478.583C98.9596 478.983 98.5793 479.295 98.1343 479.479C97.6894 479.664 97.1998 479.712 96.7275 479.618C96.2552 479.524 95.8213 479.292 95.4808 478.952C95.1402 478.611 94.9083 478.177 94.8144 477.705C94.7204 477.233 94.7687 476.743 94.9529 476.298C95.1372 475.853 95.4493 475.473 95.8497 475.205C96.2501 474.938 96.7209 474.795 97.2025 474.795C97.8483 474.795 98.4677 475.051 98.9243 475.508C99.3809 475.965 99.6374 476.584 99.6374 477.23Z" fill="#77DEE8"/>
<path d="M285.398 275.372C285.398 275.854 285.255 276.325 284.988 276.725C284.72 277.126 284.34 277.438 283.895 277.622C283.45 277.806 282.961 277.855 282.488 277.761C282.016 277.667 281.582 277.435 281.242 277.094C280.901 276.754 280.669 276.32 280.575 275.848C280.481 275.375 280.529 274.886 280.714 274.441C280.898 273.996 281.21 273.615 281.61 273.348C282.011 273.08 282.482 272.938 282.963 272.938C283.609 272.938 284.228 273.194 284.685 273.651C285.142 274.107 285.398 274.727 285.398 275.372Z" fill="#77DEE8"/>
<path d="M305.534 233.615C305.534 234.096 305.391 234.567 305.124 234.967C304.856 235.368 304.476 235.68 304.031 235.864C303.586 236.049 303.096 236.097 302.624 236.003C302.152 235.909 301.718 235.677 301.377 235.336C301.037 234.996 300.805 234.562 300.711 234.09C300.617 233.617 300.665 233.128 300.849 232.683C301.034 232.238 301.346 231.858 301.746 231.59C302.147 231.322 302.617 231.18 303.099 231.18C303.745 231.18 304.364 231.436 304.821 231.893C305.277 232.35 305.534 232.969 305.534 233.615Z" fill="#77DEE8"/>
<path d="M373.86 190.71C373.86 191.192 373.717 191.663 373.45 192.063C373.182 192.464 372.802 192.776 372.357 192.96C371.912 193.144 371.423 193.192 370.95 193.099C370.478 193.005 370.044 192.773 369.703 192.432C369.363 192.092 369.131 191.658 369.037 191.185C368.943 190.713 368.991 190.223 369.176 189.779C369.36 189.334 369.672 188.953 370.072 188.686C370.473 188.418 370.944 188.275 371.425 188.275C372.071 188.275 372.69 188.532 373.147 188.989C373.604 189.445 373.86 190.065 373.86 190.71Z" fill="#77DEE8"/>
<path d="M490.129 236.048C490.129 236.53 489.986 237.001 489.718 237.401C489.451 237.801 489.07 238.114 488.626 238.298C488.181 238.482 487.691 238.53 487.219 238.436C486.746 238.342 486.312 238.111 485.972 237.77C485.631 237.429 485.4 236.996 485.306 236.523C485.212 236.051 485.26 235.561 485.444 235.116C485.628 234.671 485.94 234.291 486.341 234.024C486.741 233.756 487.212 233.613 487.694 233.613C488.34 233.613 488.959 233.87 489.415 234.326C489.872 234.783 490.129 235.402 490.129 236.048Z" fill="#77DEE8"/>
<path d="M500.452 303.665C500.452 304.147 500.309 304.618 500.042 305.018C499.774 305.419 499.394 305.731 498.949 305.915C498.504 306.099 498.014 306.148 497.542 306.054C497.07 305.96 496.636 305.728 496.295 305.387C495.955 305.047 495.723 304.613 495.629 304.14C495.535 303.668 495.583 303.179 495.767 302.734C495.952 302.289 496.264 301.908 496.664 301.641C497.065 301.373 497.535 301.23 498.017 301.23C498.663 301.23 499.282 301.487 499.739 301.944C500.195 302.4 500.452 303.02 500.452 303.665Z" fill="#77DEE8"/>
<path d="M684.438 233.615C684.438 234.096 684.295 234.567 684.028 234.967C683.76 235.368 683.38 235.68 682.935 235.864C682.49 236.049 682.001 236.097 681.528 236.003C681.056 235.909 680.622 235.677 680.282 235.336C679.941 234.996 679.709 234.562 679.615 234.09C679.521 233.617 679.569 233.128 679.754 232.683C679.938 232.238 680.25 231.858 680.65 231.59C681.051 231.322 681.522 231.18 682.003 231.18C682.649 231.18 683.268 231.436 683.725 231.893C684.182 232.35 684.438 232.969 684.438 233.615Z" fill="#77DEE8"/>
<path d="M601.334 132.443C601.334 132.924 601.191 133.395 600.923 133.796C600.656 134.196 600.276 134.508 599.831 134.692C599.386 134.877 598.896 134.925 598.424 134.831C597.951 134.737 597.518 134.505 597.177 134.165C596.837 133.824 596.605 133.39 596.511 132.918C596.417 132.445 596.465 131.956 596.649 131.511C596.833 131.066 597.146 130.686 597.546 130.418C597.947 130.151 598.417 130.008 598.899 130.008C599.545 130.008 600.164 130.264 600.621 130.721C601.077 131.178 601.334 131.797 601.334 132.443Z" fill="#77DEE8"/>
<path d="M94.7664 426.316C94.7664 426.797 94.6236 427.268 94.356 427.669C94.0885 428.069 93.7082 428.381 93.2632 428.565C92.8183 428.75 92.3288 428.798 91.8564 428.704C91.3841 428.61 90.9502 428.378 90.6097 428.038C90.2691 427.697 90.0372 427.263 89.9433 426.791C89.8493 426.319 89.8976 425.829 90.0819 425.384C90.2661 424.939 90.5782 424.559 90.9786 424.291C91.379 424.024 91.8498 423.881 92.3314 423.881C92.9772 423.881 93.5966 424.137 94.0532 424.594C94.5099 425.051 94.7664 425.67 94.7664 426.316Z" fill="#77DEE8"/>
<path style="mix-blend-mode:screen" d="M445.691 348.907C467.544 348.907 485.259 325.381 485.259 296.361C485.259 267.34 467.544 243.814 445.691 243.814C423.838 243.814 406.123 267.34 406.123 296.361C406.123 325.381 423.838 348.907 445.691 348.907Z" stroke="url(#paint42_linear_668_28473)" stroke-width="1.05" stroke-miterlimit="10"/>
<path style="mix-blend-mode:screen" d="M445.69 339.509C463.643 339.509 478.197 320.192 478.197 296.362C478.197 272.533 463.643 253.215 445.69 253.215C427.737 253.215 413.184 272.533 413.184 296.362C413.184 320.192 427.737 339.509 445.69 339.509Z" stroke="url(#paint43_linear_668_28473)" stroke-width="0.86" stroke-miterlimit="10"/>
<path style="mix-blend-mode:screen" d="M445.693 331.254C460.203 331.254 471.966 315.632 471.966 296.362C471.966 277.091 460.203 261.469 445.693 261.469C431.183 261.469 419.42 277.091 419.42 296.362C419.42 315.632 431.183 331.254 445.693 331.254Z" stroke="url(#paint44_linear_668_28473)" stroke-width="0.69" stroke-miterlimit="10"/>
<path style="mix-blend-mode:screen" d="M445.689 323.877C457.133 323.877 466.411 311.559 466.411 296.363C466.411 281.166 457.133 268.848 445.689 268.848C434.245 268.848 424.968 281.166 424.968 296.363C424.968 311.559 434.245 323.877 445.689 323.877Z" stroke="url(#paint45_linear_668_28473)" stroke-width="0.55" stroke-miterlimit="10"/>
<path style="mix-blend-mode:screen" d="M461.492 296.363C461.492 307.954 454.431 317.328 445.69 317.328C436.948 317.328 429.911 307.954 429.911 296.363C429.911 284.773 436.972 275.398 445.69 275.398C454.407 275.398 461.492 284.773 461.492 296.363Z" stroke="url(#paint46_linear_668_28473)" stroke-width="0.42" stroke-miterlimit="10"/>
<path style="mix-blend-mode:screen" d="M306.705 483.977C328.557 483.977 346.273 460.451 346.273 431.431C346.273 402.41 328.557 378.885 306.705 378.885C284.852 378.885 267.137 402.41 267.137 431.431C267.137 460.451 284.852 483.977 306.705 483.977Z" stroke="url(#paint47_linear_668_28473)" stroke-width="1.05" stroke-miterlimit="10"/>
<path style="mix-blend-mode:screen" d="M306.703 474.576C324.656 474.576 339.209 455.258 339.209 431.429C339.209 407.599 324.656 388.281 306.703 388.281C288.75 388.281 274.196 407.599 274.196 431.429C274.196 455.258 288.75 474.576 306.703 474.576Z" stroke="url(#paint48_linear_668_28473)" stroke-width="0.86" stroke-miterlimit="10"/>
<path style="mix-blend-mode:screen" d="M306.705 466.323C321.215 466.323 332.978 450.701 332.978 431.43C332.978 412.159 321.215 396.537 306.705 396.537C292.195 396.537 280.432 412.159 280.432 431.43C280.432 450.701 292.195 466.323 306.705 466.323Z" stroke="url(#paint49_linear_668_28473)" stroke-width="0.69" stroke-miterlimit="10"/>
<path style="mix-blend-mode:screen" d="M306.703 458.944C318.147 458.944 327.424 446.625 327.424 431.429C327.424 416.233 318.147 403.914 306.703 403.914C295.259 403.914 285.981 416.233 285.981 431.429C285.981 446.625 295.259 458.944 306.703 458.944Z" stroke="url(#paint50_linear_668_28473)" stroke-width="0.55" stroke-miterlimit="10"/>
<path style="mix-blend-mode:screen" d="M322.508 431.43C322.508 443.02 315.422 452.395 306.705 452.395C297.988 452.395 290.902 443.02 290.902 431.43C290.902 419.839 297.988 410.465 306.705 410.465C315.422 410.465 322.508 419.839 322.508 431.43Z" stroke="url(#paint51_linear_668_28473)" stroke-width="0.42" stroke-miterlimit="10"/>
<path d="M666.03 337.999C663.79 351.416 650.787 392.299 649.326 397.777C647.865 403.256 647.329 430.917 647.329 430.917L604.62 434.862L604.474 414.067V402.866C604.474 402.866 593.785 402.355 588.306 399.117C582.828 395.878 578.347 389.693 579.126 376.277C579.906 362.86 586.577 328.771 586.577 328.771C598.996 293.732 627.582 297.457 643.994 301.183C660.405 304.908 668.27 324.437 666.03 337.999Z" fill="#FFDFC5"/>
<path d="M612.389 414.385L604.476 413.947V402.746C604.476 402.746 609.638 402.868 611.026 404.572C612.414 406.277 612.389 414.385 612.389 414.385Z" fill="#FFF1E6"/>
<path d="M658.749 665.016C658.363 662.934 657.53 660.961 656.306 659.233C655.083 657.505 653.498 656.063 651.663 655.008C638.758 646.876 611.194 649.092 588.719 652.817C557.869 640.642 500.379 644.757 500.379 644.757C500.379 644.757 493.708 673.173 488.521 697.523C483.651 720.362 471.477 787.616 471.477 787.616H636.274C636.274 787.616 636.274 773.006 636.274 763.875C636.272 760.999 637.119 758.187 638.709 755.791C663.959 718.439 663.813 693.627 658.749 665.016Z" fill="#2F229B"/>
<path style="mix-blend-mode:multiply" opacity="0.8" d="M638.709 755.764C637.12 758.16 636.273 760.973 636.274 763.848C636.274 773.004 636.274 787.589 636.274 787.589H612.826C612.826 787.589 624.075 778.312 619.766 771.396C615.456 764.481 604.279 763.799 605.618 759.222C606.958 754.644 645.771 734.458 645.771 704.776C645.771 675.094 611.219 675.167 610.854 675.167C610.854 675.167 641.68 659.705 651.615 655.006C653.45 656.061 655.035 657.502 656.258 659.23C657.482 660.958 658.315 662.932 658.7 665.013C663.814 693.624 663.96 718.436 638.709 755.764Z" fill="url(#paint52_linear_668_28473)"/>
<path d="M489.665 351.489C489.665 351.489 485.38 348.615 483.456 349.175C481.533 349.735 482.263 352.049 484.503 355.141C486.527 357.866 489.067 360.166 491.979 361.91C497.205 365.187 501.732 369.465 505.298 374.499C510.533 382.802 545.377 467.636 545.377 467.636L583.314 445.137C583.314 445.137 521.49 366.317 518.3 358.209C516.182 347.227 507.173 338.121 501.597 336.148C501.997 337.595 502.298 339.068 502.498 340.556C503.147 343.699 502.772 346.968 501.426 349.882C498.577 354.508 489.665 351.489 489.665 351.489Z" fill="#FFDFC5"/>
<path d="M657.799 423.222C657.58 421.152 657.093 418.547 656.581 416.161C656.126 413.937 654.938 411.929 653.208 410.46C651.478 408.99 649.305 408.142 647.036 408.052C641.679 407.858 634.302 408.052 625.536 408.588C601.527 410.171 591.836 412.46 591.836 412.46L587.721 423.928C587.721 423.928 551.757 429.334 535.54 458.918C529.647 469.705 522.756 500.848 516.645 533.769C508.658 576.892 502.035 623.131 500.55 630.704C500.038 633.407 499.478 636.353 498.991 639.373C498.991 639.373 485.624 679.379 527.821 688.437C591.276 702.048 653.197 672.829 658.943 657.805C663.813 648.358 660.794 615.68 669.535 589.456C679.08 560.821 694.323 500.434 697.513 470.752C702.188 427.045 657.799 423.222 657.799 423.222Z" fill="#E0F2FF"/>
<path d="M518.373 611.616C517.694 616.758 518.339 621.988 520.248 626.81H501.256C503.52 613.004 509.583 572.121 516.718 533.674C547.934 520.452 578.809 508.545 578.809 508.545C564.77 527.523 551.812 547.278 539.996 567.714C520.857 600.708 520.273 593.817 518.373 611.616Z" fill="url(#paint53_linear_668_28473)"/>
<path d="M491.299 502.725L472.014 530.873C472.014 530.873 462.542 524.761 434.759 515.192C422.706 511.028 408.511 505.915 397.894 502.506C389.925 499.988 382.146 496.904 374.616 493.277C374.616 493.277 365.022 499.535 365.022 510.03C365.022 510.03 445.497 569.199 464.271 576.845C483.044 584.491 486.526 588.289 500.527 580.351C514.528 572.413 539.974 536.766 539.974 536.766L491.299 502.725Z" fill="#FFDFC5"/>
<path d="M587.697 423.832C587.697 423.832 547.618 425.512 527.676 445.454C507.733 465.397 485.259 504.843 485.259 504.843C485.259 504.843 505.201 539.2 542.943 548.526C555.697 535.917 567.659 522.532 578.761 508.447C598.265 482.66 621.007 439.951 587.697 423.832Z" fill="#E0F2FF"/>
<path d="M366.335 507.984L379.995 495.809C376.628 494.062 373.975 491.194 372.496 487.701C370.68 483.851 367.945 480.506 364.533 477.961C364.533 477.961 365.97 482.612 363.9 485.266C361.831 487.92 359.396 488.066 355.427 487.701C352.408 487.133 349.544 485.93 347.026 484.17C345.848 483.4 344.984 482.234 344.591 480.883C344.445 480.396 344.275 479.885 344.153 479.519C343.13 480.564 342.378 481.843 341.961 483.245C341.939 484.569 342.231 485.879 342.814 487.068C342.023 488.769 341.553 490.601 341.426 492.473C341.585 493.372 341.98 494.212 342.57 494.908C342.573 495.856 342.662 496.801 342.838 497.733C343.082 498.535 343.469 499.286 343.982 499.949C343.938 501.135 344.094 502.321 344.445 503.455C345.902 507.389 348.777 510.637 352.505 512.562C357.375 515.483 372.155 515.289 372.155 515.289L366.433 507.984H366.335Z" fill="#FFDFC5"/>
<path d="M366.557 515.07C366.557 515.07 371.427 514.729 378.926 520.159C386.426 525.589 377.806 511.101 377.27 511.198C375.571 510.658 373.827 510.267 372.06 510.029C370.16 510.127 366.557 515.07 366.557 515.07Z" fill="#FFDFC5"/>
<path d="M677.426 336.929C671.46 351.757 660.381 396.341 650.836 398.387C645.87 399.135 640.828 399.234 635.837 398.679C627.777 398.07 620.326 396.755 620.326 396.755C613.752 394.613 622.761 365.71 624.1 360.231C625.44 354.752 624.393 350.272 620.472 349.663C615.018 348.787 610.733 364.638 609.126 368.583L605.717 365.077C606.569 360.207 609.15 348.032 608.322 346.206C607.007 343.235 605.595 345.013 593.371 337.002C589.789 334.582 586.835 331.343 584.756 327.552C582.676 323.762 581.531 319.53 581.416 315.209C578.762 299.674 582.073 284.431 591.983 286.769C601.894 289.106 629.409 283.433 648.961 289.057C668.514 294.682 670.121 308.537 670.121 308.537C675.478 312.165 683.416 322.1 677.426 336.929Z" fill="#2F229B"/>
<path style="mix-blend-mode:multiply" opacity="0.25" d="M677.425 336.928C671.459 351.757 660.38 396.341 650.835 398.386C645.87 399.135 640.827 399.233 635.836 398.678C636.201 398.362 641.193 395.927 641.242 387.502C641.29 379.077 626.315 374.158 626.315 374.158H626.559C629.281 374.573 632.062 374.384 634.704 373.607C637.345 372.83 639.784 371.482 641.849 369.659C643.913 367.837 645.552 365.583 646.65 363.058C647.749 360.532 648.28 357.797 648.206 355.044C648.264 351.674 647.53 348.338 646.063 345.304C640.974 336.246 637.735 329.453 644.797 328.6C651.858 327.748 665.956 330.719 672.312 321.904C677.182 315.33 670.169 308.658 670.169 308.658C675.477 312.165 683.415 322.099 677.425 336.928Z" fill="url(#paint54_linear_668_28473)"/>
<path d="M608.174 361.522C607.694 362.912 606.959 364.2 606.007 365.32L605.739 365.004C606.226 362.325 607.2 357.358 607.882 353.17C607.891 353.235 607.891 353.3 607.882 353.365C608.988 355.953 609.092 358.861 608.174 361.522Z" fill="#2F229B"/>
<path d="M587.696 423.832C587.696 423.832 603.889 422.639 626.168 421.397L588.987 420.277L587.696 423.832Z" fill="#BBF5FF"/>
<path style="mix-blend-mode:multiply" opacity="0.8" d="M605.495 709.5C600.946 722.438 592.896 733.86 582.241 742.494C577.571 746.3 573.916 751.201 571.6 756.762C566.487 769.546 561.373 787.589 561.373 787.589H532.495C532.495 787.589 541.285 780.284 537.365 773.15C533.444 766.015 517.52 755.058 546.301 749.409C585.479 741.714 605.495 709.5 605.495 709.5Z" fill="url(#paint55_linear_668_28473)"/>
<path d="M748.576 596.788C748.576 600.01 747.62 603.159 745.83 605.838C744.04 608.517 741.496 610.605 738.52 611.838C735.543 613.071 732.268 613.393 729.108 612.765C725.948 612.136 723.045 610.585 720.767 608.307C718.489 606.028 716.938 603.126 716.309 599.966C715.681 596.806 716.003 593.531 717.236 590.554C718.469 587.577 720.557 585.033 723.236 583.243C725.915 581.453 729.064 580.498 732.286 580.498C734.425 580.498 736.543 580.919 738.52 581.738C740.496 582.557 742.292 583.757 743.805 585.269C745.317 586.782 746.517 588.578 747.336 590.554C748.154 592.53 748.576 594.649 748.576 596.788Z" fill="url(#paint56_radial_668_28473)"/>
<path d="M361.394 624.325C360.366 622.937 358.988 621.847 357.401 621.166C355.813 620.486 354.074 620.24 352.36 620.454C351.688 620.511 351.02 620.617 350.363 620.77H350.193C349.731 620.882 349.276 621.021 348.829 621.184L348.415 621.355L347.685 621.671L346.906 622.061L346.662 622.182L345.712 622.743L345.445 622.937L344.885 623.327L344.544 623.595L344.154 623.887L343.984 624.057L343.643 624.374C343.548 624.457 343.458 624.546 343.375 624.642L343.156 624.861L342.791 625.251L342.571 625.47C342.509 625.547 342.452 625.628 342.401 625.713C342.25 625.864 342.112 626.027 341.987 626.2L341.792 626.444V626.638C341.597 626.906 341.427 627.174 341.257 627.442L341.086 627.685L340.794 628.221C340.714 628.396 340.625 628.567 340.526 628.732L340.307 629.293C340.307 629.414 340.185 629.56 340.136 629.706C340.088 629.853 340.136 629.706 340.136 629.706C340.136 629.706 339.966 630.218 339.893 630.486C339.82 630.753 339.893 630.754 339.893 630.9C339.794 631.3 339.721 631.707 339.674 632.117C339.637 632.628 339.637 633.14 339.674 633.651V633.943C339.685 634.049 339.685 634.155 339.674 634.26C339.713 634.637 339.778 635.011 339.869 635.38C339.854 635.419 339.854 635.462 339.869 635.502C339.94 635.841 340.038 636.175 340.161 636.5C340.161 636.622 340.161 636.743 340.331 636.89C340.34 636.962 340.34 637.036 340.331 637.109C340.331 637.109 340.331 637.279 340.453 637.352C340.575 637.617 340.722 637.87 340.891 638.107C340.948 638.21 341.013 638.308 341.086 638.399L345.761 645.022C345.489 644.609 345.245 644.178 345.031 643.732C345.017 643.651 345.017 643.569 345.031 643.488C344.829 643.041 344.666 642.576 344.544 642.1C344.555 642.061 344.555 642.018 344.544 641.979C344.441 641.506 344.376 641.025 344.349 640.542C344.36 640.437 344.36 640.331 344.349 640.225C344.313 639.682 344.313 639.137 344.349 638.594C344.398 638.184 344.471 637.778 344.568 637.377C344.568 637.255 344.568 637.133 344.568 636.987C344.568 636.841 344.714 636.451 344.812 636.183L345.031 635.648L345.25 635.112C345.25 634.942 345.42 634.771 345.518 634.576L345.786 634.065C345.858 633.938 345.94 633.816 346.029 633.7C346.18 633.42 346.35 633.151 346.54 632.896L346.857 632.458L347.271 631.947C347.393 631.801 347.539 631.654 347.66 631.484L348.05 631.094L348.513 630.632L348.878 630.315L349.414 629.853L349.755 629.585L350.436 629.098L350.704 628.903C351.021 628.684 351.362 628.489 351.703 628.294L351.922 628.172L352.75 627.758L353.504 627.466L353.918 627.296C354.365 627.132 354.82 626.994 355.282 626.882H355.574C356.231 626.727 356.898 626.621 357.571 626.565C359.276 626.341 361.01 626.572 362.596 627.235C364.183 627.898 365.566 628.969 366.604 630.34L361.394 624.325Z" fill="url(#paint57_linear_668_28473)"/>
<path d="M375.614 634.919V634.335C375.614 633.994 375.614 633.628 375.614 633.288V632.971C375.602 632.898 375.602 632.824 375.614 632.752C375.546 632.121 375.44 631.495 375.297 630.877C375.287 630.821 375.287 630.763 375.297 630.706C375.176 630.268 375.029 629.83 374.883 629.416C374.886 629.359 374.886 629.302 374.883 629.246L374.737 628.905L374.372 628.077V627.833L374.202 627.541C374.08 627.298 373.934 627.078 373.812 626.859C373.746 626.767 373.689 626.67 373.641 626.567C373.52 626.397 373.422 626.226 373.301 626.08L368.625 619.457C368.796 619.701 368.942 619.968 369.112 620.236C369.283 620.504 369.38 620.699 369.502 620.918L369.794 621.454C369.923 621.723 370.036 622 370.135 622.282L370.354 622.793C370.5 623.207 370.622 623.645 370.744 624.083V624.303C370.889 624.912 370.995 625.53 371.06 626.153C371.048 626.332 371.048 626.51 371.06 626.689C371.06 627.03 371.06 627.395 371.06 627.76V628.345C371.06 628.759 371.06 629.172 371.06 629.586C371.073 629.765 371.073 629.944 371.06 630.122C370.968 630.802 370.838 631.477 370.671 632.143C370.617 632.365 370.552 632.585 370.476 632.801C370.476 633.239 370.233 633.677 370.086 634.115L369.721 635.016C369.721 635.333 369.502 635.625 369.356 635.917L368.918 636.794C368.772 637.086 368.625 637.378 368.455 637.67L368.065 638.279C367.796 638.74 367.503 639.187 367.189 639.618L366.678 640.325L365.996 641.177L365.314 641.956L364.705 642.589C364.437 642.857 364.194 643.125 363.902 643.368C363.724 643.565 363.529 643.744 363.317 643.904L362.392 644.683L361.856 645.121C361.491 645.414 361.101 645.681 360.712 645.949L360.274 646.241C359.738 646.607 359.178 646.948 358.618 647.264L358.228 647.459L356.865 648.141L355.598 648.676L354.917 648.944C354.186 649.212 353.407 649.431 352.652 649.626L351.435 649.894L350.802 650.016C350.169 650.137 349.511 650.21 348.878 650.284C346.039 650.643 343.156 650.253 340.516 649.15C337.875 648.048 335.57 646.273 333.83 644.001L338.53 650.624C340.264 652.895 342.565 654.669 345.202 655.767C347.84 656.866 350.72 657.25 353.553 656.882C354.199 656.839 354.841 656.757 355.477 656.639L356.11 656.517C356.451 656.517 356.816 656.395 357.157 656.298H357.327C358.107 656.103 358.861 655.884 359.616 655.616L360.274 655.348C360.688 655.178 361.102 655.032 361.515 654.837C361.954 654.642 362.368 654.423 362.806 654.179L363.196 653.985C363.707 653.692 364.243 653.376 364.754 653.035L365.192 652.718L366.117 652.085L366.312 651.915L366.872 651.477L367.505 650.965L367.798 650.697L368.382 650.162L368.845 649.748L369.186 649.383L369.794 648.725L370.135 648.36C370.248 648.236 370.354 648.106 370.452 647.97L371.133 647.118C371.133 646.996 371.353 646.875 371.45 646.728L371.645 646.412C371.961 645.974 372.254 645.535 372.546 645.073C372.838 644.61 372.741 644.805 372.814 644.659C372.823 644.586 372.823 644.512 372.814 644.44C372.982 644.164 373.137 643.879 373.276 643.587C373.422 643.295 373.593 643.003 373.714 642.711C373.836 642.419 373.982 642.102 374.104 641.81L374.396 641.128C374.396 641.128 374.396 640.982 374.396 640.909C374.556 640.478 374.695 640.039 374.81 639.594C374.864 639.372 374.929 639.152 375.005 638.937C375.162 638.27 375.284 637.595 375.37 636.916V636.721C375.37 636.599 375.37 636.502 375.37 636.38C375.483 635.899 375.564 635.411 375.614 634.919Z" fill="url(#paint58_linear_668_28473)"/>
<path d="M353.286 613.151C364.243 612.274 372.084 619.871 370.818 630.196C369.551 640.52 359.568 649.456 348.635 650.357C337.702 651.258 329.837 643.636 331.104 633.312C332.37 622.988 342.353 614.052 353.286 613.151ZM349.56 642.857C352.806 642.564 355.867 641.214 358.272 639.015C360.678 636.816 362.296 633.889 362.88 630.683C363.659 624.546 358.959 619.969 352.361 620.504C349.115 620.798 346.054 622.148 343.649 624.347C341.243 626.546 339.625 629.472 339.041 632.679C338.262 638.815 342.986 643.393 349.56 642.857Z" fill="url(#paint59_linear_668_28473)"/>
<g opacity="0.3">
<g opacity="0.3">
<path opacity="0.3" d="M183.813 32.4902C182.775 31.1197 181.392 30.0485 179.805 29.3856C178.218 28.7227 176.485 28.4917 174.78 28.7161C174.107 28.7823 173.44 28.8962 172.783 29.057H172.515L171.152 29.4709L170.738 29.617L170.007 29.9336L169.228 30.3231H168.984L168.035 30.8832L167.767 31.0536C167.59 31.1972 167.403 31.3275 167.207 31.4432L166.866 31.7111L166.476 32.0276L166.306 32.1737L165.965 32.5146C165.865 32.5825 165.774 32.6645 165.697 32.7581L165.478 32.9772L165.113 33.3668L164.894 33.586L164.723 33.8295L164.309 34.3408L164.115 34.5599C164.08 34.6282 164.039 34.6934 163.993 34.7547L163.457 35.5583C163.406 35.6434 163.349 35.7248 163.287 35.8018C163.287 35.8018 163.287 35.8018 163.287 35.9479L162.994 36.4592L162.727 36.9949L162.507 37.5306C162.507 37.5306 162.386 37.7984 162.337 37.9445C162.337 38.2124 162.167 38.4802 162.093 38.7481C162.038 38.873 161.998 39.0037 161.972 39.1377C161.873 39.5384 161.8 39.9451 161.753 40.3551C161.717 40.8658 161.717 41.3784 161.753 41.8892C161.742 41.9944 161.742 42.1005 161.753 42.2057V42.4979C161.753 42.8875 161.874 43.2771 161.947 43.6423C161.938 43.6824 161.938 43.724 161.947 43.7641C161.947 44.105 162.142 44.4215 162.24 44.738C162.337 45.0546 162.24 45.0059 162.41 45.1276L162.532 45.3711C162.523 45.4439 162.523 45.5175 162.532 45.5903C162.654 45.855 162.801 46.1077 162.97 46.3451C163.026 46.448 163.092 46.5457 163.165 46.6373L167.84 53.2604C167.563 52.8502 167.319 52.4186 167.11 51.9698V51.7507C166.911 51.2931 166.748 50.821 166.623 50.3384C166.632 50.2984 166.632 50.2567 166.623 50.2167C166.519 49.7439 166.453 49.2634 166.428 48.7801C166.44 48.683 166.44 48.5849 166.428 48.4879C166.391 47.9447 166.391 47.3996 166.428 46.8564C166.475 46.4464 166.548 46.0397 166.647 45.639C166.699 45.5045 166.739 45.3661 166.769 45.225C166.835 44.961 166.917 44.7008 167.012 44.4459L167.231 43.8858L167.45 43.3501C167.53 43.1748 167.62 43.0041 167.718 42.8388C167.718 42.644 167.889 42.4735 167.986 42.3031L168.23 41.9379L168.741 41.1343L169.057 40.696C169.204 40.5256 169.325 40.3551 169.471 40.209C169.596 40.0436 169.735 39.8889 169.885 39.7464C169.994 39.6051 170.117 39.4746 170.251 39.3568L170.713 38.8698L171.078 38.5533L171.614 38.0906L171.955 37.8228L172.637 37.3358L172.905 37.141C173.221 36.9462 173.562 36.7271 173.903 36.5566H174.122L174.95 36.1427L175.705 35.8261L175.827 36.0696C176.289 35.8992 176.728 35.7774 177.19 35.6557H177.482C178.139 35.5009 178.807 35.3951 179.479 35.3391C181.184 35.1148 182.918 35.3458 184.505 36.0087C186.091 36.6716 187.474 37.7427 188.513 39.1133L183.813 32.4902Z" fill="url(#paint60_linear_668_28473)"/>
<path opacity="0.3" d="M198.033 43.1054V42.4967C198.033 42.1558 198.033 41.7906 198.033 41.4497V41.1331C198.021 41.0605 198.021 40.9866 198.033 40.914C197.965 40.2832 197.859 39.6571 197.716 39.0391C197.702 38.9832 197.702 38.9245 197.716 38.8686C197.604 38.4306 197.466 37.9997 197.302 37.5781C197.302 37.5781 197.302 37.5781 197.302 37.4076L197.156 37.0668L196.791 36.2389V35.9954L196.621 35.7032L196.231 35.0214C196.165 34.9295 196.108 34.8317 196.06 34.7292C195.939 34.5587 195.841 34.3883 195.72 34.2422L191.044 27.6191C191.221 27.8698 191.383 28.1299 191.531 28.3983C191.676 28.6255 191.806 28.8613 191.921 29.1045L192.213 29.6158C192.335 29.8836 192.457 30.1758 192.554 30.4437L192.773 30.955C192.925 31.3782 193.055 31.8089 193.163 32.2455V32.4647C193.306 33.0746 193.411 33.6926 193.479 34.3153C193.466 34.4936 193.466 34.6726 193.479 34.8509C193.479 35.2162 193.479 35.5571 193.479 35.9223V36.5067C193.479 36.9207 193.479 37.3346 193.479 37.7485C193.492 37.9269 193.492 38.1059 193.479 38.2842C193.387 38.9646 193.257 39.6393 193.09 40.3052C193.09 40.5244 192.968 40.7435 192.919 40.9627C192.871 41.1818 192.652 41.8636 192.505 42.3019C192.359 42.7402 192.262 42.8863 192.14 43.2028C192.018 43.5193 191.921 43.7872 191.775 44.0794L191.337 44.956C191.191 45.2482 191.044 45.5404 190.874 45.8326C190.758 46.0443 190.628 46.2477 190.484 46.4413C190.215 46.9022 189.922 47.3492 189.608 47.7805L189.097 48.511L188.415 49.3389L187.733 50.1181C187.543 50.3409 187.339 50.5522 187.124 50.7512L186.345 51.5304L185.736 52.0904L184.835 52.8452L184.275 53.3079L183.155 54.1114L182.693 54.4036C182.159 54.7728 181.606 55.1141 181.037 55.4263L180.647 55.6211C180.205 55.8725 179.75 56.1001 179.284 56.3028L178.017 56.8385L177.336 57.1064C176.594 57.3737 175.838 57.6013 175.071 57.7882C174.672 57.9034 174.265 57.9928 173.854 58.056L173.221 58.2021C172.588 58.2021 171.93 58.3969 171.297 58.4456C168.458 58.8106 165.573 58.4222 162.932 57.3195C160.29 56.2168 157.986 54.4386 156.249 52.1634L160.949 58.7865C162.683 61.0571 164.984 62.831 167.621 63.9295C170.259 65.0281 173.139 65.4126 175.972 65.0443C176.618 65.0007 177.26 64.9194 177.896 64.8008H178.529C178.894 64.8008 179.235 64.6791 179.576 64.5817H179.771C180.525 64.3869 181.28 64.1677 182.035 63.8999L182.693 63.6321L183.934 63.1207L185.225 62.4633L185.615 62.2441L187.173 61.3188L187.611 61.0267L188.536 60.3692L188.731 60.1988L189.291 59.7605C189.513 59.6035 189.724 59.4327 189.924 59.2491L190.217 58.9813L190.801 58.4456L191.264 58.0317L191.605 57.6664L192.213 57.009L192.554 56.6437C192.667 56.5199 192.773 56.3898 192.871 56.2541C193.114 55.9863 193.333 55.6941 193.552 55.4019C193.772 55.1097 193.772 55.1584 193.869 55.0123C193.934 54.9012 194.007 54.7953 194.088 54.6958L194.965 53.3566C194.965 53.2105 195.16 53.0887 195.233 52.9426C195.268 52.8744 195.308 52.8092 195.354 52.7478L195.793 51.8713C195.963 51.5791 196.109 51.2869 196.255 50.9947L196.621 50.0937L196.913 49.4119C196.913 49.4119 196.913 49.2658 196.913 49.1928C197.073 48.7618 197.211 48.3229 197.327 47.8779C197.327 47.6588 197.473 47.4396 197.521 47.2205C197.681 46.5541 197.803 45.8794 197.887 45.1995V45.029C197.887 44.9073 197.887 44.7855 197.887 44.6638C197.973 44.1485 198.021 43.6277 198.033 43.1054Z" fill="url(#paint61_linear_668_28473)"/>
<path opacity="0.3" d="M175.827 21.4592C186.76 20.5583 194.625 28.1553 193.334 38.5039C192.044 48.8524 182.085 57.7643 171.152 58.6653C160.219 59.5662 152.354 51.9448 153.645 41.6206C154.935 31.2964 164.772 22.2141 175.827 21.4592ZM172.077 51.1413C175.325 50.8449 178.386 49.4949 180.795 47.2968C183.204 45.0988 184.829 42.1734 185.421 38.9665C186.175 32.8061 181.476 28.2527 174.877 28.7641C171.631 29.0576 168.571 30.4073 166.165 32.6062C163.76 34.8052 162.141 37.7322 161.558 40.9388C160.779 47.0749 165.503 51.6526 172.077 51.1169" fill="url(#paint62_linear_668_28473)"/>
</g>
</g>
<path d="M435.263 27.4968L434.801 26.9124L433.948 25.8898L433.705 25.5976L433.486 25.4028C432.938 24.8213 432.352 24.2763 431.733 23.7713H431.562C431.113 23.4088 430.641 23.0754 430.15 22.773H429.979L429.565 22.5295L428.567 21.9938L428.275 21.8234L427.885 21.6529L426.96 21.2633L426.571 21.1173L425.864 20.8738L416.125 17.8301L417.22 18.244L418.146 18.6336L418.827 18.9502L419.826 19.4858L420.41 19.8511C420.892 20.156 421.356 20.4893 421.798 20.8494L422.017 20.9955C422.631 21.5072 423.216 22.0518 423.77 22.6269L424.233 23.1139C424.525 23.4548 424.817 23.7957 425.085 24.1609C425.353 24.5262 425.402 24.5262 425.548 24.7453C425.694 24.9645 426.132 25.5976 426.424 26.0602L426.79 26.6202C427.223 27.3686 427.613 28.1409 427.958 28.9334C428.08 29.2013 428.178 29.4691 428.275 29.737C428.372 30.0048 428.713 30.8327 428.884 31.3684C429.054 31.9041 429.103 32.1476 429.225 32.5372C429.346 32.9268 429.444 33.3407 429.541 33.7303L429.76 34.9478C429.76 35.3617 429.906 35.7513 429.955 36.1652C430.004 36.5792 429.955 36.774 429.955 37.0905C429.955 37.4071 430.077 38.4297 430.101 39.1115C430.126 39.7933 430.101 39.842 430.101 40.2073C430.101 40.5725 430.101 41.1326 430.101 41.5952C430.125 42.0169 430.125 42.4396 430.101 42.8613C430.101 43.2266 430.101 43.6162 429.979 43.9814C429.858 44.3467 429.858 44.9067 429.785 45.3694C429.712 45.832 429.785 46.0268 429.614 46.3677C429.444 46.7086 429.419 47.366 429.298 47.853L429.079 48.7296C428.932 49.2896 428.738 49.8497 428.567 50.3854L428.348 51.0428C428.08 51.7976 427.788 52.5768 427.471 53.3073L427.228 53.8186C426.96 54.403 426.692 54.9874 426.376 55.5718C426.059 56.1562 425.816 56.5701 425.523 57.0571C425.231 57.5441 425.207 57.5928 425.037 57.8363C424.502 58.6769 423.925 59.4896 423.308 60.2713L422.285 61.4887C422.115 61.6835 421.944 61.9027 421.749 62.0975C421.189 62.6819 420.605 63.2662 419.996 63.8263C417.438 66.3699 414.253 68.1934 410.765 69.1125C407.276 70.0317 403.607 70.0141 400.127 69.0614L409.867 72.1051C413.345 73.0452 417.01 73.0541 420.493 72.1309C423.976 71.2078 427.155 69.3851 429.712 66.8456C430.32 66.3099 430.905 65.7255 431.465 65.1412L432 64.508C432.293 64.1915 432.609 63.8506 432.877 63.5097L433.023 63.3149C433.632 62.5358 434.216 61.7322 434.776 60.88L435.215 60.1252C435.507 59.6382 435.799 59.1512 436.067 58.6642V58.5424C436.335 58.0067 436.603 57.4467 436.846 56.8867C436.846 56.7162 437.016 56.5701 437.089 56.3997C437.382 55.6936 437.674 54.9874 437.917 54.2569C437.917 54.2569 437.917 54.2569 437.917 54.1352C437.917 54.0134 438.039 53.7212 438.112 53.5021C438.185 53.2829 438.429 52.6012 438.55 52.1385V51.822L438.77 50.9697C438.77 50.6288 438.94 50.288 439.013 49.9714V49.4844C439.013 49.1435 439.013 48.8026 439.184 48.4861L439.33 47.7069V47.0982C439.33 46.7086 439.33 46.3434 439.33 45.9781V45.345C439.33 45.1259 439.33 44.9067 439.33 44.6876C439.33 44.4684 439.33 43.7866 439.33 43.324C439.33 42.8613 439.33 42.9101 439.33 42.6909C439.316 42.5289 439.316 42.366 439.33 42.2039C439.33 41.5465 439.33 40.8647 439.184 40.2073C439.196 39.9964 439.196 39.785 439.184 39.5742C439.172 39.4771 439.172 39.379 439.184 39.282L438.964 38.0645L438.745 36.847C438.745 36.4331 438.526 36.0435 438.429 35.6539C438.331 35.2643 438.283 35.0452 438.185 34.7286C438.181 34.6475 438.181 34.5662 438.185 34.4851C438.015 33.9251 437.796 33.3894 437.576 32.8537C437.357 32.318 437.382 32.318 437.26 32.0502C436.914 31.2577 436.524 30.4854 436.091 29.737L435.969 29.5422C435.969 29.3961 435.799 29.2987 435.726 29.1526L435.263 27.4968Z" fill="url(#paint63_linear_668_28473)"/>
<path d="M396.21 22.798C406.485 13.5208 420.194 15.1279 426.744 26.353C433.294 37.5781 430.25 54.2819 419.95 63.559C409.651 72.8362 395.966 71.2292 389.416 60.004C382.866 48.7789 385.934 32.0752 396.21 22.798ZM415.227 55.4263C418.247 52.6522 420.279 48.9675 421.013 44.9327C421.747 40.8978 421.143 36.7336 419.293 33.0735C415.373 26.3043 407.118 25.3547 400.958 30.9307C397.926 33.6973 395.885 37.3809 395.146 41.4179C394.407 45.4549 395.012 49.6228 396.867 53.2836C400.812 60.0527 409.042 61.0023 415.227 55.4263Z" fill="url(#paint64_linear_668_28473)"/>
<g opacity="0.3">
<g opacity="0.3">
<path opacity="0.3" d="M802.754 195.558C803.479 193.883 803.75 192.048 803.54 190.236C803.331 188.424 802.648 186.698 801.561 185.233C801.157 184.641 800.709 184.079 800.222 183.553C799.875 183.186 799.509 182.837 799.126 182.506L798.785 182.238L798.128 181.703L797.349 181.191L797.13 181.045L796.131 180.485L795.815 180.339L795.157 180.023H795.011L794.597 179.852L794.11 179.657H793.867L793.404 179.511L793.014 179.365H792.722L792.162 179.243H791.846H791.529H790.847H790.531H790.287H789.265H788.802C788.599 179.231 788.396 179.231 788.193 179.243H787.56H786.951H786.465L785.588 179.438H785.174L783.932 179.852C783.434 180.065 782.953 180.317 782.496 180.607L782.228 180.777L781.935 180.948C781.612 181.18 781.303 181.432 781.01 181.703C780.74 181.953 780.488 182.221 780.255 182.506L780.012 182.847L779.841 183.066L779.671 183.286C779.495 183.536 779.332 183.796 779.184 184.065C779.142 184.185 779.085 184.3 779.014 184.406L775.312 192.173C775.551 191.697 775.828 191.241 776.14 190.809L776.286 190.615C776.602 190.197 776.953 189.806 777.334 189.446C777.72 189.112 778.126 188.803 778.551 188.521L778.819 188.35C779.077 187.89 779.37 187.451 779.695 187.035C780.099 186.868 780.514 186.73 780.937 186.621H781.351L782.228 186.427H782.836C783.039 186.413 783.242 186.413 783.445 186.427H785.15H786.172H786.732H787.414L788.047 186.548L788.607 186.694L789.289 186.889L789.752 187.06L790.482 187.327L790.896 187.498L791.7 187.863L791.992 188.009L793.088 188.618L793.307 188.788C793.584 188.953 793.852 189.132 794.11 189.324L794.792 189.86L795.157 190.152C795.54 190.491 795.906 190.848 796.253 191.223L796.448 191.443C796.941 191.964 797.389 192.526 797.787 193.123C798.874 194.583 799.557 196.304 799.767 198.112C799.976 199.921 799.705 201.752 798.98 203.423L802.754 195.558Z" fill="url(#paint65_linear_668_28473)"/>
<path opacity="0.3" d="M800.27 214.182L800.806 213.89L801.78 213.281C801.875 213.233 801.964 213.176 802.048 213.111L802.243 212.965C802.788 212.584 803.308 212.169 803.801 211.723L803.923 211.577C804.274 211.246 804.607 210.896 804.921 210.53H805.067L805.286 210.213C805.496 209.974 805.691 209.722 805.871 209.458C805.922 209.373 805.979 209.292 806.041 209.215L806.236 208.923C806.382 208.679 806.528 208.436 806.65 208.192C806.723 208.101 806.788 208.003 806.845 207.9C806.944 207.718 807.033 207.531 807.113 207.34L810.838 199.572C810.692 199.865 810.522 200.157 810.351 200.449C810.228 200.693 810.089 200.928 809.937 201.155L809.572 201.691C809.399 201.952 809.212 202.204 809.012 202.446C808.895 202.611 808.765 202.765 808.622 202.908C808.317 203.275 807.992 203.624 807.648 203.955L807.478 204.101C806.991 204.54 806.48 204.954 805.92 205.368L805.457 205.684L804.483 206.269L804.045 206.512L802.851 207.072L802.34 207.316C801.658 207.583 800.952 207.803 800.27 208.022L799.564 208.168C799.077 208.168 798.615 208.411 798.128 208.484L797.105 208.63H796.082C795.734 208.655 795.384 208.655 795.035 208.63H793.233L791.553 208.509H790.628L789.484 208.314L788.437 208.095L787.511 207.851L786.391 207.535L785.588 207.267L784.395 206.804L783.688 206.536L782.349 205.903L781.838 205.66C781.229 205.343 780.645 205.002 780.06 204.637C779.921 204.562 779.791 204.472 779.671 204.369C779.208 204.077 778.745 203.785 778.307 203.468L777.187 202.567L776.578 202.08C775.948 201.527 775.347 200.942 774.776 200.327C774.46 200.011 774.168 199.67 773.9 199.353C773.632 199.037 773.583 199.012 773.437 198.818C773.291 198.623 772.609 197.746 772.22 197.162C770.433 194.739 769.313 191.89 768.971 188.899C768.63 185.909 769.078 182.881 770.272 180.117L766.571 187.86C765.359 190.641 764.901 193.691 765.243 196.705C765.585 199.718 766.715 202.589 768.519 205.027C768.908 205.587 769.322 206.147 769.736 206.682L770.199 207.194C770.442 207.486 770.661 207.778 770.905 208.046L771.075 208.192C771.64 208.805 772.241 209.383 772.877 209.921L773.462 210.384L774.582 211.26L775.872 212.112L776.262 212.356C776.798 212.697 777.358 213.013 777.918 213.306L778.429 213.549L779.525 214.085H779.768L780.45 214.377L781.253 214.693L781.643 214.815L782.447 215.083L783.08 215.302L783.591 215.424L784.516 215.643L785.028 215.789H785.563L786.683 215.984H787.219H787.633C788.193 215.984 788.753 215.984 789.313 216.106H789.849H791.115H792.162H793.185H793.988H794.207L795.644 215.789L796.35 215.619C797.047 215.431 797.731 215.195 798.395 214.913H798.59L798.931 214.767C799.491 214.572 799.881 214.401 800.27 214.182Z" fill="url(#paint66_linear_668_28473)"/>
<path opacity="0.3" d="M808.914 182.286C815.391 192.026 812.42 203.154 802.291 207.244C792.162 211.335 778.648 206.782 772.171 197.115C765.694 187.448 768.689 176.247 778.818 172.157C788.948 168.066 802.413 172.619 808.914 182.286ZM779.5 194.169C781.439 197.017 784.257 199.154 787.523 200.253C790.789 201.352 794.325 201.353 797.592 200.256C803.703 197.821 805.481 191.052 801.585 185.232C799.64 182.39 796.822 180.259 793.558 179.16C790.294 178.062 786.761 178.057 783.493 179.145C777.406 181.58 775.604 188.349 779.5 194.169Z" fill="url(#paint67_linear_668_28473)"/>
</g>
</g>
<path d="M46.3132 708.114V707.968V707.822C46.3026 707.774 46.3026 707.724 46.3132 707.676L46.8245 705.923L48.8942 698.959C48.8475 699.129 48.7644 699.287 48.6507 699.422C48.5397 699.569 48.4086 699.7 48.2611 699.811L40.6641 705.192L38.1074 713.885L45.6801 708.504L45.8505 708.382L45.9723 708.236C45.9826 708.196 45.9826 708.154 45.9723 708.114H46.3132Z" fill="url(#paint68_linear_668_28473)"/>
<path d="M29.7301 704.242L18.4563 697.473C18.1802 697.312 17.9264 697.116 17.7014 696.889L17.4579 696.67L17.0927 696.231L16.9466 695.988C16.8648 695.844 16.8072 695.688 16.7762 695.525V695.33C16.7393 695.121 16.7393 694.907 16.7762 694.697L14.2195 703.39C14.1586 703.597 14.1586 703.817 14.2195 704.023C14.2081 704.096 14.2081 704.17 14.2195 704.242C14.2683 704.403 14.3336 704.558 14.4143 704.705C14.4143 704.705 14.4142 704.851 14.5603 704.948C14.6618 705.103 14.7849 705.242 14.9256 705.362L15.1448 705.606C15.1448 705.606 15.1448 705.606 15.2665 705.606L15.6074 705.849L15.8996 706.044L27.1734 712.813L29.7301 704.242Z" fill="url(#paint69_linear_668_28473)"/>
<path d="M51.1102 723.792V723.67V723.524C51.1022 723.467 51.1022 723.41 51.1102 723.353L53.6669 714.661C53.6146 714.821 53.532 714.97 53.4235 715.099C53.3168 715.258 53.1752 715.392 53.0095 715.488C52.8567 715.614 52.6839 715.713 52.4982 715.781H52.3033H51.8894H51.3294H50.4528C50.2257 715.794 49.9981 715.794 49.771 715.781L49.0405 715.61L48.3101 715.342C48.0669 715.227 47.831 715.097 47.6039 714.953L36.3058 708.184L33.749 716.901L45.0229 723.67L45.2664 723.816L45.5342 723.938H45.729H45.9725H46.216H46.4108H46.6786H46.9708H47.2873H47.6526H48.8457H49.284L49.698 723.816H49.8684C49.9704 723.777 50.0684 723.728 50.1606 723.67H50.3798L50.5502 723.524L50.672 723.402V723.28L51.1102 723.792Z" fill="url(#paint70_linear_668_28473)"/>
<path d="M36.3518 708.281L28.779 713.687C28.6198 713.796 28.4482 713.886 28.2677 713.955L27.7564 714.101C27.57 714.114 27.3828 714.114 27.1963 714.101H26.2954H25.6136L24.8832 713.906L24.1527 713.614L23.4466 713.248C23.1544 713.054 22.9109 712.859 22.6674 712.664L22.4482 712.445C22.3124 712.311 22.19 712.164 22.0829 712.007L21.9368 711.763C21.8515 711.618 21.786 711.463 21.7421 711.301C21.7307 711.228 21.7307 711.154 21.7421 711.081C21.6812 710.875 21.6812 710.655 21.7421 710.448L19.161 719.141C19.1247 719.359 19.1247 719.581 19.161 719.799V719.993C19.1921 720.156 19.2497 720.312 19.3315 720.456C19.374 720.546 19.4316 720.629 19.5019 720.7L19.8428 721.138L20.0863 721.357C20.0863 721.357 20.0863 721.357 20.208 721.479L20.549 721.747L20.8412 721.941L21.0847 722.087L21.3525 722.233H21.5473H21.7907H22.0586H22.2534H22.5213H22.8135H23.13H23.4709H24.664C24.8172 722.259 24.9735 722.259 25.1266 722.233C25.293 722.199 25.456 722.15 25.6136 722.087L25.9302 721.941L26.1493 721.795L33.7221 716.414L36.3518 708.281Z" fill="url(#paint71_linear_668_28473)"/>
<path d="M47.359 696.059C49.2339 697.179 49.794 698.786 48.4791 699.687L40.882 705.068L52.1802 711.838C54.0308 712.958 54.6152 714.589 53.2516 715.466C52.363 715.891 51.3787 716.076 50.3963 716.004C49.4139 715.931 48.4675 715.603 47.6512 715.052L36.353 708.283L28.7803 713.688C27.8857 714.106 26.8988 714.288 25.914 714.215C24.9292 714.143 23.9794 713.819 23.1556 713.274C21.305 712.154 20.7207 710.523 22.0599 709.646L29.6326 704.241L18.3587 697.471C16.5082 696.351 15.9238 694.744 17.263 693.843C18.1577 693.425 19.1446 693.244 20.1294 693.316C21.1142 693.389 22.064 693.713 22.8878 694.257L34.1616 701.026L41.7343 695.645C42.6271 695.22 43.6153 695.035 44.6015 695.107C45.5877 695.18 46.538 695.508 47.359 696.059Z" fill="url(#paint72_linear_668_28473)"/>
<g opacity="0.3">
<g opacity="0.3">
<path opacity="0.3" d="M732.575 721.724L732.722 721.578L732.868 721.432L732.989 721.262L734.231 719.192L739.101 710.986C738.999 711.183 738.858 711.357 738.687 711.498C738.497 711.653 738.283 711.776 738.054 711.863L726.61 716.221L720.474 726.473L731.918 722.114L732.161 721.992L732.381 721.871L732.551 721.749L732.575 721.724Z" fill="url(#paint73_linear_668_28473)"/>
<path opacity="0.3" d="M712.561 711.449L700.386 699.104C700.097 698.796 699.836 698.462 699.607 698.106C699.525 697.99 699.452 697.868 699.388 697.741C699.253 697.528 699.147 697.299 699.072 697.059C699.065 696.945 699.065 696.832 699.072 696.718C699.049 696.499 699.049 696.279 699.072 696.061C699.072 696.061 699.072 695.866 699.072 695.768C699.112 695.49 699.194 695.219 699.315 694.965L693.179 705.216C693.036 705.461 692.953 705.736 692.936 706.02V706.312C692.902 706.53 692.902 706.751 692.936 706.969C692.936 706.969 692.936 707.188 692.936 707.31L693.252 707.992L693.471 708.357V708.552L693.812 708.99L694.129 709.331L706.303 721.676L712.561 711.449Z" fill="url(#paint74_linear_668_28473)"/>
<path opacity="0.3" d="M733.429 743.442C733.497 743.408 733.555 743.358 733.599 743.296V743.15L733.721 742.98L739.882 732.728C739.762 732.92 739.614 733.093 739.443 733.24C739.241 733.39 739.02 733.513 738.786 733.605C738.541 733.695 738.289 733.761 738.031 733.8H737.106H736.375L735.888 733.678L735.377 733.532H735.231C734.947 733.439 734.67 733.325 734.403 733.191L733.526 732.704C733.239 732.526 732.963 732.331 732.698 732.12C732.414 731.904 732.145 731.668 731.895 731.414L719.72 719.068L713.584 729.319L725.759 741.665L726.027 741.933L726.319 742.2L726.538 742.371L726.83 742.59L727.122 742.785L727.342 742.931L727.682 743.126L728.023 743.32H728.169L728.632 743.515H728.876H729.022H729.168H729.509H730.02H730.142H730.726H731.676H732.114H732.431L732.674 743.393C732.757 743.374 732.833 743.332 732.893 743.272L733.064 743.15L733.429 743.442Z" fill="url(#paint75_linear_668_28473)"/>
<path opacity="0.3" d="M719.794 718.826L708.374 723.185C708.124 723.286 707.862 723.352 707.594 723.379H707.424C707.197 723.404 706.969 723.404 706.742 723.379H706.012L705.525 723.258L705.013 723.136H704.867L704.039 722.795C703.737 722.66 703.445 722.505 703.163 722.332C702.877 722.151 702.601 721.956 702.335 721.748C702.051 721.532 701.782 721.296 701.531 721.042C701.242 720.733 700.981 720.399 700.752 720.043C700.662 719.933 700.588 719.81 700.533 719.678C700.398 719.466 700.291 719.237 700.216 718.996C700.21 718.883 700.21 718.769 700.216 718.656C700.195 718.437 700.195 718.217 700.216 717.998C700.204 717.901 700.204 717.803 700.216 717.706C700.234 717.423 700.318 717.148 700.46 716.902L694.324 727.154C694.181 727.399 694.098 727.674 694.08 727.957C694.068 728.054 694.068 728.152 694.08 728.249C694.059 728.468 694.059 728.688 694.08 728.907C694.08 728.907 694.08 729.126 694.08 729.248C694.08 729.369 694.275 729.71 694.397 729.929L694.616 730.295V730.489L694.957 730.928L695.274 731.269L695.541 731.536L695.834 731.78L696.053 731.975L696.345 732.194L696.637 732.389L696.856 732.535L697.173 732.73L697.538 732.9H697.684L698.122 733.07H698.39H698.536H698.682H699.023L699.535 733.192C699.745 733.216 699.957 733.216 700.168 733.192C700.394 733.217 700.623 733.217 700.85 733.192H701.02H701.458L701.775 733.07L713.219 728.712L719.794 718.826Z" fill="url(#paint76_linear_668_28473)"/>
<path opacity="0.3" d="M737.885 706.846C739.858 708.867 739.955 711.107 738.08 711.716L726.636 716.075L738.811 728.444C740.807 730.465 740.904 732.705 739.005 733.436C737.722 733.668 736.4 733.566 735.168 733.14C733.935 732.713 732.834 731.977 731.968 731.001L719.794 718.656L708.374 723.014C707.087 723.251 705.76 723.151 704.523 722.724C703.286 722.298 702.18 721.559 701.312 720.579C699.316 718.558 699.218 716.294 701.117 715.588L712.562 711.205L700.387 698.859C698.39 696.814 698.317 694.598 700.192 693.868C701.475 693.631 702.798 693.73 704.032 694.157C705.265 694.584 706.367 695.323 707.229 696.303L719.404 708.672L730.848 704.289C732.142 704.074 733.47 704.196 734.702 704.644C735.935 705.092 737.031 705.85 737.885 706.846Z" fill="url(#paint77_linear_668_28473)"/>
</g>
</g>
<path d="M176.581 191.904C176.581 191.904 176.581 191.904 176.386 191.733L159.585 187.277H159.049L149.602 202.423L151.866 207.536C151.855 207.488 151.855 207.438 151.866 207.39C151.866 207.39 151.866 207.39 151.866 207.244L161.289 192.099C161.349 191.995 161.444 191.917 161.557 191.879C161.67 191.856 161.786 191.856 161.898 191.879L178.699 196.335C178.791 196.363 178.869 196.424 178.918 196.506L176.581 191.904Z" fill="url(#paint78_linear_668_28473)"/>
<path d="M178.991 187.447C179.607 187.564 180.182 187.837 180.662 188.241C181.142 188.645 181.509 189.166 181.729 189.753C181.95 190.34 182.015 190.974 181.919 191.593C181.823 192.213 181.57 192.798 181.182 193.291L171.759 208.436C170.916 209.686 169.72 210.656 168.324 211.224C166.928 211.792 165.394 211.932 163.919 211.626L147.117 207.17C146.499 207.052 145.921 206.778 145.439 206.373C144.957 205.968 144.587 205.446 144.365 204.857C144.143 204.268 144.075 203.632 144.169 203.009C144.263 202.387 144.515 201.799 144.902 201.302L154.325 186.181C155.17 184.927 156.369 183.953 157.77 183.385C159.171 182.817 160.71 182.68 162.19 182.991L178.991 187.447ZM167.133 207.194L176.556 192.073C176.586 192.034 176.605 191.988 176.612 191.94C176.62 191.891 176.615 191.841 176.598 191.795C176.581 191.749 176.552 191.708 176.515 191.676C176.478 191.643 176.434 191.621 176.386 191.611L159.584 187.155C159.47 187.13 159.351 187.14 159.243 187.183C159.134 187.226 159.041 187.301 158.976 187.398L149.528 202.544C149.498 202.584 149.479 202.632 149.473 202.682C149.467 202.733 149.474 202.784 149.494 202.83C149.514 202.877 149.545 202.918 149.585 202.948C149.625 202.979 149.673 202.999 149.723 203.006L166.5 207.462C166.62 207.48 166.742 207.465 166.854 207.418C166.966 207.37 167.062 207.293 167.133 207.194Z" fill="url(#paint79_linear_668_28473)"/>
<path d="M145.292 383.679L145.535 383.387V383.265L145.681 383.094C145.827 382.9 145.949 382.705 146.071 382.51C146.193 382.315 146.241 382.145 146.339 381.974L150.283 372.916C150.068 373.377 149.798 373.81 149.48 374.207V374.353C149.161 374.716 148.811 375.05 148.433 375.351L148.141 375.522C147.793 375.761 147.426 375.973 147.045 376.155L146.607 376.325C146.073 376.55 145.518 376.722 144.951 376.837L114.051 382.559C113.441 382.673 112.822 382.738 112.201 382.754H111.787C111.281 382.748 110.777 382.708 110.277 382.632H110.082C109.498 382.531 108.92 382.393 108.354 382.218H108.159C107.553 382.019 106.959 381.783 106.381 381.512C105.777 381.24 105.198 380.914 104.652 380.538C104.19 380.221 103.752 379.856 103.313 379.491L103.021 379.247C102.713 378.939 102.42 378.622 102.144 378.298C101.994 378.155 101.855 378 101.731 377.835C101.359 377.359 101.025 376.854 100.732 376.325L86.5364 349.176C86.0133 348.285 85.7017 347.286 85.6257 346.256C85.5497 345.226 85.7114 344.192 86.0981 343.234L82.1535 352.268C81.7722 353.227 81.6135 354.26 81.6894 355.289C81.7653 356.318 82.0738 357.317 82.5918 358.209L96.7876 385.359C97.0833 385.886 97.4169 386.39 97.7859 386.869C97.9109 387.034 98.0493 387.189 98.1998 387.331C98.419 387.599 98.6381 387.867 98.8816 388.11L99.0764 388.281L99.3686 388.524L99.8799 388.987L100.732 389.571L101.56 390.083L102.388 390.521L103.143 390.862L103.995 391.179H104.165H104.36L104.896 391.349L105.894 391.568H106.381H106.99H108.451C108.994 391.602 109.539 391.602 110.082 391.568L140.982 385.822C141.55 385.71 142.105 385.539 142.638 385.31L143.076 385.14L143.587 384.921L144.172 384.507L144.464 384.336C144.464 384.336 144.464 384.336 144.586 384.336L145.292 383.679Z" fill="url(#paint80_linear_668_28473)"/>
<path d="M141.445 369.044C141.48 368.972 141.498 368.893 141.498 368.813C141.498 368.733 141.48 368.654 141.445 368.582L127.128 341.432C127.085 341.349 127.027 341.275 126.957 341.213H126.3L95.4246 346.959H95.2054L91.2607 355.993C91.3041 355.917 91.362 355.851 91.4312 355.798L91.6991 355.676L122.258 349.954C122.456 349.894 122.668 349.894 122.866 349.954C123.051 350.045 123.204 350.189 123.305 350.368L137.5 377.518C137.535 377.59 137.553 377.669 137.553 377.749C137.553 377.829 137.535 377.908 137.5 377.981L141.445 369.044Z" fill="url(#paint81_linear_668_28473)"/>
<path d="M149.943 367C150.497 367.94 150.805 369.006 150.838 370.098C150.87 371.189 150.626 372.271 150.127 373.243C149.629 374.215 148.894 375.045 147.989 375.657C147.084 376.268 146.039 376.64 144.951 376.739L114.052 382.462C111.423 382.863 108.735 382.47 106.332 381.334C103.928 380.197 101.919 378.368 100.562 376.082L86.3663 348.932C85.8117 347.992 85.5039 346.926 85.4716 345.834C85.4393 344.743 85.6836 343.66 86.1817 342.689C86.6798 341.717 87.4155 340.887 88.3205 340.275C89.2255 339.664 90.2704 339.292 91.3579 339.192L122.257 333.446C124.888 333.047 127.578 333.443 129.982 334.584C132.386 335.725 134.393 337.559 135.747 339.85L149.943 367ZM110.083 375.084L140.982 369.337C141.067 369.33 141.148 369.301 141.217 369.253C141.287 369.205 141.343 369.14 141.38 369.064C141.417 368.988 141.433 368.903 141.428 368.819C141.422 368.734 141.394 368.653 141.347 368.582L127.127 341.433C127.026 341.251 126.871 341.105 126.684 341.013C126.497 340.922 126.286 340.89 126.08 340.921L95.2052 346.668C95.1161 346.671 95.0294 346.698 94.954 346.746C94.8785 346.794 94.8168 346.86 94.775 346.939C94.7331 347.018 94.7126 347.106 94.7154 347.195C94.7183 347.284 94.7444 347.371 94.7912 347.447L109.084 374.524C109.192 374.698 109.349 374.838 109.535 374.924C109.721 375.011 109.928 375.041 110.131 375.011" fill="url(#paint82_linear_668_28473)"/>
<path d="M710.955 50.2856L711.223 49.9935V49.8717L711.369 49.7013C711.369 49.5065 711.637 49.3117 711.734 49.1169C711.833 48.9433 711.922 48.7645 712.002 48.5812L715.946 39.5232C715.749 39.9879 715.486 40.4224 715.167 40.8137V40.9598C714.861 41.3345 714.509 41.6698 714.12 41.9581L713.852 42.1286C713.504 42.3681 713.138 42.5798 712.757 42.7617L712.318 42.9321C711.778 43.1603 711.214 43.3316 710.638 43.4434L679.86 49.1899C679.248 49.284 678.63 49.341 678.01 49.3604H677.425C676.923 49.3965 676.418 49.3965 675.916 49.3604H675.648C675.056 49.2571 674.47 49.1189 673.895 48.9464H673.724C673.118 48.747 672.525 48.5112 671.947 48.2403C671.337 47.9637 670.751 47.638 670.194 47.2663C669.721 46.9523 669.273 46.6022 668.854 46.2193L668.538 45.9758C668.221 45.6836 667.954 45.3427 667.661 45.0261C667.369 44.7096 667.394 44.734 667.272 44.5635C666.886 44.0972 666.552 43.5911 666.273 43.0538L652.078 15.9042C651.555 15.0135 651.243 14.0146 651.167 12.9845C651.091 11.9544 651.253 10.9207 651.639 9.96289L647.695 18.9966C647.308 19.9543 647.146 20.9881 647.222 22.0182C647.298 23.0483 647.61 24.0472 648.133 24.9378L662.329 52.0875C662.607 52.6248 662.942 53.1308 663.327 53.5972C663.327 53.7676 663.595 53.9137 663.717 54.0598C663.838 54.2059 664.155 54.5955 664.423 54.839L664.618 55.0095L664.91 55.253L665.421 55.7156L666.249 56.3L667.101 56.8113L667.929 57.2496L668.66 57.5905L669.536 57.9071H669.707H669.877L670.437 58.0775L671.411 58.2966H671.898H672.531H673.992C674.555 58.276 675.117 58.2191 675.672 58.1262L706.645 52.4771C707.221 52.3653 707.784 52.1939 708.325 51.9658L708.763 51.7953L709.25 51.5762L709.859 51.1866L710.127 50.9918H710.273C710.522 50.7782 710.75 50.5418 710.955 50.2856Z" fill="url(#paint83_linear_668_28473)"/>
<path d="M707.108 35.6518C707.149 35.5815 707.17 35.5017 707.17 35.4205C707.17 35.3393 707.149 35.2595 707.108 35.1891L692.913 8.03945L692.742 7.82031H692.085L661.185 13.5668H660.991V13.7129L657.046 22.7465C657.073 22.6677 657.124 22.5994 657.192 22.5517L657.435 22.43L687.897 16.5861C688.095 16.5273 688.307 16.5273 688.505 16.5861C688.685 16.6843 688.835 16.8268 688.944 17.0001L703.139 44.1498C703.174 44.222 703.192 44.301 703.192 44.3811C703.192 44.4611 703.174 44.5402 703.139 44.6124L707.108 35.6518Z" fill="url(#paint84_linear_668_28473)"/>
<path d="M715.606 33.6316C716.165 34.5625 716.48 35.6194 716.521 36.7044C716.563 37.7894 716.33 38.8674 715.845 39.8386C715.359 40.8097 714.636 41.6426 713.743 42.2602C712.85 42.8777 711.816 43.26 710.736 43.3714L679.861 49.1909C677.23 49.5868 674.541 49.1889 672.138 48.0481C669.735 46.9073 667.727 45.0755 666.371 42.787L652.175 15.6373C651.616 14.7064 651.301 13.6495 651.26 12.5645C651.218 11.4795 651.451 10.4015 651.936 9.43038C652.422 8.45921 653.145 7.62628 654.038 7.00873C654.931 6.39118 655.965 6.00898 657.045 5.89753L687.92 0.151052C690.551 -0.248173 693.241 0.148244 695.645 1.28937C698.049 2.43049 700.056 4.2642 701.41 6.55496L715.606 33.6316ZM675.819 41.7157L706.645 36.0666C706.732 36.0635 706.816 36.0376 706.889 35.9913C706.962 35.945 707.021 35.8801 707.061 35.8032C707.101 35.7263 707.119 35.6403 707.114 35.5539C707.11 35.4675 707.082 35.3839 707.035 35.3117L692.839 8.16204C692.732 7.98487 692.577 7.84231 692.391 7.75157C692.205 7.66084 691.997 7.62582 691.792 7.6507L660.892 13.3972C660.805 13.4048 660.722 13.4346 660.65 13.4838C660.577 13.5329 660.519 13.5997 660.48 13.6779C660.441 13.756 660.422 13.8428 660.426 13.9301C660.43 14.0174 660.457 14.1022 660.503 14.1764L674.699 41.3261C674.81 41.5029 674.971 41.6433 675.161 41.7298C675.352 41.8163 675.563 41.8453 675.77 41.813" fill="url(#paint85_linear_668_28473)"/>
<path d="M481.844 329.389C480.983 343.598 494.581 350.2 501.219 351.456L506.064 340.692C501.579 335.668 491.64 325.514 487.765 325.083C483.889 324.653 482.203 327.774 481.844 329.389Z" fill="#FFDFC5"/>
<defs>
<linearGradient id="paint0_linear_668_28473" x1="427.867" y1="626.216" x2="366.579" y2="519.567" gradientUnits="userSpaceOnUse">
<stop stop-color="#00FFFF" stop-opacity="0.3"/>
<stop offset="1" stop-color="#9AFFFF"/>
</linearGradient>
<linearGradient id="paint1_linear_668_28473" x1="-2.21095" y1="76.6036" x2="162.193" y2="85.3948" gradientUnits="userSpaceOnUse">
<stop stop-color="#44C4FA"/>
<stop offset="1" stop-color="#3027F2"/>
</linearGradient>
<linearGradient id="paint2_linear_668_28473" x1="29.9316" y1="92.1114" x2="194.336" y2="100.903" gradientUnits="userSpaceOnUse">
<stop stop-color="#44C4FA"/>
<stop offset="1" stop-color="#3027F2"/>
</linearGradient>
<linearGradient id="paint3_linear_668_28473" x1="61.8281" y1="107.574" x2="246.203" y2="116.231" gradientUnits="userSpaceOnUse">
<stop stop-color="#44C1F8"/>
<stop offset="1" stop-color="#3027EF"/>
</linearGradient>
<linearGradient id="paint4_linear_668_28473" x1="89.5553" y1="537.456" x2="82.7602" y2="528.148" gradientUnits="userSpaceOnUse">
<stop stop-color="#0095E1"/>
<stop offset="1" stop-color="#72FFFF"/>
</linearGradient>
<linearGradient id="paint5_linear_668_28473" x1="27067.9" y1="203864" x2="27067.9" y2="89196.5" gradientUnits="userSpaceOnUse">
<stop stop-color="#0095E1"/>
<stop offset="1" stop-color="#72FFFF"/>
</linearGradient>
<linearGradient id="paint6_linear_668_28473" x1="10856.9" y1="9517.48" x2="10856.9" y2="9404.28" gradientUnits="userSpaceOnUse">
<stop stop-color="#0095E1"/>
<stop offset="1" stop-color="#72FFFF"/>
</linearGradient>
<linearGradient id="paint7_linear_668_28473" x1="16566.3" y1="13031.2" x2="16566.3" y2="12778.1" gradientUnits="userSpaceOnUse">
<stop stop-color="#0095E1"/>
<stop offset="1" stop-color="#72FFFF"/>
</linearGradient>
<linearGradient id="paint8_linear_668_28473" x1="36214.9" y1="107759" x2="29129.4" y2="68395.2" gradientUnits="userSpaceOnUse">
<stop stop-color="#0095E1"/>
<stop offset="1" stop-color="#72FFFF"/>
</linearGradient>
<linearGradient id="paint9_linear_668_28473" x1="23125.7" y1="66032.3" x2="19048.6" y2="43381.7" gradientUnits="userSpaceOnUse">
<stop stop-color="#0095E1"/>
<stop offset="1" stop-color="#72FFFF"/>
</linearGradient>
<linearGradient id="paint10_linear_668_28473" x1="29791.9" y1="95638.6" x2="13811.4" y2="60898.6" gradientUnits="userSpaceOnUse">
<stop stop-color="white"/>
</linearGradient>
<linearGradient id="paint11_linear_668_28473" x1="293.872" y1="597.915" x2="306.973" y2="335.912" gradientUnits="userSpaceOnUse">
<stop stop-color="white"/>
</linearGradient>
<linearGradient id="paint12_linear_668_28473" x1="3907.81" y1="12502.8" x2="2400.22" y2="9225.46" gradientUnits="userSpaceOnUse">
<stop stop-color="white"/>
</linearGradient>
<linearGradient id="paint13_linear_668_28473" x1="2683.19" y1="26902.9" x2="4340.01" y2="26844.8" gradientUnits="userSpaceOnUse">
<stop stop-color="#0A199C"/>
<stop offset="1" stop-color="#173EC8"/>
</linearGradient>
<linearGradient id="paint14_linear_668_28473" x1="13573" y1="13433.5" x2="22087.5" y2="9748.46" gradientUnits="userSpaceOnUse">
<stop stop-color="#0A199C"/>
<stop offset="1" stop-color="#173EC8"/>
</linearGradient>
<linearGradient id="paint15_linear_668_28473" x1="26491.8" y1="233562" x2="46578" y2="232583" gradientUnits="userSpaceOnUse">
<stop stop-color="#0A199C"/>
<stop offset="1" stop-color="#173EC8"/>
</linearGradient>
<linearGradient id="paint16_linear_668_28473" x1="13512.3" y1="231466" x2="23583" y2="231218" gradientUnits="userSpaceOnUse">
<stop stop-color="#0A199C"/>
<stop offset="1" stop-color="#173EC8"/>
</linearGradient>
<linearGradient id="paint17_linear_668_28473" x1="7461.33" y1="9522.69" x2="12312.1" y2="7940.35" gradientUnits="userSpaceOnUse">
<stop stop-color="#0A199C"/>
<stop offset="1" stop-color="#173EC8"/>
</linearGradient>
<linearGradient id="paint18_linear_668_28473" x1="13524.9" y1="222607" x2="23575.6" y2="222350" gradientUnits="userSpaceOnUse">
<stop stop-color="#0A199C"/>
<stop offset="1" stop-color="#173EC8"/>
</linearGradient>
<linearGradient id="paint19_linear_668_28473" x1="508.125" y1="477.345" x2="522.754" y2="477.605" gradientUnits="userSpaceOnUse">
<stop stop-color="#44C4FA"/>
<stop offset="1" stop-color="#3027F2"/>
</linearGradient>
<linearGradient id="paint20_linear_668_28473" x1="26442" y1="68.6919" x2="26436.9" y2="26.2651" gradientUnits="userSpaceOnUse">
<stop stop-color="#0095E1"/>
<stop offset="1" stop-color="#72FFFF"/>
</linearGradient>
<linearGradient id="paint21_linear_668_28473" x1="30999.3" y1="55190" x2="28487.1" y2="34255.2" gradientUnits="userSpaceOnUse">
<stop stop-color="#0095E1"/>
<stop offset="1" stop-color="#72FFFF"/>
</linearGradient>
<linearGradient id="paint22_linear_668_28473" x1="12800.2" y1="372.16" x2="12798.7" y2="359.578" gradientUnits="userSpaceOnUse">
<stop stop-color="#0095E1"/>
<stop offset="1" stop-color="#72FFFF"/>
</linearGradient>
<linearGradient id="paint23_linear_668_28473" x1="19206.8" y1="-236.583" x2="19205" y2="-251.849" gradientUnits="userSpaceOnUse">
<stop stop-color="#0095E1"/>
<stop offset="1" stop-color="#72FFFF"/>
</linearGradient>
<linearGradient id="paint24_linear_668_28473" x1="9096.06" y1="195961" x2="16047.5" y2="195821" gradientUnits="userSpaceOnUse">
<stop stop-color="#0A199C"/>
<stop offset="1" stop-color="#173EC8"/>
</linearGradient>
<linearGradient id="paint25_linear_668_28473" x1="17458" y1="195961" x2="30871.3" y2="195440" gradientUnits="userSpaceOnUse">
<stop stop-color="#0A199C"/>
<stop offset="1" stop-color="#173EC8"/>
</linearGradient>
<linearGradient id="paint26_linear_668_28473" x1="8509.24" y1="175641" x2="14985.7" y2="175506" gradientUnits="userSpaceOnUse">
<stop stop-color="#0A199C"/>
<stop offset="1" stop-color="#173EC8"/>
</linearGradient>
<linearGradient id="paint27_linear_668_28473" x1="412.381" y1="552.415" x2="102.574" y2="-308.16" gradientUnits="userSpaceOnUse">
<stop stop-color="#72FFFF"/>
<stop offset="1" stop-color="#0095E1"/>
</linearGradient>
<linearGradient id="paint28_linear_668_28473" x1="18091.7" y1="100353" x2="3989.33" y2="61179.6" gradientUnits="userSpaceOnUse">
<stop/>
</linearGradient>
<linearGradient id="paint29_linear_668_28473" x1="28772.5" y1="95375" x2="9704.23" y2="42407.7" gradientUnits="userSpaceOnUse">
<stop/>
</linearGradient>
<linearGradient id="paint30_linear_668_28473" x1="23733.6" y1="152741" x2="41904.3" y2="151510" gradientUnits="userSpaceOnUse">
<stop stop-color="#0A199C"/>
<stop offset="1" stop-color="#173EC8"/>
</linearGradient>
<linearGradient id="paint31_linear_668_28473" x1="16618.2" y1="141199" x2="29309.5" y2="140550" gradientUnits="userSpaceOnUse">
<stop stop-color="#0A199C"/>
<stop offset="1" stop-color="#173EC8"/>
</linearGradient>
<linearGradient id="paint32_linear_668_28473" x1="24398.4" y1="51598" x2="23195.7" y2="41575.6" gradientUnits="userSpaceOnUse">
<stop stop-color="white" stop-opacity="0.61"/>
</linearGradient>
<linearGradient id="paint33_linear_668_28473" x1="25410.6" y1="180032" x2="44692.5" y2="178858" gradientUnits="userSpaceOnUse">
<stop stop-color="#0A199C"/>
<stop offset="1" stop-color="#173EC8"/>
</linearGradient>
<linearGradient id="paint34_linear_668_28473" x1="14703.9" y1="173180" x2="25722.6" y2="172783" gradientUnits="userSpaceOnUse">
<stop stop-color="#0A199C"/>
<stop offset="1" stop-color="#173EC8"/>
</linearGradient>
<linearGradient id="paint35_linear_668_28473" x1="15631.8" y1="29056.2" x2="19812" y2="28783.1" gradientUnits="userSpaceOnUse">
<stop offset="1" stop-color="#2FAEEF"/>
</linearGradient>
<linearGradient id="paint36_linear_668_28473" x1="15396.7" y1="40327.4" x2="13169.8" y2="27956.1" gradientUnits="userSpaceOnUse">
<stop stop-color="#2FAEEF"/>
</linearGradient>
<linearGradient id="paint37_linear_668_28473" x1="23955.4" y1="264887" x2="42253" y2="264171" gradientUnits="userSpaceOnUse">
<stop stop-color="#0A199C"/>
<stop offset="1" stop-color="#173EC8"/>
</linearGradient>
<linearGradient id="paint38_linear_668_28473" x1="13273.9" y1="197772" x2="23290.4" y2="197485" gradientUnits="userSpaceOnUse">
<stop stop-color="#0A199C"/>
<stop offset="1" stop-color="#173EC8"/>
</linearGradient>
<linearGradient id="paint39_linear_668_28473" x1="507.673" y1="430.038" x2="537.18" y2="420.573" gradientUnits="userSpaceOnUse">
<stop stop-color="#2FAEEF"/>
</linearGradient>
<linearGradient id="paint40_linear_668_28473" x1="517.973" y1="478.964" x2="523.244" y2="480.438" gradientUnits="userSpaceOnUse">
<stop stop-color="#2FAEEF"/>
</linearGradient>
<linearGradient id="paint41_linear_668_28473" x1="11095.8" y1="38378.6" x2="9806.77" y2="33604.5" gradientUnits="userSpaceOnUse">
<stop stop-color="#2FAEEF"/>
</linearGradient>
<linearGradient id="paint42_linear_668_28473" x1="39881.5" y1="27042.4" x2="39881.5" y2="22397.3" gradientUnits="userSpaceOnUse">
<stop stop-color="#0095E1"/>
<stop offset="1" stop-color="#72FFFF"/>
</linearGradient>
<linearGradient id="paint43_linear_668_28473" x1="32843.7" y1="21917.5" x2="32843.7" y2="18785" gradientUnits="userSpaceOnUse">
<stop stop-color="#0095E1"/>
<stop offset="1" stop-color="#72FFFF"/>
</linearGradient>
<linearGradient id="paint44_linear_668_28473" x1="26631" y1="17539" x2="26631" y2="15490.8" gradientUnits="userSpaceOnUse">
<stop stop-color="#0095E1"/>
<stop offset="1" stop-color="#72FFFF"/>
</linearGradient>
<linearGradient id="paint45_linear_668_28473" x1="21097.9" y1="13722.5" x2="21097.9" y2="12448.1" gradientUnits="userSpaceOnUse">
<stop stop-color="#0095E1"/>
<stop offset="1" stop-color="#72FFFF"/>
</linearGradient>
<linearGradient id="paint46_linear_668_28473" x1="16183.6" y1="10410.7" x2="16183.6" y2="9671.04" gradientUnits="userSpaceOnUse">
<stop stop-color="#0095E1"/>
<stop offset="1" stop-color="#72FFFF"/>
</linearGradient>
<linearGradient id="paint47_linear_668_28473" x1="35225.4" y1="33006.9" x2="35225.4" y2="28361.8" gradientUnits="userSpaceOnUse">
<stop stop-color="#0095E1"/>
<stop offset="1" stop-color="#72FFFF"/>
</linearGradient>
<linearGradient id="paint48_linear_668_28473" x1="28993.8" y1="26839.3" x2="28993.8" y2="23706.8" gradientUnits="userSpaceOnUse">
<stop stop-color="#0095E1"/>
<stop offset="1" stop-color="#72FFFF"/>
</linearGradient>
<linearGradient id="paint49_linear_668_28473" x1="23492.7" y1="21544.4" x2="23492.7" y2="19496.2" gradientUnits="userSpaceOnUse">
<stop stop-color="#0095E1"/>
<stop offset="1" stop-color="#72FFFF"/>
</linearGradient>
<linearGradient id="paint50_linear_668_28473" x1="18593.4" y1="16910.1" x2="18593.4" y2="15635.6" gradientUnits="userSpaceOnUse">
<stop stop-color="#0095E1"/>
<stop offset="1" stop-color="#72FFFF"/>
</linearGradient>
<linearGradient id="paint51_linear_668_28473" x1="14252.7" y1="12871.6" x2="14252.7" y2="12131.9" gradientUnits="userSpaceOnUse">
<stop stop-color="#0095E1"/>
<stop offset="1" stop-color="#72FFFF"/>
</linearGradient>
<linearGradient id="paint52_linear_668_28473" x1="633.474" y1="804.098" x2="633.474" y2="663.723" gradientUnits="userSpaceOnUse">
<stop stop-color="#008AE8"/>
<stop offset="1" stop-color="#0024B3"/>
</linearGradient>
<linearGradient id="paint53_linear_668_28473" x1="530.353" y1="610.594" x2="547.642" y2="521.694" gradientUnits="userSpaceOnUse">
<stop stop-color="#9FDDE8" stop-opacity="0"/>
<stop offset="1" stop-color="#ACF3FF"/>
</linearGradient>
<linearGradient id="paint54_linear_668_28473" x1="667.783" y1="393.93" x2="644.553" y2="322.976" gradientUnits="userSpaceOnUse">
<stop stop-color="#1A0E7E"/>
<stop offset="1" stop-color="#2F229B"/>
</linearGradient>
<linearGradient id="paint55_linear_668_28473" x1="42271.9" y1="34962.4" x2="42271.9" y2="32310.5" gradientUnits="userSpaceOnUse">
<stop stop-color="#008AE8"/>
<stop offset="1" stop-color="#0024B3"/>
</linearGradient>
<radialGradient id="paint56_radial_668_28473" cx="0" cy="0" r="1" gradientUnits="userSpaceOnUse" gradientTransform="translate(20768.4 12169.1) scale(183.749 183.749)">
<stop stop-color="#FEFF93"/>
<stop offset="1" stop-color="#FE456D"/>
</radialGradient>
<linearGradient id="paint57_linear_668_28473" x1="338.968" y1="633.115" x2="366.093" y2="633.115" gradientUnits="userSpaceOnUse">
<stop stop-color="#2997D1"/>
<stop offset="1" stop-color="#77DEE8"/>
</linearGradient>
<linearGradient id="paint58_linear_668_28473" x1="19663.4" y1="14640.2" x2="19947.1" y2="14640.2" gradientUnits="userSpaceOnUse">
<stop stop-color="#2997D1"/>
<stop offset="1" stop-color="#77DEE8"/>
</linearGradient>
<linearGradient id="paint59_linear_668_28473" x1="330.982" y1="631.705" x2="370.939" y2="631.705" gradientUnits="userSpaceOnUse">
<stop stop-color="#00FFFF"/>
<stop offset="1" stop-color="#00FFFF"/>
</linearGradient>
<linearGradient id="paint60_linear_668_28473" x1="10396.3" y1="3184.41" x2="10694.7" y2="3184.41" gradientUnits="userSpaceOnUse">
<stop stop-color="#2997D1"/>
<stop offset="1" stop-color="#77DEE8"/>
</linearGradient>
<linearGradient id="paint61_linear_668_28473" x1="16438.5" y1="4918.79" x2="16722.3" y2="4918.79" gradientUnits="userSpaceOnUse">
<stop stop-color="#2997D1"/>
<stop offset="1" stop-color="#77DEE8"/>
</linearGradient>
<linearGradient id="paint62_linear_668_28473" x1="15292.6" y1="4785.86" x2="15948.4" y2="4785.86" gradientUnits="userSpaceOnUse">
<stop stop-color="#00FFFF"/>
<stop offset="1" stop-color="#00FFFF"/>
</linearGradient>
<linearGradient id="paint63_linear_668_28473" x1="20436.6" y1="7106.71" x2="20772.2" y2="7106.71" gradientUnits="userSpaceOnUse">
<stop stop-color="#FE456D"/>
<stop offset="1" stop-color="#FEFF93"/>
</linearGradient>
<linearGradient id="paint64_linear_668_28473" x1="21834.3" y1="-8016.78" x2="22561.9" y2="-8573.24" gradientUnits="userSpaceOnUse">
<stop stop-color="#FEFF93"/>
<stop offset="1" stop-color="#FE456D"/>
</linearGradient>
<linearGradient id="paint65_linear_668_28473" x1="5227.82" y1="17680.2" x2="5390.65" y2="17972.1" gradientUnits="userSpaceOnUse">
<stop stop-color="#2997D1"/>
<stop offset="1" stop-color="#77DEE8"/>
</linearGradient>
<linearGradient id="paint66_linear_668_28473" x1="8561.26" y1="28490.8" x2="8721.6" y2="28778.2" gradientUnits="userSpaceOnUse">
<stop stop-color="#2997D1"/>
<stop offset="1" stop-color="#77DEE8"/>
</linearGradient>
<linearGradient id="paint67_linear_668_28473" x1="7420.31" y1="27048.5" x2="7789.91" y2="27710.9" gradientUnits="userSpaceOnUse">
<stop stop-color="#00FFFF"/>
<stop offset="1" stop-color="#00FFFF"/>
</linearGradient>
<linearGradient id="paint68_linear_668_28473" x1="-657.719" y1="7316.09" x2="-636.482" y2="7332.54" gradientUnits="userSpaceOnUse">
<stop stop-color="#2997D1"/>
<stop offset="1" stop-color="#77DEE8"/>
</linearGradient>
<linearGradient id="paint69_linear_668_28473" x1="-376.619" y1="9154.69" x2="-278.464" y2="9230.69" gradientUnits="userSpaceOnUse">
<stop stop-color="#2997D1"/>
<stop offset="1" stop-color="#77DEE8"/>
</linearGradient>
<linearGradient id="paint70_linear_668_28473" x1="1426.87" y1="9395.37" x2="1563.57" y2="9501.22" gradientUnits="userSpaceOnUse">
<stop stop-color="#2997D1"/>
<stop offset="1" stop-color="#77DEE8"/>
</linearGradient>
<linearGradient id="paint71_linear_668_28473" x1="1052.62" y1="8317.48" x2="1129.54" y2="8377.03" gradientUnits="userSpaceOnUse">
<stop stop-color="#2997D1"/>
<stop offset="1" stop-color="#77DEE8"/>
</linearGradient>
<linearGradient id="paint72_linear_668_28473" x1="3994.64" y1="14653.8" x2="4503.88" y2="15048.1" gradientUnits="userSpaceOnUse">
<stop stop-color="#00FFFF"/>
<stop offset="1" stop-color="#00FFFF"/>
</linearGradient>
<linearGradient id="paint73_linear_668_28473" x1="2424.74" y1="13843.7" x2="2462.01" y2="13891.9" gradientUnits="userSpaceOnUse">
<stop stop-color="#2997D1"/>
<stop offset="1" stop-color="#77DEE8"/>
</linearGradient>
<linearGradient id="paint74_linear_668_28473" x1="-1377.83" y1="17197.2" x2="-1251.85" y2="17360.4" gradientUnits="userSpaceOnUse">
<stop stop-color="#2997D1"/>
<stop offset="1" stop-color="#77DEE8"/>
</linearGradient>
<linearGradient id="paint75_linear_668_28473" x1="2104.48" y1="20005.7" x2="2287.83" y2="20243.2" gradientUnits="userSpaceOnUse">
<stop stop-color="#2997D1"/>
<stop offset="1" stop-color="#77DEE8"/>
</linearGradient>
<linearGradient id="paint76_linear_668_28473" x1="4569.35" y1="17453.4" x2="4686.28" y2="17604.8" gradientUnits="userSpaceOnUse">
<stop stop-color="#2997D1"/>
<stop offset="1" stop-color="#77DEE8"/>
</linearGradient>
<linearGradient id="paint77_linear_668_28473" x1="2197.98" y1="31042.7" x2="2771.6" y2="31785.5" gradientUnits="userSpaceOnUse">
<stop stop-color="#00FFFF"/>
<stop offset="1" stop-color="#00FFFF"/>
</linearGradient>
<linearGradient id="paint78_linear_668_28473" x1="11197.9" y1="4083.44" x2="11539.2" y2="4083.44" gradientUnits="userSpaceOnUse">
<stop stop-color="#113DC7"/>
<stop offset="1" stop-color="#069FFF"/>
</linearGradient>
<linearGradient id="paint79_linear_668_28473" x1="144.171" y1="197.308" x2="181.913" y2="197.308" gradientUnits="userSpaceOnUse">
<stop stop-color="#069FFF"/>
<stop offset="1" stop-color="#113DC7"/>
</linearGradient>
<linearGradient id="paint80_linear_668_28473" x1="-1259.84" y1="33118.5" x2="72.2845" y2="34574.3" gradientUnits="userSpaceOnUse">
<stop stop-color="#FE456D"/>
<stop offset="1" stop-color="#FEFF93"/>
</linearGradient>
<linearGradient id="paint81_linear_668_28473" x1="-1047.86" y1="24707.8" x2="-352.294" y2="25468" gradientUnits="userSpaceOnUse">
<stop stop-color="#FE456D"/>
<stop offset="1" stop-color="#FEFF93"/>
</linearGradient>
<linearGradient id="paint82_linear_668_28473" x1="-2192" y1="32469.7" x2="-985.908" y2="33787.8" gradientUnits="userSpaceOnUse">
<stop stop-color="#FEFF93"/>
<stop offset="1" stop-color="#FE456D"/>
</linearGradient>
<linearGradient id="paint83_linear_668_28473" x1="11404.9" y1="27558" x2="12740" y2="29017" gradientUnits="userSpaceOnUse">
<stop stop-color="#113DC7"/>
<stop offset="1" stop-color="#069FFF"/>
</linearGradient>
<linearGradient id="paint84_linear_668_28473" x1="8595.85" y1="20392.1" x2="9289.87" y2="21150.6" gradientUnits="userSpaceOnUse">
<stop stop-color="#113DC7"/>
<stop offset="1" stop-color="#069FFF"/>
</linearGradient>
<linearGradient id="paint85_linear_668_28473" x1="10469.2" y1="26544.4" x2="11673.5" y2="27860.4" gradientUnits="userSpaceOnUse">
<stop stop-color="#069FFF"/>
<stop offset="1" stop-color="#113DC7"/>
</linearGradient>
</defs>
</svg>
