<svg width="41" height="42" viewBox="0 0 41 42" fill="none" xmlns="http://www.w3.org/2000/svg">
<path d="M15.8527 21.6948L25.6054 29.7408C25.7183 29.8339 25.855 29.8979 26.0022 29.9266C26.1493 29.9552 26.3019 29.9476 26.445 29.9043C26.588 29.8611 26.7166 29.7837 26.8182 29.6799C26.9198 29.576 26.9909 29.4492 27.0244 29.3118L31.1042 12.6221C31.1394 12.4778 31.132 12.3272 31.0828 12.1866C31.0335 12.046 30.9442 11.9206 30.8245 11.824C30.7049 11.7274 30.5594 11.6632 30.4037 11.6384C30.248 11.6136 30.0881 11.6292 29.9411 11.6833L9.92347 19.0558C9.74902 19.1201 9.60144 19.2356 9.50283 19.385C9.40422 19.5345 9.35988 19.7098 9.37644 19.8849C9.393 20.0599 9.46957 20.2252 9.5947 20.356C9.71983 20.4869 9.88678 20.5762 10.0706 20.6107L15.8527 21.6948Z" stroke="white" stroke-width="2" stroke-linecap="round" stroke-linejoin="round"/>
<path d="M15.8535 21.6951L30.6167 11.6992" stroke="white" stroke-width="2" stroke-linecap="round" stroke-linejoin="round"/>
<path d="M20.7243 25.7137L17.3348 28.8913C17.2134 29.0051 17.0588 29.0826 16.8905 29.114C16.7222 29.1454 16.5477 29.1293 16.3892 29.0677C16.2306 29.0061 16.0951 28.9018 15.9998 28.7681C15.9044 28.6343 15.8535 28.477 15.8535 28.3161V21.6953" stroke="white" stroke-width="2" stroke-linecap="round" stroke-linejoin="round"/>
<path d="M20.3213 40.3456C30.936 40.3456 39.541 31.7407 39.541 21.1259C39.541 10.5112 30.936 1.90625 20.3213 1.90625C9.70652 1.90625 1.10156 10.5112 1.10156 21.1259C1.10156 31.7407 9.70652 40.3456 20.3213 40.3456Z" stroke="url(#paint0_linear_768_15542)" stroke-width="2" stroke-miterlimit="10"/>
<defs>
<linearGradient id="paint0_linear_768_15542" x1="0.926841" y1="1.90626" x2="16.1493" y2="-2.02275" gradientUnits="userSpaceOnUse">
<stop stop-color="white"/>
</linearGradient>
</defs>
</svg>
