<svg width="42" height="42" viewBox="0 0 42 42" fill="none" xmlns="http://www.w3.org/2000/svg">
<path d="M21.2197 40.4394C31.8344 40.4394 40.4394 31.8344 40.4394 21.2197C40.4394 10.605 31.8344 2 21.2197 2C10.605 2 2 10.605 2 21.2197C2 31.8344 10.605 40.4394 21.2197 40.4394Z" fill="white" stroke="url(#paint0_linear_1316_9400)" stroke-width="2" stroke-miterlimit="10"/>
<path d="M16.7517 21.7886L26.5044 29.8346C26.6172 29.9276 26.7539 29.9917 26.9011 30.0203C27.0482 30.049 27.2008 30.0413 27.3439 29.9981C27.487 29.9548 27.6156 29.8775 27.7172 29.7736C27.8187 29.6698 27.8898 29.5429 27.9234 29.4056L32.0031 12.7159C32.0383 12.5716 32.031 12.421 31.9817 12.2804C31.9324 12.1397 31.8431 12.0143 31.7235 11.9177C31.6038 11.8211 31.4583 11.757 31.3026 11.7322C31.1469 11.7074 30.987 11.7229 30.84 11.777L10.8224 19.1496C10.6479 19.2138 10.5004 19.3293 10.4018 19.4788C10.3031 19.6282 10.2588 19.8036 10.2754 19.9786C10.2919 20.1536 10.3685 20.3189 10.4936 20.4498C10.6188 20.5806 10.7857 20.67 10.9695 20.7044L16.7517 21.7886Z" stroke="#220970" stroke-width="2" stroke-linecap="round" stroke-linejoin="round"/>
<path d="M16.752 21.7889L31.5151 11.793" stroke="#220970" stroke-width="2" stroke-linecap="round" stroke-linejoin="round"/>
<path d="M21.6227 25.8074L18.2332 28.9851C18.1119 29.0989 17.9573 29.1763 17.7889 29.2077C17.6206 29.2391 17.4462 29.223 17.2876 29.1614C17.1291 29.0999 16.9935 28.9956 16.8982 28.8618C16.8028 28.728 16.752 28.5708 16.752 28.4099V21.7891" stroke="#220970" stroke-width="2" stroke-linecap="round" stroke-linejoin="round"/>
<defs>
<linearGradient id="paint0_linear_1316_9400" x1="1.82528" y1="2.00001" x2="17.0477" y2="-1.929" gradientUnits="userSpaceOnUse">
<stop stop-color="white"/>
</linearGradient>
</defs>
</svg>
