<svg width="42" height="42" viewBox="0 0 42 42" fill="none" xmlns="http://www.w3.org/2000/svg">
<path d="M21.2197 40.4394C31.8344 40.4394 40.4394 31.8344 40.4394 21.2197C40.4394 10.605 31.8344 2 21.2197 2C10.605 2 2 10.605 2 21.2197C2 31.8344 10.605 40.4394 21.2197 40.4394Z" fill="white" stroke="url(#paint0_linear_1316_9401)" stroke-width="2" stroke-miterlimit="10"/>
<path d="M11.2785 28.8985C11.2785 28.8985 15.617 28.0308 16.4848 25.4277C16.4848 25.4277 9.54311 22.8246 11.2785 13.2798C11.2785 13.2798 14.7493 17.6183 19.9556 18.4861V16.751C19.9557 15.7541 20.299 14.7877 20.9277 14.0142C21.5565 13.2408 22.4324 12.7073 23.4082 12.5037C24.384 12.3 25.4002 12.4385 26.2859 12.8959C27.1716 13.3533 27.8728 14.1016 28.2716 15.0152L32.1035 15.0152L28.6326 18.4861C28.6326 24.56 24.2941 30.6339 16.4848 30.6339C13.0139 30.6339 11.2785 28.8985 11.2785 28.8985Z" stroke="#220970" stroke-width="2" stroke-linecap="round" stroke-linejoin="round"/>
<defs>
<linearGradient id="paint0_linear_1316_9401" x1="1.82528" y1="2.00001" x2="17.0477" y2="-1.929" gradientUnits="userSpaceOnUse">
<stop stop-color="white"/>
</linearGradient>
</defs>
</svg>
