<svg width="41" height="42" viewBox="0 0 41 42" fill="none" xmlns="http://www.w3.org/2000/svg">
<path d="M20.7802 40.3456C31.395 40.3456 39.9999 31.7407 39.9999 21.1259C39.9999 10.5112 31.395 1.90625 20.7802 1.90625C10.1655 1.90625 1.56055 10.5112 1.56055 21.1259C1.56055 31.7407 10.1655 40.3456 20.7802 40.3456Z" stroke="url(#paint0_linear_768_15543)" stroke-width="2" stroke-miterlimit="10"/>
<path d="M10.5168 28.8048C10.5168 28.8048 14.8553 27.9371 15.723 25.3339C15.723 25.3339 8.78139 22.7308 10.5168 13.1861C10.5168 13.1861 13.9876 17.5246 19.1939 18.3923V16.6572C19.194 15.6604 19.5372 14.694 20.166 13.9205C20.7948 13.147 21.6707 12.6136 22.6465 12.4099C23.6223 12.2062 24.6385 12.3447 25.5241 12.8021C26.4098 13.2595 27.1111 14.0079 27.5099 14.9214L31.3417 14.9215L27.8709 18.3923C27.8709 24.4662 23.5324 30.5402 15.723 30.5402C12.2522 30.5402 10.5168 28.8048 10.5168 28.8048Z" stroke="white" stroke-width="2" stroke-linecap="round" stroke-linejoin="round"/>
<defs>
<linearGradient id="paint0_linear_768_15543" x1="1.38583" y1="1.90626" x2="16.6083" y2="-2.02275" gradientUnits="userSpaceOnUse">
<stop stop-color="white"/>
</linearGradient>
</defs>
</svg>
